<svg width="102" height="102" viewBox="0 0 102 102" fill="none" xmlns="http://www.w3.org/2000/svg">
<g clip-path="url(#clip0_228_1344)">
<path d="M34.5482 31.2581H67.4512C67.5588 31.2581 67.6663 31.2634 67.7739 31.274C67.8808 31.2846 67.9877 31.3006 68.0933 31.3211C68.1989 31.3424 68.3032 31.3683 68.4068 31.3995C68.5097 31.4307 68.6106 31.4672 68.7102 31.5084C68.8099 31.5496 68.9075 31.5961 69.0024 31.6465C69.0974 31.6977 69.1897 31.7528 69.2793 31.8125C69.369 31.8723 69.4553 31.9367 69.5383 32.0051C69.622 32.0735 69.7017 32.1452 69.7781 32.2216C69.8544 32.298 69.9261 32.3777 69.9945 32.4607C70.0629 32.5443 70.1274 32.6307 70.1871 32.7203C70.2469 32.81 70.302 32.9023 70.3531 32.9972C70.4036 33.0922 70.4501 33.1898 70.4913 33.2894C70.5324 33.389 70.569 33.49 70.6002 33.5929C70.6314 33.6965 70.6573 33.8008 70.6785 33.9063C70.6991 34.0119 70.715 34.1188 70.7257 34.2258C70.7363 34.3333 70.7416 34.4409 70.7416 34.5485V67.4515C70.7416 67.559 70.7363 67.6666 70.7257 67.7742C70.715 67.8811 70.6991 67.988 70.6785 68.0936C70.6573 68.1992 70.6314 68.3034 70.6002 68.4064C70.569 68.51 70.5324 68.6109 70.4913 68.7105C70.4501 68.8101 70.4036 68.9077 70.3531 69.0027C70.302 69.0977 70.2469 69.19 70.1871 69.2796C70.1274 69.3693 70.0629 69.4556 69.9945 69.5386C69.9261 69.6223 69.8544 69.702 69.7781 69.7783C69.7017 69.8547 69.622 69.9264 69.5383 69.9948C69.4553 70.0632 69.369 70.1276 69.2793 70.1874C69.1897 70.2472 69.0974 70.3023 69.0024 70.3534C68.9075 70.4039 68.8099 70.4504 68.7102 70.4915C68.6106 70.5327 68.5097 70.5692 68.4068 70.6004C68.3032 70.6316 68.1989 70.6575 68.0933 70.6788C67.9877 70.6994 67.8808 70.7153 67.7739 70.7259C67.6663 70.7366 67.5588 70.7419 67.4512 70.7419H34.5482C34.4407 70.7419 34.3331 70.7366 34.2255 70.7259C34.1186 70.7153 34.0117 70.6994 33.9061 70.6788C33.8005 70.6575 33.6962 70.6316 33.5927 70.6004C33.4897 70.5692 33.3888 70.5327 33.2892 70.4915C33.1896 70.4504 33.092 70.4039 32.997 70.3534C32.902 70.3023 32.8097 70.2472 32.7201 70.1874C32.6304 70.1276 32.5441 70.0632 32.4604 69.9948C32.3774 69.9264 32.2977 69.8547 32.2214 69.7783C32.145 69.702 32.0733 69.6223 32.0049 69.5386C31.9365 69.4556 31.8721 69.3693 31.8123 69.2796C31.7525 69.19 31.6974 69.0977 31.6463 69.0027C31.5958 68.9077 31.5493 68.8101 31.5082 68.7105C31.467 68.6109 31.4305 68.51 31.3993 68.4064C31.368 68.3034 31.3421 68.1992 31.3209 68.0936C31.3003 67.988 31.2844 67.8811 31.2737 67.7742C31.2631 67.6666 31.2578 67.559 31.2578 67.4515V34.5485C31.2578 34.4409 31.2631 34.3333 31.2737 34.2258C31.2844 34.1188 31.3003 34.0119 31.3209 33.9063C31.3421 33.8008 31.368 33.6965 31.3993 33.5929C31.4305 33.49 31.467 33.389 31.5082 33.2894C31.5493 33.1898 31.5958 33.0922 31.6463 32.9972C31.6974 32.9023 31.7525 32.81 31.8123 32.7203C31.8721 32.6307 31.9365 32.5443 32.0049 32.4607C32.0733 32.3777 32.145 32.298 32.2214 32.2216C32.2977 32.1452 32.3774 32.0735 32.4604 32.0051C32.5441 31.9367 32.6304 31.8723 32.7201 31.8125C32.8097 31.7528 32.902 31.6977 32.997 31.6465C33.092 31.5961 33.1896 31.5496 33.2892 31.5084C33.3888 31.4672 33.4897 31.4307 33.5927 31.3995C33.6962 31.3683 33.8005 31.3424 33.9061 31.3211C34.0117 31.3006 34.1186 31.2846 34.2255 31.274C34.3331 31.2634 34.4407 31.2581 34.5482 31.2581Z" fill="#F8EAEE"/>
<path d="M36.1934 24.6772H42.7742V31.2581H36.1934V24.6772Z" fill="#C6587A"/>
<path d="M47.71 24.6772H54.2908V31.2581H47.71V24.6772Z" fill="#C6587A"/>
<path d="M59.2256 24.6772H65.8064V31.2581H59.2256V24.6772Z" fill="#C6587A"/>
<path d="M24.6768 65.8067V59.2258H31.2576V65.8067H24.6768Z" fill="#C6587A"/>
<path d="M24.6768 54.2903V47.7095H31.2576V54.2903H24.6768Z" fill="#C6587A"/>
<path d="M24.6768 42.7742V36.1934H31.2576V42.7742H24.6768Z" fill="#C6587A"/>
<path d="M70.7422 65.8067V59.2258H77.323V65.8067H70.7422Z" fill="#C6587A"/>
<path d="M70.7422 54.2903V47.7095H77.323V54.2903H70.7422Z" fill="#C6587A"/>
<path d="M70.7422 42.7742V36.1934H77.323V42.7742H70.7422Z" fill="#C6587A"/>
<path d="M36.1934 70.7419H42.7742V77.3228H36.1934V70.7419Z" fill="#C6587A"/>
<path d="M47.71 70.7419H54.2908V77.3228H47.71V70.7419Z" fill="#C6587A"/>
<path d="M59.2256 70.7419H65.8064V77.3228H59.2256V70.7419Z" fill="#C6587A"/>
<path d="M32.9029 19.7419V13.1611L27.2398 12.4532C27.1389 12.1802 27.0293 11.912 26.9085 11.649L30.4114 7.14531L25.7583 2.49223L21.2546 5.99449C20.9917 5.87363 20.7227 5.76473 20.4498 5.66312L19.7419 0H13.161L12.4532 5.66312C12.1802 5.76473 11.9119 5.87363 11.649 5.99449L7.14531 2.49223L2.49222 7.14531L5.99449 11.649C5.87363 11.912 5.76472 12.1802 5.66312 12.4532L0 13.1611V19.7419L5.66312 20.4498C5.76472 20.7227 5.87363 20.9917 5.99449 21.2546L2.49222 25.7583L7.14531 30.4114L11.649 26.9085C11.9119 27.0293 12.1802 27.1389 12.4532 27.2398L13.161 32.903H19.7419L20.4498 27.2398C20.7227 27.1389 20.9917 27.0293 21.2546 26.9085L25.7583 30.4114L30.4114 25.7583L26.9085 21.2546C27.0293 20.9917 27.1389 20.7227 27.2398 20.4498L32.9029 19.7419ZM16.4515 23.0323C12.8171 23.0323 9.87128 20.0859 9.87128 16.4515C9.87128 12.8171 12.8171 9.87062 16.4515 9.87062C20.0859 9.87062 23.0323 12.8171 23.0323 16.4515C23.0323 20.0859 20.0859 23.0323 16.4515 23.0323Z" fill="#C6587A"/>
<path d="M85.5482 0C76.4618 0 69.0967 5.89223 69.0967 13.1611C69.0967 17.8261 72.1381 21.9141 76.7128 24.2516L74.032 29.6132L82.7637 26.1202C83.6708 26.2437 84.5972 26.3228 85.5482 26.3228C94.6338 26.3228 102 20.4299 102 13.1611C102 5.89223 94.6338 0 85.5482 0Z" fill="#F8EAEE"/>
<path d="M44.4191 57.5809C43.8792 57.5809 43.3606 57.314 43.0505 56.8484L39.4838 51.4988V55.9354C39.4838 56.8438 38.748 57.5809 37.8389 57.5809C36.9291 57.5809 36.1934 56.8438 36.1934 55.9354V46.0654C36.1934 45.3409 36.6675 44.7008 37.3614 44.4909C38.0554 44.2791 38.8078 44.5493 39.2075 45.153L42.7742 50.5027V46.0654C42.7742 45.157 43.51 44.4205 44.4191 44.4205C45.3289 44.4205 46.0646 45.157 46.0646 46.0654V55.9354C46.0646 56.6598 45.5905 57.3007 44.8966 57.5098C44.7392 57.5583 44.5785 57.5809 44.4191 57.5809Z" fill="#CF7390"/>
<path d="M54.2908 57.5809H49.3555C48.4457 57.5809 47.71 56.8438 47.71 55.9354V46.0647C47.71 45.1563 48.4457 44.4192 49.3555 44.4192C50.2646 44.4192 51.0004 45.1563 51.0004 46.0647V54.2905H54.2908C55.1999 54.2905 55.9357 55.0269 55.9357 55.9354C55.9357 56.8438 55.1999 57.5809 54.2908 57.5809Z" fill="#CF7390"/>
<path d="M60.8715 44.4192H59.2259C58.3168 44.4192 57.5811 45.1563 57.5811 46.0647V55.9354C57.5811 56.8438 58.3168 57.5809 59.2259 57.5809C60.135 57.5809 60.8715 56.8438 60.8715 55.9354V54.2905C63.5928 54.2905 65.8068 52.0765 65.8068 49.3552C65.8068 46.6332 63.5928 44.4192 60.8715 44.4192ZM60.8715 51V47.7096C61.7786 47.7096 62.5164 48.4481 62.5164 49.3552C62.5164 50.2616 61.7786 51 60.8715 51Z" fill="#CF7390"/>
<path d="M100.355 102H74.0323C73.1232 102 72.3867 101.263 72.3867 100.355V74.0323C72.3867 73.1238 73.1232 72.3867 74.0323 72.3867C74.9414 72.3867 75.6771 73.1238 75.6771 74.0323V98.7095H100.355C101.264 98.7095 102 99.4459 102 100.355C102 101.263 101.264 102 100.355 102Z" fill="#C6587A"/>
<path d="M98.5828 81.63C98.4162 81.2269 98.0961 80.9068 97.693 80.7401C97.4924 80.6564 97.2786 80.6133 97.0648 80.6133H92.1288C91.2197 80.6133 90.4839 81.3497 90.4839 82.2582C90.4839 83.1666 91.2197 83.903 92.1288 83.903H93.0924L90.039 86.9564L86.0693 85.6329C85.4762 85.4337 84.8255 85.5904 84.3852 86.0307L79.4499 90.966C78.8071 91.6088 78.8071 92.6494 79.4499 93.2922C79.7713 93.6136 80.1923 93.7743 80.6133 93.7743C81.0337 93.7743 81.4547 93.6136 81.7761 93.2922L85.9935 89.0754L89.9633 90.3996C90.5563 90.5961 91.2071 90.4414 91.6474 90.0018L95.4192 86.2299V87.1935C95.4192 88.1019 96.155 88.839 97.0648 88.839C97.9739 88.839 98.7097 88.1019 98.7097 87.1935V82.2582C98.7097 82.0443 98.6665 81.8305 98.5828 81.63Z" fill="#C6587A"/>
<path d="M92.0244 17.5187L87.0891 4.35768C86.8481 3.71619 86.2345 3.29053 85.5485 3.29053C84.8625 3.29053 84.2489 3.71619 84.0079 4.35768L79.0726 17.5187C78.7545 18.3694 79.1848 19.317 80.0348 19.6371C80.8848 19.9499 81.8344 19.5249 82.1538 18.6735L82.9872 16.4509H88.1091L88.9432 18.6735C89.1902 19.3343 89.8184 19.742 90.4838 19.742C90.6764 19.742 90.871 19.7075 91.0622 19.6371C91.9115 19.317 92.3425 18.3694 92.0244 17.5187ZM84.221 13.1612L85.5485 9.62103L86.876 13.1612H84.221Z" fill="#C6587A"/>
<path d="M28.1319 87.1934C28.1319 87.4119 28.1266 87.6297 28.116 87.8475C28.1054 88.0653 28.0888 88.2825 28.0675 88.4996C28.0463 88.7168 28.0197 88.9333 27.9878 89.1491C27.9553 89.3649 27.9181 89.5794 27.8756 89.7932C27.8331 90.007 27.7853 90.2202 27.7322 90.4314C27.6797 90.6432 27.6213 90.8531 27.5582 91.0616C27.4944 91.2708 27.426 91.4773 27.353 91.6831C27.2793 91.8883 27.2009 92.0915 27.1172 92.2934C27.0342 92.4946 26.9459 92.6938 26.8523 92.8911C26.7593 93.0883 26.661 93.2829 26.5581 93.4754C26.4558 93.6674 26.3483 93.8573 26.236 94.0445C26.1238 94.2311 26.0069 94.4158 25.8861 94.597C25.7646 94.7783 25.639 94.9563 25.5096 95.1316C25.3794 95.3069 25.2453 95.4789 25.1071 95.6476C24.9683 95.8156 24.8262 95.981 24.6801 96.1423C24.5334 96.3043 24.3833 96.4624 24.2286 96.6165C24.0745 96.7705 23.9165 96.9206 23.7551 97.0674C23.5937 97.2135 23.4284 97.3562 23.2597 97.4944C23.091 97.6331 22.9197 97.7673 22.7444 97.8968C22.5691 98.0269 22.3911 98.1524 22.2092 98.2733C22.0279 98.3948 21.8439 98.511 21.6567 98.6233C21.4701 98.7355 21.2801 98.8431 21.0876 98.946C20.8956 99.0489 20.7004 99.1465 20.5039 99.2402C20.3066 99.3331 20.1074 99.4215 19.9055 99.5051C19.7043 99.5881 19.5005 99.6672 19.2953 99.7402C19.0901 99.8139 18.8829 99.8823 18.6744 99.9454C18.4658 100.009 18.2553 100.067 18.0442 100.12C17.8323 100.173 17.6198 100.221 17.406 100.263C17.1922 100.306 16.977 100.343 16.7612 100.375C16.5454 100.407 16.3296 100.433 16.1124 100.455C15.8953 100.477 15.6775 100.493 15.4596 100.503C15.2418 100.514 15.024 100.519 14.8062 100.519C14.5877 100.519 14.3699 100.514 14.1521 100.503C13.9343 100.493 13.7171 100.477 13.5 100.455C13.2828 100.433 13.0664 100.407 12.8505 100.375C12.6347 100.343 12.4202 100.306 12.2064 100.263C11.9926 100.221 11.7794 100.173 11.5682 100.12C11.3564 100.067 11.1466 100.009 10.938 99.9454C10.7289 99.8823 10.5223 99.8139 10.3165 99.7402C10.1113 99.6672 9.90808 99.5881 9.7062 99.5051C9.50499 99.4215 9.30578 99.3331 9.10855 99.2402C8.91132 99.1465 8.71675 99.0489 8.52417 98.946C8.33226 98.8431 8.14234 98.7355 7.95507 98.6233C7.76847 98.511 7.58386 98.3948 7.40257 98.2733C7.22128 98.1524 7.04332 98.0269 6.868 97.8968C6.69269 97.7673 6.5207 97.6331 6.35203 97.4944C6.18336 97.3562 6.01867 97.2135 5.8573 97.0674C5.69527 96.9206 5.53722 96.7705 5.38316 96.6165C5.2291 96.4624 5.07902 96.3043 4.93226 96.1423C4.78551 95.981 4.6434 95.8163 4.50527 95.6476C4.36648 95.4789 4.23234 95.3069 4.10285 95.1316C3.97269 94.9563 3.84719 94.7783 3.72633 94.597C3.6048 94.4158 3.48793 94.2311 3.37637 94.0445C3.26414 93.8573 3.15656 93.6674 3.05363 93.4754C2.9507 93.2829 2.85308 93.0883 2.75945 92.8911C2.66648 92.6938 2.57816 92.4946 2.49449 92.2934C2.41148 92.0915 2.33246 91.8883 2.25941 91.6831C2.1857 91.4773 2.1173 91.2708 2.05422 91.0616C1.99047 90.8531 1.93269 90.6432 1.87957 90.4314C1.82645 90.2202 1.77863 90.007 1.73613 89.7932C1.69363 89.5794 1.65645 89.3649 1.62457 89.1491C1.5927 88.9333 1.56547 88.7168 1.54422 88.4996C1.52297 88.2825 1.50703 88.0653 1.49641 87.8475C1.48578 87.6297 1.48047 87.4119 1.48047 87.1934C1.48047 86.9756 1.48578 86.7578 1.49641 86.54C1.50703 86.3222 1.52297 86.1044 1.54422 85.8872C1.56547 85.6701 1.5927 85.4542 1.62457 85.2384C1.65645 85.0226 1.69363 84.8074 1.73613 84.5936C1.77863 84.3798 1.82645 84.1673 1.87957 83.9554C1.93269 83.7443 1.99047 83.5338 2.05422 83.3253C2.1173 83.1167 2.1857 82.9095 2.25941 82.7044C2.33246 82.4992 2.41148 82.2953 2.49449 82.0941C2.57816 81.8922 2.66648 81.693 2.75945 81.4958C2.85308 81.2992 2.9507 81.104 3.05363 80.912C3.15656 80.7195 3.26414 80.5295 3.37637 80.3429C3.48793 80.1557 3.6048 79.9717 3.72633 79.7904C3.84719 79.6085 3.97269 79.4305 4.10285 79.2552C4.23234 79.0799 4.36648 78.9086 4.50527 78.7399C4.6434 78.5712 4.78551 78.4059 4.93226 78.2445C5.07902 78.0831 5.2291 77.9251 5.38316 77.771C5.53722 77.6163 5.69527 77.4662 5.8573 77.3195C6.01867 77.1734 6.18336 77.0306 6.35203 76.8925C6.5207 76.7544 6.69269 76.6202 6.868 76.4901C7.04332 76.3606 7.22128 76.2344 7.40257 76.1135C7.58386 75.9927 7.76847 75.8758 7.95507 75.7636C8.14234 75.6513 8.33226 75.5438 8.52417 75.4415C8.71675 75.3386 8.91132 75.2403 9.10855 75.1473C9.30578 75.0537 9.50499 74.9654 9.7062 74.8824C9.90808 74.7987 10.1113 74.7203 10.3165 74.6466C10.5223 74.5736 10.7289 74.5052 10.938 74.4414C11.1466 74.3783 11.3564 74.3199 11.5682 74.2674C11.7794 74.2143 11.9926 74.1665 12.2064 74.124C12.4202 74.0815 12.6347 74.0437 12.8505 74.0118C13.0664 73.9799 13.2828 73.9533 13.5 73.9321C13.7171 73.9108 13.9343 73.8942 14.1521 73.8836C14.3699 73.873 14.5877 73.8677 14.8062 73.8677C15.024 73.8677 15.2418 73.873 15.4596 73.8836C15.6775 73.8942 15.8953 73.9108 16.1124 73.9321C16.3296 73.9533 16.5454 73.9799 16.7612 74.0118C16.977 74.0437 17.1922 74.0815 17.406 74.124C17.6198 74.1665 17.8323 74.2143 18.0442 74.2674C18.2553 74.3199 18.4658 74.3783 18.6744 74.4414C18.8829 74.5052 19.0901 74.5736 19.2953 74.6466C19.5005 74.7203 19.7043 74.7987 19.9055 74.8824C20.1074 74.9654 20.3066 75.0537 20.5039 75.1473C20.7004 75.2403 20.8956 75.3386 21.0876 75.4415C21.2801 75.5438 21.4701 75.6513 21.6567 75.7636C21.8439 75.8758 22.0279 75.9927 22.2092 76.1135C22.3911 76.2344 22.5691 76.3606 22.7444 76.4901C22.9197 76.6202 23.091 76.7544 23.2597 76.8925C23.4284 77.0306 23.5937 77.1734 23.7551 77.3195C23.9165 77.4662 24.0745 77.6163 24.2286 77.771C24.3833 77.9251 24.5334 78.0831 24.6801 78.2445C24.8262 78.4059 24.9683 78.5712 25.1071 78.7399C25.2453 78.9086 25.3794 79.0799 25.5096 79.2552C25.639 79.4305 25.7646 79.6085 25.8861 79.7904C26.0069 79.9717 26.1238 80.1557 26.236 80.3429C26.3483 80.5295 26.4558 80.7195 26.5581 80.912C26.661 81.104 26.7593 81.2992 26.8523 81.4958C26.9459 81.693 27.0342 81.8922 27.1172 82.0941C27.2009 82.2953 27.2793 82.4992 27.353 82.7044C27.426 82.9095 27.4944 83.1167 27.5582 83.3253C27.6213 83.5338 27.6797 83.7443 27.7322 83.9554C27.7853 84.1673 27.8331 84.3798 27.8756 84.5936C27.9181 84.8074 27.9553 85.0226 27.9878 85.2384C28.0197 85.4542 28.0463 85.6701 28.0675 85.8872C28.0888 86.1044 28.1054 86.3222 28.116 86.54C28.1266 86.7578 28.1319 86.9756 28.1319 87.1934Z" fill="#F8EAEE"/>
<path d="M14.8066 72.3867C6.64261 72.3867 0 79.0287 0 87.1933C0 95.358 6.64261 102 14.8066 102C22.9699 102 29.6132 95.358 29.6132 87.1933C29.6132 79.0287 22.9699 72.3867 14.8066 72.3867ZM26.6515 87.1933C26.6515 88.2844 26.4914 89.3369 26.2138 90.341C25.3572 90.0727 24.4773 89.8323 23.5649 89.6284C23.6406 88.8362 23.6904 88.0267 23.6904 87.1933C23.6904 86.3599 23.6406 85.5511 23.5649 84.7582C24.4773 84.5543 25.3572 84.3139 26.2138 84.0457C26.4914 85.0497 26.6515 86.1023 26.6515 87.1933ZM2.96105 87.1933C2.96105 86.1023 3.12176 85.0497 3.39933 84.0457C4.25597 84.3139 5.13519 84.5543 6.04761 84.7582C5.97191 85.5511 5.92277 86.3599 5.92277 87.1933C5.92277 88.0267 5.97191 88.8362 6.04761 89.6284C5.13519 89.8323 4.25597 90.0727 3.39933 90.341C3.12176 89.3369 2.96105 88.2844 2.96105 87.1933ZM8.88382 87.1933C8.88382 86.5379 8.91968 85.9077 8.97214 85.2914C10.3866 85.4907 11.8435 85.6055 13.3257 85.6567V88.7306C11.8435 88.7811 10.3866 88.896 8.97214 89.0952C8.91968 88.4789 8.88382 87.8494 8.88382 87.1933ZM16.2868 75.7887C17.8965 76.7157 19.4132 79.0765 20.1895 82.3669C18.9231 82.5436 17.6169 82.6471 16.2868 82.6956V75.7887ZM13.3257 75.7887V82.6956C11.9963 82.6471 10.6901 82.5436 9.4237 82.3669C10.2 79.0765 11.7167 76.7157 13.3257 75.7887ZM13.3257 91.691V98.5986C11.7167 97.6709 10.2 95.3102 9.4237 92.0197C10.6901 91.8431 11.9963 91.7395 13.3257 91.691ZM16.2868 98.5986V91.691C17.6169 91.7395 18.9231 91.8431 20.1895 92.0197C19.4132 95.3102 17.8965 97.6709 16.2868 98.5986ZM16.2868 88.7306V85.6567C17.769 85.6055 19.2259 85.4907 20.641 85.2914C20.6935 85.9077 20.7287 86.5379 20.7287 87.1933C20.7287 87.8494 20.6935 88.4789 20.641 89.0952C19.2259 88.896 17.769 88.7811 16.2868 88.7306ZM25.0663 81.2998C24.4249 81.4937 23.7781 81.6796 23.1014 81.835C22.7342 80.216 22.2069 78.7425 21.5448 77.4641C22.9845 78.4642 24.1878 79.7757 25.0663 81.2998ZM8.06769 77.4641C7.40628 78.7425 6.87835 80.216 6.51113 81.835C5.83445 81.6796 5.18765 81.4937 4.54617 81.2998C5.42539 79.7757 6.62867 78.4642 8.06769 77.4641ZM4.54617 93.0869C5.18765 92.893 5.83511 92.707 6.51179 92.5516C6.87902 94.1706 7.40628 95.6448 8.06769 96.9225C6.62867 95.9224 5.42539 94.6109 4.54617 93.0869ZM21.5448 96.9225C22.2069 95.6448 22.7342 94.1706 23.1014 92.5516C23.7781 92.707 24.4249 92.893 25.0663 93.0869C24.1878 94.6109 22.9845 95.9224 21.5448 96.9225Z" fill="#C6587A"/>
<path d="M39.4834 8.22583H42.7738V11.5163H39.4834V8.22583Z" fill="#CF7390"/>
<path d="M46.0645 8.22583H49.3549V11.5163H46.0645V8.22583Z" fill="#CF7390"/>
<path d="M52.6445 8.22583H55.935V11.5163H52.6445V8.22583Z" fill="#CF7390"/>
<path d="M59.2256 8.22583H62.516V11.5163H59.2256V8.22583Z" fill="#CF7390"/>
<path d="M39.4834 90.4839H42.7738V93.7743H39.4834V90.4839Z" fill="#CF7390"/>
<path d="M46.0645 90.4839H49.3549V93.7743H46.0645V90.4839Z" fill="#CF7390"/>
<path d="M52.6445 90.4839H55.935V93.7743H52.6445V90.4839Z" fill="#CF7390"/>
<path d="M59.2256 90.4839H62.516V93.7743H59.2256V90.4839Z" fill="#CF7390"/>
<path d="M90.4834 39.4839H93.7738V42.7743H90.4834V39.4839Z" fill="#CF7390"/>
<path d="M90.4834 46.0647H93.7738V49.3551H90.4834V46.0647Z" fill="#CF7390"/>
<path d="M90.4834 52.6448H93.7738V55.9352H90.4834V52.6448Z" fill="#CF7390"/>
<path d="M90.4834 59.2258H93.7738V62.5163H90.4834V59.2258Z" fill="#CF7390"/>
<path d="M8.22559 39.4839H11.516V42.7743H8.22559V39.4839Z" fill="#CF7390"/>
<path d="M8.22559 46.0647H11.516V49.3551H8.22559V46.0647Z" fill="#CF7390"/>
<path d="M8.22559 52.6448H11.516V55.9352H8.22559V52.6448Z" fill="#CF7390"/>
<path d="M8.22559 59.2258H11.516V62.5163H8.22559V59.2258Z" fill="#CF7390"/>
</g>
<defs>
<clipPath id="clip0_228_1344">
<rect width="102" height="102" fill="white"/>
</clipPath>
</defs>
</svg>
