<svg width="82" height="82" viewBox="0 0 82 82" fill="none" xmlns="http://www.w3.org/2000/svg">
<g clip-path="url(#clip0_228_1451)">
<path fill-rule="evenodd" clip-rule="evenodd" d="M27.7002 29.5234H54.1892V52.3655H27.7002V29.5234Z" fill="#C4CED3"/>
<path fill-rule="evenodd" clip-rule="evenodd" d="M26.5479 51.3577H55.3882V57.8837H26.5479V51.3577Z" fill="#CF7390"/>
<path fill-rule="evenodd" clip-rule="evenodd" d="M27.7002 24.0049H54.1892V30.5314H27.7002V24.0049Z" fill="#CF7390"/>
<path fill-rule="evenodd" clip-rule="evenodd" d="M53.0371 30.5314V57.8839H57.4041C57.6442 57.8839 57.8838 57.6443 57.8838 57.4042V24.5326C57.8838 24.2449 57.6442 24.0049 57.4041 24.0049H53.0371V30.5314Z" fill="#C6587A"/>
<path fill-rule="evenodd" clip-rule="evenodd" d="M28.8996 30.5314V24.0049H24.5326C24.2449 24.0049 24.0049 24.2449 24.0049 24.5326V57.4042C24.0049 57.6443 24.2449 57.8839 24.5326 57.8839H28.8996V30.5314Z" fill="#C6587A"/>
<path fill-rule="evenodd" clip-rule="evenodd" d="M26.7398 21.1256C26.7398 21.4614 26.4521 21.7495 26.164 21.7495C25.8282 21.7495 25.54 21.4614 25.54 21.1256V11.4323C25.54 11.096 25.8282 10.8564 26.164 10.8564C26.4521 10.8564 26.7398 11.096 26.7398 11.4323V21.1256Z" fill="#CF7390"/>
<path fill-rule="evenodd" clip-rule="evenodd" d="M31.6832 21.1256C31.6832 21.4614 31.395 21.7495 31.1073 21.7495C30.7711 21.7495 30.4834 21.4614 30.4834 21.1256V11.4323C30.4834 11.096 30.7711 10.8564 31.1073 10.8564C31.395 10.8564 31.6832 11.096 31.6832 11.4323V21.1256Z" fill="#CF7390"/>
<path fill-rule="evenodd" clip-rule="evenodd" d="M36.6251 21.1256C36.6251 21.4614 36.3374 21.7495 36.0016 21.7495C35.7135 21.7495 35.4258 21.4614 35.4258 21.1256V11.4323C35.4258 11.096 35.7135 10.8564 36.0016 10.8564C36.3374 10.8564 36.6251 11.096 36.6251 11.4323V21.1256Z" fill="#CF7390"/>
<path fill-rule="evenodd" clip-rule="evenodd" d="M41.5679 21.1256C41.5679 21.4614 41.2802 21.7495 40.944 21.7495C40.6563 21.7495 40.3682 21.4614 40.3682 21.1256V11.4323C40.3682 11.096 40.6563 10.8564 40.944 10.8564C41.2802 10.8564 41.5679 11.096 41.5679 11.4323V21.1256Z" fill="#CF7390"/>
<path fill-rule="evenodd" clip-rule="evenodd" d="M46.4632 21.1256C46.4632 21.4614 46.2231 21.7495 45.8874 21.7495C45.5516 21.7495 45.3115 21.4614 45.3115 21.1256V11.4323C45.3115 11.096 45.5516 10.8564 45.8874 10.8564C46.2231 10.8564 46.4632 11.096 46.4632 11.4323V21.1256Z" fill="#CF7390"/>
<path fill-rule="evenodd" clip-rule="evenodd" d="M51.4056 21.1256C51.4056 21.4614 51.1655 21.7495 50.8297 21.7495C50.4935 21.7495 50.2539 21.4614 50.2539 21.1256V11.4323C50.2539 11.096 50.4935 10.8564 50.8297 10.8564C51.1655 10.8564 51.4056 11.096 51.4056 11.4323V21.1256Z" fill="#CF7390"/>
<path fill-rule="evenodd" clip-rule="evenodd" d="M56.3479 21.1256C56.3479 21.4614 56.1084 21.7495 55.7721 21.7495C55.4363 21.7495 55.1963 21.4614 55.1963 21.1256V11.4323C55.1963 11.096 55.4363 10.8564 55.7721 10.8564C56.1084 10.8564 56.3479 11.096 56.3479 11.4323V21.1256Z" fill="#CF7390"/>
<path fill-rule="evenodd" clip-rule="evenodd" d="M60.7633 26.74C60.4752 26.74 60.1875 26.4523 60.1875 26.1642C60.1875 25.8284 60.4752 25.5403 60.7633 25.5403H70.5047C70.7924 25.5403 71.0806 25.8284 71.0806 26.1642C71.0806 26.4523 70.7924 26.74 70.5047 26.74H60.7633Z" fill="#CF7390"/>
<path fill-rule="evenodd" clip-rule="evenodd" d="M60.7633 31.6829C60.4752 31.6829 60.1875 31.3948 60.1875 31.1071C60.1875 30.7708 60.4752 30.4832 60.7633 30.4832H70.5047C70.7924 30.4832 71.0806 30.7708 71.0806 31.1071C71.0806 31.3948 70.7924 31.6829 70.5047 31.6829H60.7633Z" fill="#CF7390"/>
<path fill-rule="evenodd" clip-rule="evenodd" d="M60.7633 36.6253C60.4752 36.6253 60.1875 36.3376 60.1875 36.0019C60.1875 35.7137 60.4752 35.426 60.7633 35.426H70.5047C70.7924 35.426 71.0806 35.7137 71.0806 36.0019C71.0806 36.3376 70.7924 36.6253 70.5047 36.6253H60.7633Z" fill="#CF7390"/>
<path fill-rule="evenodd" clip-rule="evenodd" d="M60.7633 41.5682C60.4752 41.5682 60.1875 41.2805 60.1875 40.9442C60.1875 40.6565 60.4752 40.3684 60.7633 40.3684H70.5047C70.7924 40.3684 71.0806 40.6565 71.0806 40.9442C71.0806 41.2805 70.7924 41.5682 70.5047 41.5682H60.7633Z" fill="#CF7390"/>
<path fill-rule="evenodd" clip-rule="evenodd" d="M60.7633 46.4629C60.4752 46.4629 60.1875 46.2229 60.1875 45.8871C60.1875 45.5513 60.4752 45.3113 60.7633 45.3113H70.5047C70.7924 45.3113 71.0806 45.5513 71.0806 45.8871C71.0806 46.2229 70.7924 46.4629 70.5047 46.4629H60.7633Z" fill="#CF7390"/>
<path fill-rule="evenodd" clip-rule="evenodd" d="M60.7633 51.4058C60.4752 51.4058 60.1875 51.1658 60.1875 50.83C60.1875 50.4937 60.4752 50.2542 60.7633 50.2542H70.5047C70.7924 50.2542 71.0806 50.4937 71.0806 50.83C71.0806 51.1658 70.7924 51.4058 70.5047 51.4058H60.7633Z" fill="#CF7390"/>
<path fill-rule="evenodd" clip-rule="evenodd" d="M60.7633 56.3482C60.4752 56.3482 60.1875 56.1081 60.1875 55.7724C60.1875 55.4366 60.4752 55.1965 60.7633 55.1965H70.5047C70.7924 55.1965 71.0806 55.4366 71.0806 55.7724C71.0806 56.1081 70.7924 56.3482 70.5047 56.3482H60.7633Z" fill="#CF7390"/>
<path fill-rule="evenodd" clip-rule="evenodd" d="M55.1963 60.7633C55.1963 60.4752 55.4363 60.1875 55.7721 60.1875C56.1084 60.1875 56.3479 60.4752 56.3479 60.7633V70.5047C56.3479 70.7924 56.1084 71.0806 55.7721 71.0806C55.4363 71.0806 55.1963 70.7924 55.1963 70.5047V60.7633Z" fill="#CF7390"/>
<path fill-rule="evenodd" clip-rule="evenodd" d="M50.2539 60.7633C50.2539 60.4752 50.4935 60.1875 50.8297 60.1875C51.1655 60.1875 51.4056 60.4752 51.4056 60.7633V70.5047C51.4056 70.7924 51.1655 71.0806 50.8297 71.0806C50.4935 71.0806 50.2539 70.7924 50.2539 70.5047V60.7633Z" fill="#CF7390"/>
<path fill-rule="evenodd" clip-rule="evenodd" d="M45.3115 60.7633C45.3115 60.4752 45.5516 60.1875 45.8874 60.1875C46.2231 60.1875 46.4632 60.4752 46.4632 60.7633V70.5047C46.4632 70.7924 46.2231 71.0806 45.8874 71.0806C45.5516 71.0806 45.3115 70.7924 45.3115 70.5047V60.7633Z" fill="#CF7390"/>
<path fill-rule="evenodd" clip-rule="evenodd" d="M40.3682 60.7633C40.3682 60.4752 40.6563 60.1875 40.944 60.1875C41.2802 60.1875 41.5679 60.4752 41.5679 60.7633V70.5047C41.5679 70.7924 41.2802 71.0806 40.944 71.0806C40.6563 71.0806 40.3682 70.7924 40.3682 70.5047V60.7633Z" fill="#CF7390"/>
<path fill-rule="evenodd" clip-rule="evenodd" d="M35.4258 60.7633C35.4258 60.4752 35.7135 60.1875 36.0016 60.1875C36.3374 60.1875 36.6251 60.4752 36.6251 60.7633V70.5047C36.6251 70.7924 36.3374 71.0806 36.0016 71.0806C35.7135 71.0806 35.4258 70.7924 35.4258 70.5047V60.7633Z" fill="#CF7390"/>
<path fill-rule="evenodd" clip-rule="evenodd" d="M30.4834 60.7633C30.4834 60.4752 30.7711 60.1875 31.1073 60.1875C31.395 60.1875 31.6832 60.4752 31.6832 60.7633V70.5047C31.6832 70.7924 31.395 71.0806 31.1073 71.0806C30.7711 71.0806 30.4834 70.7924 30.4834 70.5047V60.7633Z" fill="#CF7390"/>
<path fill-rule="evenodd" clip-rule="evenodd" d="M25.54 60.7633C25.54 60.4752 25.8282 60.1875 26.164 60.1875C26.4521 60.1875 26.7398 60.4752 26.7398 60.7633V70.5047C26.7398 70.7924 26.4521 71.0806 26.164 71.0806C25.8282 71.0806 25.54 70.7924 25.54 70.5047V60.7633Z" fill="#CF7390"/>
<path fill-rule="evenodd" clip-rule="evenodd" d="M21.1256 55.1965C21.4614 55.1965 21.7495 55.4366 21.7495 55.7724C21.7495 56.1081 21.4614 56.3482 21.1256 56.3482H11.4323C11.096 56.3482 10.8564 56.1081 10.8564 55.7724C10.8564 55.4366 11.096 55.1965 11.4323 55.1965H21.1256Z" fill="#CF7390"/>
<path fill-rule="evenodd" clip-rule="evenodd" d="M21.1256 50.2542C21.4614 50.2542 21.7495 50.4937 21.7495 50.83C21.7495 51.1658 21.4614 51.4058 21.1256 51.4058H11.4323C11.096 51.4058 10.8564 51.1658 10.8564 50.83C10.8564 50.4937 11.096 50.2542 11.4323 50.2542H21.1256Z" fill="#CF7390"/>
<path fill-rule="evenodd" clip-rule="evenodd" d="M21.1256 45.3113C21.4614 45.3113 21.7495 45.5513 21.7495 45.8871C21.7495 46.2229 21.4614 46.4629 21.1256 46.4629H11.4323C11.096 46.4629 10.8564 46.2229 10.8564 45.8871C10.8564 45.5513 11.096 45.3113 11.4323 45.3113H21.1256Z" fill="#CF7390"/>
<path fill-rule="evenodd" clip-rule="evenodd" d="M21.1256 40.3684C21.4614 40.3684 21.7495 40.6565 21.7495 40.9442C21.7495 41.2805 21.4614 41.5682 21.1256 41.5682H11.4323C11.096 41.5682 10.8564 41.2805 10.8564 40.9442C10.8564 40.6565 11.096 40.3684 11.4323 40.3684H21.1256Z" fill="#CF7390"/>
<path fill-rule="evenodd" clip-rule="evenodd" d="M21.1256 35.426C21.4614 35.426 21.7495 35.7137 21.7495 36.0019C21.7495 36.3376 21.4614 36.6253 21.1256 36.6253H11.4323C11.096 36.6253 10.8564 36.3376 10.8564 36.0019C10.8564 35.7137 11.096 35.426 11.4323 35.426H21.1256Z" fill="#CF7390"/>
<path fill-rule="evenodd" clip-rule="evenodd" d="M21.1256 30.4832C21.4614 30.4832 21.7495 30.7708 21.7495 31.1071C21.7495 31.3948 21.4614 31.6829 21.1256 31.6829H11.4323C11.096 31.6829 10.8564 31.3948 10.8564 31.1071C10.8564 30.7708 11.096 30.4832 11.4323 30.4832H21.1256Z" fill="#CF7390"/>
<path fill-rule="evenodd" clip-rule="evenodd" d="M21.1256 25.5403C21.4614 25.5403 21.7495 25.8284 21.7495 26.1642C21.7495 26.4523 21.4614 26.74 21.1256 26.74H11.4323C11.096 26.74 10.8564 26.4523 10.8564 26.1642C10.8564 25.8284 11.096 25.5403 11.4323 25.5403H21.1256Z" fill="#CF7390"/>
<path fill-rule="evenodd" clip-rule="evenodd" d="M56.2047 56.7322H25.6849C25.4449 56.7322 25.2049 56.4926 25.2049 56.2045V25.6843C25.2049 25.4447 25.4449 25.2046 25.6849 25.2046H56.2047C56.4928 25.2046 56.7324 25.4447 56.7324 25.6843V56.2045C56.7324 56.4926 56.4928 56.7322 56.2047 56.7322ZM40.9446 21.1257H25.6849C23.1892 21.1257 21.126 23.189 21.126 25.6843V56.2045C21.126 58.7478 23.1892 60.7634 25.6849 60.7634H56.2047C58.7481 60.7634 60.7637 58.7478 60.7637 56.2045V25.6843C60.7637 23.189 58.7481 21.1257 56.2047 21.1257H40.9446Z" fill="#A72A51"/>
<mask id="mask0_228_1451" style="mask-type:luminance" maskUnits="userSpaceOnUse" x="0" y="40" width="82" height="2">
<path d="M0.0107422 40.1592H81.9252V41.8693H0.0107422V40.1592Z" fill="white"/>
</mask>
<g mask="url(#mask0_228_1451)">
<path d="M0.826609 41.7604C0.34653 41.7604 0.0107422 41.4246 0.0107422 40.9445C0.0107422 40.5125 0.34653 40.1768 0.826609 40.1768H81.1094C81.5413 40.1768 81.9252 40.5125 81.9252 40.9445C81.9252 41.4246 81.5413 41.7604 81.1094 41.7604H0.826609Z" fill="#506E92"/>
</g>
<mask id="mask1_228_1451" style="mask-type:luminance" maskUnits="userSpaceOnUse" x="0" y="0" width="82" height="82">
<path d="M0.0117188 0.0112305H81.9262V81.9257H0.0117188V0.0112305Z" fill="white"/>
</mask>
<g mask="url(#mask1_228_1451)">
<path d="M1.59536 16.9507C1.59536 17.3827 1.25957 17.7666 0.827586 17.7666C0.347507 17.7666 0.0117188 17.3827 0.0117188 16.9507V10.0884C0.0117188 7.30549 1.16337 4.76214 2.98705 2.98656C4.76263 1.16289 7.30598 0.0112305 10.0889 0.0112305H17.0474C17.4794 0.0112305 17.8152 0.347019 17.8152 0.827098C17.8152 1.25908 17.4794 1.59487 17.0474 1.59487H10.0889C7.73796 1.59487 5.62615 2.55458 4.09061 4.09012C2.55507 5.62566 1.59536 7.73747 1.59536 10.0884V16.9507ZM64.8905 1.59487C64.459 1.59487 64.0751 1.25908 64.0751 0.827098C64.0751 0.347019 64.459 0.0112305 64.8905 0.0112305H71.849C74.6324 0.0112305 77.1276 1.16289 78.9509 2.98656C80.7746 4.76214 81.9262 7.30549 81.9262 10.0884V16.9507C81.9262 17.3827 81.5423 17.7666 81.1103 17.7666C80.6788 17.7666 80.2949 17.3827 80.2949 16.9507V10.0884C80.2949 7.73747 79.3829 5.62566 77.8473 4.09012C76.3118 2.55458 74.2004 1.59487 71.849 1.59487H64.8905ZM80.2949 34.2264C80.2949 33.7464 80.6788 33.4106 81.1103 33.4106C81.5423 33.4106 81.9262 33.7464 81.9262 34.2264V47.711C81.9262 48.1425 81.5423 48.5264 81.1103 48.5264C80.6788 48.5264 80.2949 48.1425 80.2949 47.711V34.2264ZM80.2949 64.9862C80.2949 64.5543 80.6788 64.1704 81.1103 64.1704C81.5423 64.1704 81.9262 64.5543 81.9262 64.9862V71.8485C81.9262 74.6319 80.7746 77.1272 78.9509 78.9504C77.1276 80.7741 74.6324 81.9257 71.849 81.9257H64.8905C64.459 81.9257 64.0751 81.5418 64.0751 81.1098C64.0751 80.6783 64.459 80.294 64.8905 80.294H71.849C74.2004 80.294 76.3118 79.3824 77.8473 77.8468C79.3829 76.3113 80.2949 74.1999 80.2949 71.8485V64.9862ZM17.0474 80.294C17.4794 80.294 17.8152 80.6783 17.8152 81.1098C17.8152 81.5418 17.4794 81.9257 17.0474 81.9257H10.0889C7.30598 81.9257 4.76263 80.7741 2.98705 78.9504C1.16337 77.1272 0.0117188 74.6319 0.0117188 71.8485V64.9862C0.0117188 64.5543 0.347507 64.1704 0.827586 64.1704C1.25957 64.1704 1.59536 64.5543 1.59536 64.9862V71.8485C1.59536 74.1999 2.55507 76.3113 4.09061 77.8468C5.62615 79.3824 7.73796 80.294 10.0889 80.294H17.0474ZM1.59536 47.711C1.59536 48.1425 1.25957 48.5264 0.827586 48.5264C0.347507 48.5264 0.0117188 48.1425 0.0117188 47.711V34.2264C0.0117188 33.7464 0.347507 33.4106 0.827586 33.4106C1.25957 33.4106 1.59536 33.7464 1.59536 34.2264V47.711Z" fill="#A72A51"/>
</g>
</g>
<defs>
<clipPath id="clip0_228_1451">
<rect width="82" height="82" fill="white"/>
</clipPath>
</defs>
</svg>
