<svg width="111" height="97" viewBox="0 0 111 97" fill="none" xmlns="http://www.w3.org/2000/svg">
<g clip-path="url(#clip0_229_1540)">
<mask id="mask0_229_1540" style="mask-type:luminance" maskUnits="userSpaceOnUse" x="0" y="0" width="102" height="61">
<path d="M0 0.00756836H101.785V60.8451H0V0.00756836Z" fill="white"/>
</mask>
<g mask="url(#mask0_229_1540)">
<path d="M81.0016 19.0064C79.7463 18.8811 78.4915 18.8811 77.2367 19.0064C77.0725 18.6013 76.8997 18.1999 76.7179 17.8023C76.5366 17.4047 76.3472 17.0114 76.1489 16.6219C75.951 16.2323 75.7447 15.8476 75.5303 15.4673C75.3159 15.0869 75.0935 14.7113 74.8626 14.3401C74.6323 13.9694 74.3944 13.6041 74.148 13.2431C73.9022 12.8826 73.6489 12.528 73.3876 12.1783C73.1263 11.8286 72.8581 11.4853 72.5824 11.1474C72.3067 10.8096 72.024 10.4776 71.7339 10.1521C71.4444 9.82658 71.1479 9.50699 70.8444 9.1944C70.541 8.8818 70.2312 8.57566 69.9144 8.27598C69.5982 7.97684 69.2756 7.68469 68.9465 7.399C68.618 7.11384 68.2832 6.83568 67.9424 6.56451C67.6016 6.29389 67.2555 6.03025 66.9036 5.77469C66.5516 5.51859 66.1949 5.27056 65.8323 5.03006C65.4696 4.7901 65.1022 4.55767 64.73 4.33277C64.3578 4.10842 63.9807 3.89213 63.5995 3.68391C63.2176 3.4757 62.8321 3.27609 62.4423 3.08455C62.0519 2.89301 61.6584 2.71008 61.2605 2.53576C60.8627 2.36144 60.4612 2.19573 60.0564 2.03916C59.6517 1.88206 59.2437 1.7341 58.8326 1.59475C58.4214 1.4554 58.0076 1.32466 57.5906 1.2036C57.1741 1.08201 56.7549 0.970099 56.3337 0.866797C55.9118 0.763496 55.4884 0.669341 55.0634 0.584333C54.6379 0.499862 54.2107 0.424 53.782 0.357823C53.3532 0.291107 52.9234 0.234076 52.4925 0.18673C52.0611 0.138845 51.6292 0.100645 51.1967 0.0715919C50.7637 0.0425384 50.3307 0.0226312 49.8971 0.0124088C49.4636 0.00218622 49.03 0.00164833 48.5965 0.00971865C48.1629 0.0183271 47.7294 0.03662 47.2969 0.0635214C46.8639 0.0909608 46.4319 0.127547 46.0005 0.173817C45.5691 0.21955 45.1393 0.274966 44.71 0.33953C44.2813 0.404631 43.8541 0.478341 43.428 0.561735C43.0025 0.644592 42.5785 0.737132 42.1567 0.83882C41.7349 0.939969 41.3152 1.0508 40.8982 1.17025C40.4812 1.29023 40.0663 1.41881 39.6546 1.55655C39.2429 1.69428 38.8344 1.84063 38.4292 1.99612C38.0239 2.15161 37.6218 2.31571 37.2234 2.48841C36.8251 2.66112 36.4305 2.84244 36.0396 3.03236C35.6487 3.22228 35.2621 3.42028 34.8797 3.62688C34.4974 3.83348 34.1198 4.0487 33.7465 4.27144C33.3732 4.49472 33.0053 4.72553 32.6416 4.96442C32.2784 5.2033 31.9201 5.45026 31.5676 5.70475C31.2146 5.95923 30.8674 6.22125 30.5256 6.4908C30.1838 6.75982 29.8478 7.0369 29.5182 7.32098C29.1881 7.60506 28.8645 7.89613 28.5466 8.1942C28.2293 8.49227 27.9179 8.79733 27.6134 9.10885C27.3089 9.42037 27.0108 9.73834 26.7202 10.0628C26.429 10.3872 26.1448 10.7181 25.868 11.0549C25.5907 11.3917 25.3209 11.7339 25.0585 12.0825C24.7961 12.4312 24.5412 12.7852 24.2938 13.1446C24.0464 13.504 23.8069 13.8688 23.575 14.2384C23.343 14.6086 23.119 14.983 22.9036 15.3629C22.6876 15.7427 22.4796 16.1263 22.2802 16.5153C22.0802 16.9038 21.8893 17.2966 21.7064 17.6936C21.5235 18.0901 21.3491 18.491 21.1832 18.8956C21.0174 19.2996 20.8601 19.7075 20.7118 20.1191C20.5631 20.5301 20.4233 20.9444 20.2927 21.3619C20.1615 21.7789 20.0399 22.1991 19.9269 22.6214C19.8138 23.0443 19.7098 23.4688 19.6149 23.896C19.52 24.3232 19.4341 24.752 19.3573 25.183C19.2805 25.6139 19.2134 26.046 19.1547 26.4796C19.0966 26.9133 19.0475 27.3485 19.0075 27.7843C18.9675 28.2201 18.9371 28.6565 18.9158 29.0939C18.8945 29.5308 18.8827 29.9682 18.8801 30.4061C18.8801 30.2351 18.8801 30.5772 18.8801 30.4061C17.6253 30.2464 16.37 30.2464 15.1152 30.4061C14.8688 30.4061 14.6224 30.4121 14.3761 30.4244C14.1302 30.4368 13.8844 30.4551 13.6391 30.4793C13.3938 30.5035 13.149 30.5342 12.9053 30.5708C12.6616 30.6068 12.419 30.6499 12.1769 30.6983C11.9353 30.7467 11.6948 30.8011 11.4559 30.8619C11.217 30.9221 10.9791 30.9883 10.7434 31.0604C10.5077 31.133 10.2736 31.211 10.0417 31.2944C9.80969 31.3784 9.57985 31.4677 9.35214 31.5629C9.12444 31.6581 8.89886 31.7593 8.67649 31.8653C8.45358 31.9718 8.23334 32.0837 8.01577 32.201C7.79873 32.3183 7.58435 32.4404 7.37265 32.5685C7.16147 32.6965 6.9535 32.8294 6.74819 32.9677C6.54341 33.106 6.34184 33.2491 6.144 33.397C5.94615 33.5455 5.75204 33.6983 5.56113 33.856C5.37076 34.0142 5.18411 34.1766 5.00173 34.3434C4.81882 34.5108 4.64071 34.6819 4.46633 34.8578C4.29195 35.0337 4.12237 35.214 3.95653 35.398C3.79121 35.5825 3.63017 35.7708 3.47392 35.9629C3.31767 36.1555 3.16569 36.3514 3.01904 36.5515C2.87239 36.7511 2.73054 36.9545 2.59349 37.1611C2.45644 37.3682 2.32472 37.5781 2.19781 37.7917C2.07142 38.0047 1.94984 38.221 1.83358 38.4405C1.71733 38.66 1.60641 38.8822 1.50136 39.1071C1.39577 39.332 1.29605 39.5591 1.20166 39.7888C1.10727 40.0186 1.01875 40.251 0.935558 40.485C0.852901 40.7191 0.775577 40.9553 0.704119 41.1936C0.632128 41.4314 0.566536 41.6708 0.50681 41.9124C0.447083 42.1535 0.39269 42.3961 0.344696 42.6404C0.296702 42.8841 0.254573 43.1294 0.218311 43.3753C0.182049 43.6212 0.152186 43.8681 0.127655 44.1156C0.103658 44.3631 0.0855271 44.6112 0.0737952 44.8597C0.06153 45.1083 0.0556641 45.3569 0.0556641 45.6054C0.0556641 45.8545 0.06153 46.1031 0.0737952 46.3512C0.0855271 46.5997 0.103658 46.8477 0.127655 47.0952C0.152186 47.3427 0.182049 47.5897 0.218311 47.8356C0.254573 48.082 0.296702 48.3268 0.344696 48.5711C0.39269 48.8148 0.447083 49.0574 0.50681 49.299C0.566536 49.54 0.632128 49.7795 0.704119 50.0178C0.775577 50.2556 0.852901 50.4918 0.935558 50.7259C1.01875 50.9604 1.10727 51.1923 1.20166 51.4221C1.29605 51.6518 1.39577 51.8794 1.50136 52.1043C1.60641 52.3292 1.71733 52.5514 1.83358 52.7704C1.94984 52.9899 2.07142 53.2062 2.19781 53.4198C2.32472 53.6328 2.45644 53.8432 2.59349 54.0498C2.73054 54.2569 2.87239 54.4603 3.01904 54.6599C3.16569 54.8595 3.31767 55.0559 3.47392 55.248C3.63017 55.4401 3.79121 55.6284 3.95653 55.8129C4.12237 55.9975 4.29195 56.1772 4.46633 56.3531C4.64071 56.529 4.81882 56.7007 5.00173 56.8674C5.18411 57.0348 5.37076 57.1973 5.56113 57.3549C5.75204 57.5125 5.94615 57.6659 6.144 57.8138C6.34184 57.9623 6.54341 58.1054 6.74819 58.2437C6.9535 58.3815 7.16147 58.5149 7.37265 58.6424C7.58435 58.7705 7.79873 58.8931 8.01577 59.0104C8.23334 59.1277 8.45358 59.2396 8.67649 59.3456C8.89886 59.4521 9.12444 59.5527 9.35214 59.648C9.57985 59.7432 9.80969 59.8325 10.0417 59.9165C10.2736 60.0004 10.5077 60.0784 10.7434 60.1505C10.9791 60.2226 11.217 60.2893 11.4559 60.3496C11.6948 60.4098 11.9353 60.4647 12.1769 60.5131C12.419 60.5615 12.6616 60.604 12.9053 60.6406C13.149 60.6772 13.3938 60.7074 13.6391 60.7321C13.8844 60.7563 14.1302 60.7746 14.3761 60.787C14.6224 60.7988 14.8688 60.8053 15.1152 60.8053H81.0016C81.3402 60.8053 81.6789 60.7967 82.0175 60.78C82.3561 60.7633 82.6937 60.738 83.0312 60.7047C83.3683 60.6708 83.7048 60.6288 84.0396 60.5788C84.3751 60.5287 84.7089 60.4701 85.0411 60.4034C85.3734 60.3367 85.704 60.2619 86.033 60.1785C86.3615 60.0956 86.6884 60.0041 87.0126 59.9052C87.3369 59.8056 87.6584 59.6985 87.9773 59.5834C88.2967 59.4683 88.6124 59.3451 88.926 59.2143C89.239 59.083 89.5483 58.9448 89.8549 58.7984C90.161 58.6521 90.4639 58.4987 90.7626 58.3373C91.0617 58.1759 91.3566 58.0075 91.6473 57.8316C91.9379 57.6557 92.2237 57.4727 92.5058 57.2828C92.7874 57.0929 93.0647 56.896 93.3367 56.692C93.6086 56.4887 93.8758 56.2783 94.1382 56.0609C94.4 55.8441 94.6565 55.6208 94.9077 55.3911C95.1588 55.1614 95.4041 54.9257 95.6436 54.6836C95.883 54.442 96.1171 54.1945 96.3443 53.9411C96.572 53.6872 96.7933 53.4284 97.0082 53.1642C97.2231 52.8995 97.4316 52.6299 97.6337 52.3555C97.8353 52.0806 98.0305 51.8014 98.2187 51.5168C98.407 51.2321 98.5883 50.9438 98.7627 50.65C98.937 50.3568 99.104 50.0592 99.2634 49.7574C99.4234 49.4561 99.5754 49.1505 99.7204 48.8411C99.8655 48.5323 100.003 48.2197 100.132 47.9034C100.262 47.5875 100.384 47.2685 100.498 46.9467C100.613 46.6245 100.719 46.3 100.817 45.9724C100.915 45.6453 101.006 45.3154 101.088 44.984C101.17 44.6521 101.245 44.3185 101.311 43.9827C101.377 43.6476 101.435 43.3108 101.484 42.9723C101.534 42.6339 101.576 42.2944 101.609 41.9544C101.642 41.6138 101.667 41.2727 101.684 40.9311C101.7 40.5894 101.708 40.2478 101.708 39.9056C101.708 39.5639 101.7 39.2217 101.684 38.8801C101.667 38.5384 101.642 38.1979 101.609 37.8573C101.576 37.5167 101.534 37.1778 101.484 36.8394C101.435 36.5009 101.377 36.1641 101.311 35.8284C101.245 35.4932 101.17 35.1596 101.088 34.8277C101.006 34.4957 100.915 34.1664 100.817 33.8388C100.719 33.5116 100.613 33.1872 100.498 32.8649C100.384 32.5432 100.262 32.2241 100.132 31.9078C100.003 31.592 99.8655 31.2794 99.7204 30.97C99.5754 30.6612 99.4234 30.3556 99.2634 30.0537C99.104 29.7524 98.937 29.4549 98.7627 29.1612C98.5883 28.8679 98.407 28.579 98.2187 28.2949C98.0305 28.0103 97.8353 27.7305 97.6337 27.4561C97.4316 27.1812 97.2231 26.9117 97.0082 26.6475C96.7933 26.3828 96.572 26.124 96.3443 25.8706C96.1171 25.6172 95.883 25.3697 95.6436 25.1276C95.4041 24.886 95.1588 24.6503 94.9077 24.4206C94.6565 24.1908 94.4 23.9676 94.1382 23.7502C93.8758 23.5334 93.6086 23.323 93.3367 23.1191C93.0647 22.9157 92.7874 22.7188 92.5058 22.5289C92.2237 22.3384 91.9379 22.1555 91.6473 21.9801C91.3566 21.8042 91.0617 21.6352 90.7626 21.4743C90.4639 21.3129 90.161 21.1591 89.8549 21.0133C89.5483 20.8669 89.239 20.7281 88.926 20.5974C88.6124 20.4666 88.2967 20.3434 87.9773 20.2283C87.6584 20.1131 87.3369 20.0055 87.0126 19.9065C86.6884 19.807 86.3615 19.7161 86.033 19.6327C85.704 19.5498 85.3734 19.475 85.0411 19.4083C84.7089 19.3411 84.3751 19.283 84.0396 19.2329C83.7048 19.1823 83.3683 19.1404 83.0312 19.107C82.6937 19.0737 82.3561 19.0484 82.0175 19.0317C81.6789 19.015 81.3402 19.0064 81.0016 19.0064Z" fill="#E9BECC"/>
</g>
<mask id="mask1_229_1540" style="mask-type:luminance" maskUnits="userSpaceOnUse" x="9" y="19" width="102" height="62">
<path d="M9.36328 19.9373H110.988V80.8162H9.36328V19.9373Z" fill="white"/>
</mask>
<g mask="url(#mask1_229_1540)">
<path d="M90.4137 38.9561C89.1589 38.8307 87.9036 38.8307 86.6488 38.9561C86.4846 38.551 86.3118 38.1496 86.1305 37.752C85.9492 37.3544 85.7594 36.9606 85.561 36.5716C85.3631 36.182 85.1568 35.7973 84.9424 35.4164C84.728 35.036 84.5056 34.6605 84.2753 34.2898C84.0449 33.9191 83.8065 33.5532 83.5607 33.1927C83.3143 32.8323 83.061 32.4772 82.7997 32.128C82.5389 31.7783 82.2702 31.4345 81.9945 31.0966C81.7188 30.7587 81.4361 30.4273 81.1466 30.1012C80.8565 29.7757 80.56 29.4567 80.2566 29.1441C79.9531 28.8309 79.6433 28.5248 79.3271 28.2257C79.0103 27.9265 78.6877 27.6338 78.3592 27.3487C78.0302 27.063 77.6953 26.7848 77.3545 26.5142C77.0143 26.2436 76.6677 25.9799 76.3157 25.7238C75.9643 25.4683 75.607 25.2202 75.2444 24.9797C74.8823 24.7392 74.5148 24.5068 74.1426 24.2825C73.7699 24.0581 73.3934 23.8418 73.0116 23.6336C72.6303 23.4254 72.2442 23.2258 71.8544 23.0342C71.4646 22.8427 71.0705 22.6598 70.6726 22.4854C70.2748 22.3111 69.8733 22.1454 69.4685 21.9883C69.0638 21.8312 68.6558 21.6832 68.2447 21.5439C67.8335 21.4045 67.4197 21.2743 67.0032 21.1527C66.5862 21.0317 66.1671 20.9192 65.7458 20.8159C65.3245 20.7132 64.9011 20.619 64.4755 20.534C64.05 20.449 63.6228 20.3737 63.1941 20.307C62.7653 20.2408 62.3355 20.1838 61.9046 20.1359C61.4732 20.0885 61.0413 20.0498 60.6088 20.0207C60.1763 19.9917 59.7428 19.9723 59.3092 19.9621C58.8757 19.9519 58.4421 19.9508 58.0086 19.9594C57.575 19.968 57.142 19.9858 56.709 20.0132C56.276 20.0406 55.844 20.0772 55.4126 20.123C54.9812 20.1692 54.5514 20.2246 54.1226 20.2892C53.6934 20.3538 53.2662 20.428 52.8401 20.5109C52.4146 20.5943 51.9906 20.6863 51.5688 20.788C51.147 20.8897 50.7273 20.9999 50.3103 21.1199C49.8933 21.2394 49.4789 21.3685 49.0673 21.5062C48.6556 21.6434 48.2471 21.7903 47.8413 21.9458C47.436 22.1008 47.0339 22.2649 46.6355 22.4376C46.2372 22.6108 45.8426 22.7921 45.4517 22.982C45.0608 23.1714 44.6742 23.37 44.2924 23.5766C43.91 23.7832 43.5319 23.9978 43.1586 24.2211C42.7859 24.4439 42.4174 24.6752 42.0542 24.9141C41.6905 25.153 41.3327 25.3994 40.9797 25.6539C40.6267 25.9084 40.2795 26.1704 39.9377 26.4399C39.5959 26.7095 39.2604 26.9866 38.9303 27.2707C38.6003 27.5547 38.2766 27.8458 37.9593 28.1439C37.6414 28.442 37.3305 28.7465 37.0255 29.058C36.721 29.3695 36.4235 29.6875 36.1323 30.0125C35.8411 30.3369 35.5569 30.6672 35.2801 31.004C35.0028 31.3408 34.7335 31.6836 34.4712 32.0322C34.2083 32.3803 33.9533 32.7343 33.7059 33.0937C33.459 33.4537 33.219 33.8185 32.9871 34.1881C32.7556 34.5583 32.5317 34.9327 32.3157 35.3126C32.0997 35.6919 31.8917 36.076 31.6923 36.4645C31.4928 36.8535 31.3014 37.2462 31.1185 37.6428C30.9356 38.0398 30.7612 38.4407 30.5954 38.8447C30.4295 39.2493 30.2722 39.6571 30.1239 40.0682C29.9752 40.4798 29.836 40.8941 29.7048 41.311C29.5741 41.7286 29.452 42.1482 29.339 42.5711C29.2259 42.9935 29.1219 43.4185 29.027 43.8457C28.9321 44.2729 28.8462 44.7017 28.7694 45.1327C28.6926 45.5631 28.6255 45.9957 28.5668 46.4293C28.5087 46.863 28.4596 47.2977 28.4196 47.7335C28.3802 48.1693 28.3492 48.6062 28.3284 49.043C28.3071 49.4805 28.2948 49.9179 28.2922 50.3553C28.2922 50.1847 28.2922 50.5264 28.2922 50.3553C27.0374 50.196 25.7826 50.196 24.5273 50.3553C24.2809 50.3553 24.0345 50.3618 23.7882 50.3741C23.5423 50.386 23.2965 50.4043 23.0512 50.429C22.8059 50.4532 22.5617 50.4833 22.3174 50.5199C22.0737 50.5565 21.8311 50.599 21.5895 50.6474C21.3474 50.6959 21.1074 50.7507 20.868 50.811C20.6291 50.8713 20.3918 50.938 20.1555 51.0101C19.9198 51.0822 19.6857 51.1602 19.4538 51.2441C19.2218 51.3281 18.992 51.4174 18.7642 51.5126C18.5365 51.6078 18.3115 51.7084 18.0886 51.815C17.8657 51.921 17.6455 52.0329 17.4284 52.1502C17.2108 52.2674 16.9965 52.3901 16.7853 52.5182C16.5736 52.6457 16.3656 52.7791 16.1608 52.9174C15.9555 53.0551 15.7545 53.1988 15.5561 53.3467C15.3583 53.4947 15.1642 53.648 14.9738 53.8057C14.7829 53.9633 14.5968 54.1258 14.4138 54.2931C14.2315 54.4599 14.0528 54.6315 13.8784 54.8075C13.7041 54.9834 13.5345 55.1631 13.3686 55.3477C13.2033 55.5322 13.0423 55.7205 12.886 55.9126C12.7298 56.1047 12.5783 56.301 12.4311 56.5007C12.2845 56.7003 12.1427 56.9036 12.0056 57.1108C11.8685 57.3174 11.7368 57.5277 11.6104 57.7408C11.4835 57.9544 11.3619 58.1707 11.2457 58.3902C11.1294 58.6092 11.0191 58.8314 10.9135 59.0563C10.8084 59.2812 10.7082 59.5088 10.6138 59.7385C10.5199 59.9682 10.4309 60.2001 10.3482 60.4347C10.265 60.6688 10.1877 60.905 10.1162 61.1428C10.0448 61.3811 9.97865 61.6205 9.91892 61.8621C9.85919 62.1031 9.80533 62.3458 9.75681 62.5895C9.70881 62.8338 9.66668 63.0786 9.63042 63.325C9.59469 63.5709 9.5643 63.8178 9.5403 64.0653C9.51577 64.3128 9.49764 64.5609 9.4859 64.8094C9.47364 65.0575 9.46777 65.306 9.46777 65.5551C9.46777 65.8037 9.47364 66.0523 9.4859 66.3008C9.49764 66.5494 9.51577 66.7974 9.5403 67.0449C9.5643 67.2924 9.59469 67.5394 9.63042 67.7853C9.66668 68.0311 9.70881 68.2765 9.75681 68.5202C9.80533 68.7645 9.85919 69.0071 9.91892 69.2482C9.97865 69.4897 10.0448 69.7291 10.1162 69.967C10.1877 70.2053 10.265 70.4415 10.3482 70.6755C10.4309 70.9096 10.5199 71.142 10.6138 71.3717C10.7082 71.6015 10.8084 71.8285 10.9135 72.0534C11.0191 72.2783 11.1294 72.5005 11.2457 72.72C11.3619 72.9396 11.4835 73.1558 11.6104 73.3689C11.7368 73.5825 11.8685 73.7923 12.0056 73.9995C12.1427 74.2061 12.2845 74.4095 12.4311 74.6096C12.5783 74.8092 12.7298 75.0051 12.886 75.1977C13.0423 75.3897 13.2033 75.5781 13.3686 75.7626C13.5345 75.9466 13.7041 76.1268 13.8784 76.3028C14.0528 76.4787 14.2315 76.6498 14.4138 76.8171C14.5968 76.9839 14.7829 77.1464 14.9738 77.3046C15.1642 77.4622 15.3583 77.615 15.5561 77.7635C15.7545 77.9115 15.9555 78.0546 16.1608 78.1929C16.3656 78.3311 16.5736 78.464 16.7853 78.5921C16.9965 78.7201 17.2108 78.8423 17.4284 78.9596C17.6455 79.0769 17.8657 79.1888 18.0886 79.2953C18.3115 79.4018 18.5365 79.5024 18.7642 79.5977C18.992 79.6929 19.2218 79.7822 19.4538 79.8661C19.6857 79.9501 19.9198 80.0281 20.1555 80.1002C20.3918 80.1723 20.6291 80.2385 20.868 80.2993C21.1074 80.3595 21.3474 80.4138 21.5895 80.4623C21.8311 80.5112 22.0737 80.5537 22.3174 80.5898C22.5617 80.6264 22.8059 80.657 23.0512 80.6813C23.2965 80.7055 23.5423 80.7238 23.7882 80.7361C24.0345 80.7485 24.2809 80.7544 24.5273 80.7544H90.4137C90.7523 80.7544 91.0915 80.7464 91.4296 80.7291C91.7682 80.7125 92.1063 80.6872 92.4434 80.6538C92.7804 80.6205 93.1169 80.5785 93.4523 80.5285C93.7872 80.4779 94.121 80.4198 94.4532 80.3531C94.786 80.2863 95.1166 80.2116 95.4451 80.1282C95.7736 80.0453 96.1005 79.9538 96.4247 79.8548C96.749 79.7553 97.0705 79.6482 97.39 79.5326C97.7088 79.4174 98.0251 79.2948 98.3381 79.1635C98.6511 79.0327 98.961 78.8939 99.2671 78.7481C99.5737 78.6018 99.8761 78.4479 100.175 78.2865C100.474 78.1256 100.769 77.9572 101.059 77.7813C101.35 77.6053 101.636 77.4224 101.918 77.2325C102.2 77.0426 102.477 76.8456 102.749 76.6417C103.021 76.4378 103.288 76.2275 103.55 76.0106C103.812 75.7938 104.069 75.5705 104.32 75.3408C104.571 75.111 104.816 74.8749 105.056 74.6333C105.296 74.3912 105.529 74.1437 105.757 73.8903C105.984 73.6368 106.205 73.3781 106.42 73.1133C106.636 72.8492 106.844 72.5796 107.046 72.3047C107.248 72.0303 107.443 71.7505 107.631 71.4664C107.819 71.1818 108 70.8929 108.175 70.5997C108.349 70.3065 108.516 70.0089 108.676 69.7071C108.836 69.4053 108.988 69.1002 109.133 68.7908C109.278 68.4815 109.415 68.1689 109.545 67.853C109.674 67.5372 109.796 67.2182 109.911 66.8959C110.025 66.5742 110.131 66.2492 110.229 65.9221C110.328 65.5944 110.418 65.2651 110.5 64.9332C110.582 64.6017 110.657 64.2682 110.723 63.9324C110.789 63.5972 110.847 63.2599 110.897 62.922C110.947 62.5836 110.988 62.2441 111.021 61.9035C111.054 61.5635 111.079 61.2224 111.096 60.8807C111.113 60.5391 111.121 60.1974 111.121 59.8553C111.121 59.5131 111.113 59.1714 111.096 58.8298C111.079 58.4881 111.054 58.147 111.021 57.807C110.988 57.4664 110.947 57.1269 110.897 56.7885C110.847 56.4501 110.789 56.1133 110.723 55.7781C110.657 55.4424 110.582 55.1088 110.5 54.7774C110.418 54.4454 110.328 54.1156 110.229 53.7885C110.131 53.4613 110.025 53.1364 109.911 52.8146C109.796 52.4923 109.674 52.1733 109.545 51.8575C109.415 51.5416 109.278 51.2291 109.133 50.9197C108.988 50.6103 108.836 50.3053 108.676 50.0034C108.516 49.7016 108.349 49.4041 108.175 49.1108C108 48.8176 107.819 48.5287 107.631 48.2441C107.443 47.96 107.248 47.6802 107.046 47.4053C106.844 47.1309 106.636 46.8613 106.42 46.5966C106.205 46.3325 105.984 46.0737 105.757 45.8203C105.529 45.5668 105.296 45.3188 105.056 45.0772C104.816 44.8351 104.571 44.5995 104.32 44.3697C104.069 44.14 103.812 43.9167 103.55 43.6999C103.288 43.4831 103.021 43.2727 102.749 43.0688C102.477 42.8649 102.2 42.668 101.918 42.478C101.636 42.2881 101.35 42.1052 101.059 41.9292C100.769 41.7533 100.474 41.5849 100.175 41.4235C99.8761 41.2626 99.5737 41.1087 99.2671 40.9624C98.961 40.8161 98.6511 40.6778 98.3381 40.547C98.0251 40.4158 97.7088 40.2931 97.39 40.1774C97.0705 40.0623 96.749 39.9552 96.4247 39.8557C96.1005 39.7567 95.7736 39.6652 95.4451 39.5824C95.1166 39.499 94.786 39.4242 94.4532 39.3575C94.121 39.2908 93.7872 39.2321 93.4523 39.1821C93.1169 39.132 92.7804 39.0901 92.4434 39.0567C92.1063 39.0228 91.7682 38.9981 91.4296 38.9808C91.0915 38.9642 90.7523 38.9561 90.4137 38.9561Z" fill="#C6587A"/>
</g>
<path d="M34.8802 68.4048H72.5295C72.7455 68.4048 72.9609 68.4102 73.1764 68.4209C73.3918 68.4311 73.6067 68.4473 73.8216 68.4688C74.036 68.4898 74.2498 68.5167 74.4632 68.5484C74.6765 68.5807 74.8892 68.6178 75.1004 68.6603C75.3121 68.7029 75.5222 68.7502 75.7318 68.8035C75.9408 68.8562 76.1488 68.9143 76.3552 68.9772C76.5616 69.0407 76.7658 69.1085 76.969 69.1822C77.1722 69.2554 77.3732 69.334 77.5726 69.4168C77.7716 69.5002 77.9689 69.5884 78.164 69.6815C78.3587 69.7746 78.5512 69.8725 78.7416 69.9753C78.9314 70.0775 79.1191 70.1851 79.3042 70.297C79.4892 70.4089 79.6716 70.5252 79.8508 70.6462C80.0299 70.7667 80.2065 70.8921 80.3792 71.0218C80.5526 71.1514 80.7227 71.2854 80.8896 71.4237C81.056 71.5614 81.2191 71.704 81.3791 71.8498C81.5391 71.9961 81.6948 72.1462 81.8473 72.3001C81.9998 72.454 82.1486 72.6116 82.2937 72.773C82.4382 72.9339 82.579 73.0991 82.716 73.2669C82.8525 73.4353 82.9853 73.607 83.1138 73.7818C83.2424 73.9567 83.3666 74.1342 83.4861 74.3156C83.6061 74.4963 83.7212 74.6803 83.8322 74.867C83.9431 75.0537 84.0492 75.2431 84.1511 75.4347C84.2529 75.6267 84.3494 75.821 84.4417 76.0179C84.5339 76.2148 84.6214 76.4133 84.7041 76.6146C84.7867 76.8158 84.864 77.0186 84.9366 77.2236C85.0096 77.4286 85.0768 77.6352 85.1397 77.8434C85.2021 78.0516 85.2597 78.2615 85.312 78.4729C85.3648 78.6838 85.4117 78.8963 85.4538 79.1094C85.496 79.323 85.5328 79.5377 85.5642 79.7529C85.5962 79.9681 85.6223 80.1838 85.6437 80.4007C85.665 80.6175 85.6805 80.8343 85.6911 81.0517C85.7018 81.269 85.7071 81.4864 85.7071 81.7043C85.7071 81.9217 85.7018 82.1396 85.6911 82.3569C85.6805 82.5743 85.665 82.7911 85.6437 83.0079C85.6223 83.2242 85.5962 83.4405 85.5642 83.6557C85.5328 83.8709 85.496 84.0851 85.4538 84.2987C85.4117 84.5123 85.3648 84.7248 85.312 84.9357C85.2597 85.1466 85.2021 85.3564 85.1397 85.5647C85.0768 85.7734 85.0096 85.98 84.9366 86.1845C84.864 86.3895 84.7867 86.5928 84.7041 86.7935C84.6214 86.9947 84.5339 87.1938 84.4417 87.3907C84.3494 87.5871 84.2529 87.7819 84.1511 87.9734C84.0492 88.1655 83.9431 88.3549 83.8322 88.5416C83.7212 88.7283 83.6061 88.9123 83.4861 89.093C83.3666 89.2738 83.2424 89.4519 83.1138 89.6268C82.9853 89.8016 82.8525 89.9733 82.716 90.1411C82.579 90.3095 82.4382 90.4742 82.2937 90.6356C82.1486 90.797 81.9998 90.9546 81.8473 91.1085C81.6948 91.2624 81.5391 91.4125 81.3791 91.5583C81.2191 91.7046 81.056 91.8467 80.8896 91.9849C80.7227 92.1232 80.5526 92.2566 80.3792 92.3863C80.2065 92.516 80.0299 92.6413 79.8508 92.7624C79.6716 92.8834 79.4892 92.9997 79.3042 93.1116C79.1191 93.2235 78.9314 93.3305 78.7416 93.4333C78.5512 93.5361 78.3587 93.634 78.164 93.7271C77.9689 93.8202 77.7716 93.9079 77.5726 93.9912C77.3732 94.0746 77.1722 94.1532 76.969 94.2264C76.7658 94.2995 76.5616 94.3679 76.3552 94.4308C76.1488 94.4943 75.9408 94.5524 75.7318 94.6051C75.5222 94.6579 75.3121 94.7057 75.1004 94.7483C74.8892 94.7908 74.6765 94.8279 74.4632 94.8596C74.2498 94.8919 74.036 94.9183 73.8216 94.9398C73.6067 94.9613 73.3918 94.9769 73.1764 94.9877C72.9609 94.9984 72.7455 95.0038 72.5295 95.0038H34.8802C34.6648 95.0038 34.4493 94.9984 34.2339 94.9877C34.0184 94.9769 33.8035 94.9613 33.5886 94.9398C33.3742 94.9183 33.1604 94.8919 32.9471 94.8596C32.7338 94.8279 32.521 94.7908 32.3098 94.7483C32.0981 94.7057 31.888 94.6579 31.6785 94.6051C31.4694 94.5524 31.2614 94.4943 31.0551 94.4314C30.8487 94.3679 30.6444 94.2995 30.4413 94.2264C30.2381 94.1532 30.0371 94.0746 29.8376 93.9912C29.6387 93.9079 29.4414 93.8202 29.2462 93.7271C29.0516 93.634 28.8591 93.5361 28.6687 93.4333C28.4783 93.3305 28.2911 93.2235 28.1061 93.1116C27.921 92.9997 27.7387 92.8834 27.5595 92.7624C27.3803 92.6413 27.2038 92.516 27.031 92.3863C26.8577 92.2566 26.6876 92.1232 26.5207 91.9849C26.3543 91.8467 26.1911 91.7046 26.0311 91.5583C25.8712 91.4125 25.7154 91.2624 25.5629 91.1085C25.4104 90.9546 25.2616 90.797 25.1166 90.6356C24.9721 90.4742 24.8313 90.3095 24.6942 90.1411C24.5577 89.9733 24.4249 89.8016 24.2964 89.6268C24.1679 89.4519 24.0436 89.2738 23.9242 89.093C23.8042 88.9123 23.689 88.7283 23.5781 88.5416C23.4672 88.3549 23.3605 88.1655 23.2592 87.9734C23.1573 87.7819 23.0603 87.5871 22.9686 87.3907C22.8763 87.1938 22.7889 86.9947 22.7062 86.7935C22.6235 86.5928 22.5462 86.3895 22.4737 86.1845C22.4006 85.98 22.3334 85.7734 22.2705 85.5647C22.2081 85.3564 22.1505 85.1466 22.0983 84.9357C22.0455 84.7248 21.9986 84.5123 21.9564 84.2987C21.9143 84.0851 21.8775 83.8709 21.846 83.6557C21.814 83.4405 21.7879 83.2242 21.7666 83.0079C21.7453 82.7911 21.7298 82.5743 21.7191 82.3569C21.7085 82.1396 21.7031 81.9217 21.7031 81.7043C21.7031 81.4864 21.7085 81.269 21.7191 81.0517C21.7298 80.8343 21.7453 80.6175 21.7666 80.4007C21.7879 80.1838 21.814 79.9681 21.846 79.7529C21.8775 79.5377 21.9143 79.323 21.9564 79.1094C21.9986 78.8963 22.0455 78.6838 22.0983 78.4729C22.1505 78.2615 22.2081 78.0516 22.2705 77.8434C22.3334 77.6352 22.4006 77.4286 22.4737 77.2236C22.5462 77.0186 22.6235 76.8158 22.7062 76.6146C22.7889 76.4133 22.8763 76.2148 22.9686 76.0179C23.0603 75.821 23.1573 75.6267 23.2592 75.4347C23.3605 75.2431 23.4672 75.0537 23.5781 74.867C23.689 74.6803 23.8042 74.4963 23.9242 74.3156C24.0436 74.1342 24.1679 73.9567 24.2964 73.7818C24.4249 73.607 24.5577 73.4353 24.6942 73.2669C24.8313 73.0985 24.9721 72.9339 25.1166 72.773C25.2616 72.6116 25.4104 72.454 25.5629 72.3001C25.7154 72.1462 25.8712 71.9961 26.0311 71.8498C26.1911 71.704 26.3543 71.5614 26.5207 71.4237C26.6876 71.2854 26.8577 71.1514 27.031 71.0218C27.2038 70.8921 27.3803 70.7667 27.5595 70.6462C27.7387 70.5252 27.921 70.4089 28.1061 70.297C28.2911 70.1851 28.4783 70.0775 28.6687 69.9753C28.8591 69.8725 29.0516 69.7746 29.2462 69.6815C29.4414 69.5884 29.6387 69.5002 29.8376 69.4168C30.0371 69.334 30.2381 69.2554 30.4413 69.1822C30.6444 69.1085 30.8487 69.0407 31.0551 68.9772C31.2614 68.9143 31.4694 68.8562 31.6785 68.8035C31.888 68.7502 32.0981 68.7029 32.3098 68.6603C32.521 68.6178 32.7338 68.5807 32.9471 68.5484C33.1604 68.5167 33.3742 68.4898 33.5886 68.4688C33.8035 68.4473 34.0184 68.4311 34.2339 68.4209C34.4493 68.4102 34.6648 68.4048 34.8802 68.4048Z" fill="#C5C3CE"/>
<path d="M34.8803 74.1047H72.5297C72.7766 74.1047 73.0224 74.1166 73.2682 74.1413C73.5135 74.1655 73.7573 74.2021 73.9988 74.2505C74.2409 74.299 74.4798 74.3598 74.7155 74.4319C74.9518 74.504 75.1837 74.5879 75.4114 74.6831C75.6392 74.7783 75.8621 74.8843 76.0796 75.0022C76.2972 75.1195 76.5084 75.247 76.7132 75.3852C76.9185 75.5235 77.1163 75.6715 77.3067 75.8297C77.4976 75.9873 77.68 76.1546 77.8544 76.3306C78.0287 76.5065 78.194 76.6905 78.3508 76.8831C78.5071 77.0752 78.6537 77.2753 78.7908 77.4819C78.9278 77.6891 79.0542 77.9021 79.1705 78.1217C79.2867 78.3412 79.3923 78.5661 79.4867 78.7958C79.5811 79.0261 79.6637 79.2601 79.7357 79.4979C79.8072 79.7363 79.8669 79.9773 79.9149 80.2216C79.9634 80.4658 79.9992 80.7117 80.0237 80.9592C80.0477 81.2072 80.06 81.4553 80.06 81.7044C80.06 81.953 80.0477 82.2015 80.0237 82.449C79.9992 82.697 79.9634 82.9429 79.9149 83.1866C79.8669 83.4309 79.8072 83.672 79.7357 83.9103C79.6637 84.1486 79.5811 84.3827 79.4867 84.6124C79.3923 84.8427 79.2867 85.0671 79.1705 85.2866C79.0542 85.5061 78.9278 85.7197 78.7908 85.9263C78.6537 86.1334 78.5071 86.333 78.3508 86.5257C78.194 86.7177 78.0287 86.9023 77.8544 87.0782C77.68 87.2541 77.4976 87.4209 77.3067 87.5791C77.1163 87.7368 76.9185 87.8847 76.7132 88.023C76.5084 88.1613 76.2972 88.2893 76.0796 88.4066C75.8621 88.5239 75.6392 88.6304 75.4114 88.7256C75.1837 88.8209 74.9518 88.9043 74.7155 88.9769C74.4798 89.049 74.2409 89.1093 73.9988 89.1582C73.7573 89.2066 73.5135 89.2432 73.2682 89.2674C73.0224 89.2917 72.7766 89.304 72.5297 89.304H34.8803C34.634 89.304 34.3881 89.2917 34.1423 89.2674C33.897 89.2432 33.6533 89.2066 33.4117 89.1582C33.1696 89.1093 32.9307 89.049 32.695 88.9769C32.4588 88.9043 32.2268 88.8209 31.9991 88.7256C31.7714 88.6304 31.5485 88.5239 31.3309 88.4066C31.1133 88.2893 30.9022 88.1613 30.6974 88.023C30.4921 87.8847 30.2942 87.7368 30.1039 87.5791C29.9129 87.4209 29.7306 87.2541 29.5562 87.0782C29.3818 86.9023 29.2165 86.7177 29.0597 86.5257C28.9035 86.333 28.7568 86.1334 28.6198 85.9263C28.4827 85.7197 28.3563 85.5061 28.2401 85.2866C28.1238 85.0671 28.0182 84.8427 27.9239 84.6124C27.8295 84.3827 27.7468 84.1486 27.6748 83.9103C27.6034 83.672 27.5436 83.4309 27.4956 83.1866C27.4471 82.9429 27.4114 82.697 27.3868 82.449C27.3629 82.2015 27.3506 81.953 27.3506 81.7044C27.3506 81.4553 27.3629 81.2072 27.3868 80.9592C27.4114 80.7117 27.4471 80.4658 27.4956 80.2216C27.5436 79.9773 27.6034 79.7363 27.6748 79.4979C27.7468 79.2601 27.8295 79.0261 27.9239 78.7958C28.0182 78.5661 28.1238 78.3412 28.2401 78.1217C28.3563 77.9021 28.4827 77.6891 28.6198 77.4819C28.7568 77.2753 28.9035 77.0752 29.0597 76.8831C29.2165 76.6905 29.3818 76.5065 29.5562 76.3306C29.7306 76.1546 29.9129 75.9873 30.1039 75.8297C30.2942 75.6715 30.4921 75.5235 30.6974 75.3852C30.9022 75.247 31.1133 75.1195 31.3309 75.0022C31.5485 74.8843 31.7714 74.7783 31.9991 74.6831C32.2268 74.5879 32.4588 74.504 32.695 74.4319C32.9307 74.3598 33.1696 74.299 33.4117 74.2505C33.6533 74.2021 33.897 74.1655 34.1423 74.1413C34.3881 74.1166 34.634 74.1047 34.8803 74.1047Z" fill="#F8F8FF"/>
<mask id="mask2_229_1540" style="mask-type:luminance" maskUnits="userSpaceOnUse" x="70" y="77" width="24" height="20">
<path d="M70.5225 77.7859H93.3208V96.9036H70.5225V77.7859Z" fill="white"/>
</mask>
<g mask="url(#mask2_229_1540)">
<path d="M70.6475 77.9043H93.2373V96.9037H70.6475V77.9043Z" fill="#F0C500"/>
</g>
<path d="M91.3552 70.3046V77.9042H85.7079V70.3046C85.7079 70.1803 85.702 70.056 85.6898 69.9323C85.6775 69.8085 85.6594 69.6853 85.6354 69.5632C85.6114 69.4411 85.5815 69.3205 85.5458 69.2016C85.51 69.0827 85.4684 68.9654 85.421 68.8503C85.3741 68.7357 85.3213 68.6233 85.2631 68.5135C85.205 68.4037 85.1416 68.2972 85.0733 68.1934C85.005 68.0901 84.9314 67.99 84.8531 67.8942C84.7752 67.7979 84.6925 67.7059 84.6051 67.6177C84.5176 67.53 84.4264 67.4461 84.3315 67.3675C84.2361 67.2884 84.1369 67.2142 84.0345 67.1453C83.9321 67.0759 83.8265 67.0119 83.7177 66.9532C83.6089 66.8946 83.4975 66.8419 83.3839 66.794C83.2698 66.7466 83.1535 66.7047 83.0357 66.6686C82.9178 66.632 82.7984 66.6019 82.6773 66.5777C82.5563 66.5535 82.4347 66.5352 82.312 66.5228C82.1894 66.511 82.0662 66.5045 81.943 66.5045C81.8198 66.5045 81.6966 66.511 81.574 66.5228C81.4513 66.5352 81.3292 66.5535 81.2082 66.5777C81.0876 66.6019 80.9682 66.632 80.8498 66.6686C80.7319 66.7047 80.6162 66.7466 80.5021 66.794C80.388 66.8419 80.2771 66.8946 80.1683 66.9532C80.0595 67.0119 79.9539 67.0759 79.851 67.1453C79.7486 67.2142 79.6499 67.2884 79.5545 67.3675C79.459 67.4461 79.3678 67.53 79.2809 67.6177C79.1935 67.7059 79.1108 67.7979 79.0324 67.8942C78.9546 67.99 78.881 68.0901 78.8122 68.1934C78.7439 68.2972 78.6805 68.4037 78.6223 68.5135C78.5642 68.6233 78.512 68.7357 78.4645 68.8503C78.4176 68.9654 78.376 69.0827 78.3402 69.2016C78.3045 69.3205 78.2741 69.4411 78.2501 69.5632C78.2261 69.6853 78.208 69.8085 78.1963 69.9323C78.184 70.056 78.1781 70.1803 78.1781 70.3046V77.9042H72.5303V70.3046C72.5308 70.1491 72.5345 69.9936 72.542 69.8387C72.5495 69.6832 72.5607 69.5282 72.5756 69.3733C72.5911 69.2189 72.6097 69.0644 72.6327 68.9106C72.6551 68.7567 72.6812 68.6039 72.7116 68.4511C72.7414 68.2988 72.775 68.1471 72.8124 67.9965C72.8502 67.8458 72.8913 67.6957 72.9361 67.5472C72.9804 67.3982 73.0289 67.2508 73.0806 67.1044C73.1329 66.9581 73.1883 66.8128 73.247 66.6691C73.3062 66.5255 73.3686 66.3835 73.4342 66.243C73.5003 66.1026 73.5691 65.9638 73.6421 65.8266C73.7147 65.6894 73.7904 65.5543 73.8698 65.4209C73.9488 65.2875 74.0314 65.1562 74.1167 65.0271C74.2026 64.8974 74.2911 64.7704 74.3828 64.6456C74.4746 64.5208 74.5695 64.3981 74.6671 64.2781C74.7647 64.1582 74.8655 64.0403 74.9689 63.9252C75.0724 63.8101 75.1785 63.6971 75.2873 63.5873C75.3961 63.4776 75.508 63.3705 75.6222 63.2656C75.7363 63.1612 75.8525 63.0601 75.972 62.9611C76.0909 62.8626 76.2125 62.7668 76.3362 62.6743C76.4599 62.5817 76.5858 62.4924 76.7138 62.4058C76.8418 62.3197 76.9719 62.2363 77.1041 62.1567C77.2358 62.0765 77.3702 62.0001 77.5062 61.9264C77.6417 61.8533 77.7792 61.7833 77.9184 61.7171C78.0576 61.6504 78.1984 61.5875 78.3408 61.5283C78.4832 61.4686 78.6271 61.4126 78.7722 61.3604C78.9172 61.3077 79.0634 61.2593 79.2105 61.2141C79.3582 61.1689 79.5065 61.1275 79.6558 61.0898C79.8051 61.0521 79.9555 61.0177 80.1064 60.9876C80.2579 60.9569 80.4093 60.9305 80.5618 60.9079C80.7144 60.8848 80.8669 60.866 81.0204 60.8509C81.1735 60.8353 81.3271 60.824 81.4812 60.8165C81.6348 60.8089 81.7889 60.8052 81.943 60.8052C82.0971 60.8052 82.2507 60.8089 82.4048 60.8165C82.5584 60.824 82.712 60.8353 82.8656 60.8509C83.0186 60.866 83.1717 60.8848 83.3242 60.9079C83.4762 60.9305 83.6281 60.9569 83.779 60.9876C83.93 61.0177 84.0803 61.0516 84.2297 61.0898C84.3795 61.1275 84.5278 61.1689 84.6749 61.2141C84.8227 61.2593 84.9688 61.3077 85.1138 61.3604C85.2589 61.4126 85.4023 61.4686 85.5447 61.5283C85.6871 61.5875 85.8279 61.6504 85.9671 61.7171C86.1062 61.7833 86.2438 61.8533 86.3798 61.9264C86.5158 62.0001 86.6496 62.0765 86.7819 62.1567C86.9141 62.2363 87.0443 62.3197 87.1722 62.4058C87.3002 62.4924 87.4261 62.5817 87.5498 62.6743C87.6735 62.7668 87.7951 62.8626 87.914 62.9611C88.0329 63.0601 88.1497 63.1612 88.2638 63.2656C88.378 63.3705 88.4894 63.4776 88.5982 63.5873C88.7075 63.6971 88.8136 63.8101 88.9171 63.9252C89.0205 64.0403 89.1208 64.1582 89.2189 64.2781C89.3165 64.3981 89.4109 64.5208 89.5032 64.6456C89.5949 64.7704 89.6834 64.8974 89.7687 65.0271C89.8546 65.1562 89.9367 65.2875 90.0162 65.4209C90.0951 65.5543 90.1713 65.6894 90.2439 65.8266C90.3164 65.9638 90.3857 66.1026 90.4513 66.243C90.5174 66.3835 90.5798 66.5255 90.6385 66.6691C90.6977 66.8128 90.7531 66.9581 90.8049 67.1044C90.8571 67.2508 90.9051 67.3982 90.9499 67.5472C90.9947 67.6957 91.0358 67.8458 91.0731 67.9965C91.1104 68.1471 91.1446 68.2988 91.1744 68.4511C91.2043 68.6039 91.2309 68.7567 91.2533 68.9106C91.2757 69.0644 91.2949 69.2189 91.3099 69.3733C91.3248 69.5282 91.3365 69.6832 91.344 69.8387C91.3515 69.9936 91.3552 70.1491 91.3552 70.3046Z" fill="#E9E6F2"/>
<path d="M36.7639 83.6043C36.5143 83.6011 36.2743 83.5516 36.0439 83.4563C35.813 83.3611 35.6072 83.2271 35.4269 83.0533C35.2595 82.8672 35.1278 82.6584 35.0318 82.4265C34.9342 82.1957 34.8841 81.9552 34.8809 81.7045C34.8798 81.4522 34.9262 81.209 35.0206 80.9749C35.1155 80.7414 35.251 80.5348 35.4269 80.3557C35.5587 80.2217 35.7069 80.1098 35.8717 80.0205C36.0359 79.9312 36.2098 79.8677 36.3932 79.8306C36.5767 79.7934 36.7612 79.7843 36.9473 79.8026C37.1334 79.8209 37.3126 79.8661 37.4854 79.9387C37.6581 80.0108 37.8165 80.1071 37.961 80.2271C38.105 80.3471 38.2287 80.4859 38.3322 80.643C38.4356 80.8001 38.514 80.9696 38.5674 81.1503C38.6212 81.3311 38.6474 81.5157 38.6463 81.7045C38.6527 81.9568 38.6026 82.1979 38.4954 82.4265C38.3994 82.6584 38.2677 82.8672 38.1002 83.0533C37.92 83.2271 37.7141 83.3611 37.4838 83.4563C37.2529 83.5516 37.0129 83.6011 36.7639 83.6043Z" fill="#9B9FAA"/>
<path d="M55.5885 83.6042C55.3394 83.601 55.0994 83.5515 54.8685 83.4563C54.6376 83.3611 54.4323 83.2271 54.2521 83.0533C54.171 82.9629 54.0958 82.8677 54.026 82.7682C53.954 82.6622 53.8975 82.5481 53.8564 82.4265C53.7892 82.32 53.7391 82.2059 53.706 82.0843C53.697 81.9579 53.697 81.8309 53.706 81.7045C53.7044 81.4521 53.7513 81.2089 53.8457 80.9749C53.9401 80.7414 54.0756 80.5348 54.2521 80.3556C54.3625 80.2443 54.4846 80.1485 54.619 80.0683C54.7528 79.9882 54.8947 79.9257 55.0445 79.8806C55.1938 79.8359 55.3464 79.8101 55.5021 79.8036C55.6583 79.7972 55.8124 79.8101 55.9649 79.8424L56.3036 79.9564C56.4241 79.9984 56.5371 80.0554 56.6427 80.1275L56.9248 80.3556C57.0971 80.5375 57.2304 80.7452 57.3242 80.9776C57.4186 81.2106 57.4677 81.4527 57.4709 81.7045C57.481 81.8309 57.481 81.9579 57.4709 82.0843C57.4506 82.2043 57.4133 82.3184 57.3578 82.4265C57.3162 82.5476 57.2597 82.6616 57.1888 82.7682L56.9627 83.0533L56.6801 83.2814C56.575 83.3535 56.462 83.4106 56.3414 83.4525L56.0028 83.5666L55.5885 83.6042Z" fill="#9B9FAA"/>
<path d="M46.1754 83.6042C46.0986 83.6036 46.0218 83.5988 45.9456 83.5886C45.8693 83.5789 45.7941 83.5644 45.7195 83.545C45.6448 83.5256 45.5717 83.5019 45.5003 83.4734C45.4283 83.4455 45.359 83.4126 45.2912 83.376C45.2235 83.3389 45.1585 83.298 45.0955 83.2528C45.0331 83.2082 44.9734 83.1592 44.9164 83.107C44.8598 83.0548 44.8065 82.9989 44.7564 82.9402C44.7062 82.8811 44.6598 82.8192 44.6177 82.7546C44.5751 82.6901 44.5367 82.6228 44.502 82.5534C44.4679 82.484 44.438 82.4124 44.4119 82.3398C44.3863 82.2666 44.365 82.1918 44.3484 82.116C44.3319 82.0401 44.3196 81.9637 44.3127 81.8868C44.3052 81.8093 44.3026 81.7318 44.3042 81.6544C44.3063 81.5769 44.3132 81.4994 44.3244 81.423C44.3362 81.3461 44.3522 81.2702 44.3724 81.1954C44.3932 81.1206 44.4183 81.0475 44.4476 80.9759C44.4769 80.9043 44.5111 80.8344 44.5489 80.7671C44.5868 80.6994 44.6284 80.6348 44.6742 80.5724C44.7201 80.51 44.7697 80.4508 44.8225 80.3943C44.8758 80.3383 44.9318 80.2856 44.9915 80.2361C45.0507 80.1866 45.1131 80.1414 45.1782 80.1C45.2427 80.0586 45.3099 80.0209 45.3798 79.9875C45.4491 79.9542 45.5205 79.9257 45.5936 79.9009C45.6661 79.8767 45.7408 79.8568 45.816 79.8417C45.8912 79.8261 45.9674 79.8159 46.0442 79.81C46.121 79.8041 46.1973 79.803 46.2746 79.8062C46.3514 79.81 46.4276 79.8186 46.5034 79.8315C46.5791 79.8444 46.6537 79.8622 46.7273 79.8848C46.8009 79.9068 46.8729 79.9337 46.9438 79.965C47.0142 79.9962 47.0825 80.0317 47.1481 80.0715C47.2142 80.1108 47.2777 80.1543 47.3385 80.2022C47.3993 80.2496 47.4574 80.3007 47.5118 80.3556C47.6877 80.5347 47.8232 80.7413 47.9181 80.9748C48.0125 81.2089 48.0594 81.4521 48.0578 81.7044C48.0578 81.8292 48.0456 81.9524 48.0216 82.0751C47.9976 82.1972 47.9618 82.3161 47.9144 82.4313C47.8669 82.5464 47.8093 82.6562 47.7405 82.76C47.6718 82.8633 47.5939 82.9596 47.5064 83.0479C47.419 83.1361 47.3241 83.2146 47.2211 83.284C47.1182 83.3535 47.01 83.4121 46.8958 83.4594C46.7817 83.5073 46.6639 83.5434 46.5423 83.5676C46.4212 83.5918 46.2991 83.6042 46.1754 83.6042Z" fill="#9B9FAA"/>
<path d="M63.1174 83.6042H62.741L62.4023 83.4902C62.2818 83.4488 62.1688 83.3917 62.0632 83.3191C61.9645 83.2491 61.8707 83.1733 61.7811 83.0915C61.6003 82.9075 61.4622 82.695 61.3673 82.4545C61.2729 82.2134 61.2286 81.9633 61.235 81.7045C61.2281 81.4516 61.2782 81.2111 61.3859 80.9824C61.4819 80.7505 61.6136 80.5413 61.7811 80.3556L62.0632 80.1275C62.1688 80.0554 62.2818 79.9984 62.4023 79.9564C62.5095 79.901 62.6226 79.8633 62.741 79.8424C62.8935 79.8101 63.0481 79.7972 63.2038 79.8036C63.3595 79.8101 63.5121 79.8359 63.6619 79.8806C63.8112 79.9252 63.9531 79.9882 64.0869 80.0683C64.2213 80.1485 64.3434 80.2443 64.4544 80.3556C64.6271 80.538 64.7588 80.7468 64.8495 80.9824C64.9471 81.2132 64.9972 81.4537 64.9999 81.7045C64.9999 81.8293 64.9882 81.9525 64.9636 82.0752C64.9396 82.1973 64.9039 82.3162 64.857 82.4313C64.8095 82.5465 64.7514 82.6562 64.6826 82.7601C64.6143 82.8634 64.5359 82.9597 64.4485 83.0479C64.361 83.1362 64.2661 83.2147 64.1632 83.2841C64.0608 83.3535 63.952 83.4122 63.8379 83.4595C63.7238 83.5074 63.6059 83.5434 63.4849 83.5677C63.3638 83.5919 63.2412 83.6042 63.1174 83.6042Z" fill="#9B9FAA"/>
</g>
<defs>
<clipPath id="clip0_229_1540">
<rect width="111" height="97" fill="white"/>
</clipPath>
</defs>
</svg>
