<svg width="91" height="91" viewBox="0 0 91 91" fill="none" xmlns="http://www.w3.org/2000/svg">
<g clip-path="url(#clip0_228_1384)">
<mask id="mask0_228_1384" style="mask-type:luminance" maskUnits="userSpaceOnUse" x="0" y="27" width="12" height="6">
<path d="M0.0332031 27.3835H11.4124V32.0319H0.0332031V27.3835Z" fill="white"/>
</mask>
<g mask="url(#mask0_228_1384)">
<path d="M0.0332031 29.7538C0.0332031 31.0011 1.06073 32.0114 2.30755 32.0114H11.3239V27.4795H2.30755C1.06073 27.4795 0.0332031 28.4903 0.0332031 29.7538Z" fill="#B82E59"/>
</g>
<mask id="mask1_228_1384" style="mask-type:luminance" maskUnits="userSpaceOnUse" x="0" y="58" width="12" height="6">
<path d="M0.0332031 58.8491H11.4124V63.6166H0.0332031V58.8491Z" fill="white"/>
</mask>
<g mask="url(#mask1_228_1384)">
<path d="M0.0332031 61.2416C0.0332031 62.5052 1.06073 63.5164 2.30755 63.5164H11.3239V58.9673H2.30755C1.06073 58.9673 0.0332031 59.9953 0.0332031 61.2416Z" fill="#B82E59"/>
</g>
<mask id="mask2_228_1384" style="mask-type:luminance" maskUnits="userSpaceOnUse" x="0" y="43" width="12" height="5">
<path d="M0.0332031 43.1162H11.4124V47.7645H0.0332031V43.1162Z" fill="white"/>
</mask>
<g mask="url(#mask2_228_1384)">
<path d="M0.0332031 45.4893C0.0332031 46.7529 1.06073 47.7636 2.30755 47.7636H11.3239V43.2317H2.30755C1.06073 43.2317 0.0332031 44.2429 0.0332031 45.4893Z" fill="#B82E59"/>
</g>
<mask id="mask3_228_1384" style="mask-type:luminance" maskUnits="userSpaceOnUse" x="58" y="0" width="6" height="12">
<path d="M58.9678 0.032959H63.6161V11.4121H58.9678V0.032959Z" fill="white"/>
</mask>
<g mask="url(#mask3_228_1384)">
<path d="M63.5194 2.30733C63.5194 1.06098 62.5086 0.0334473 61.2451 0.0334473C59.9987 0.0334473 58.9707 1.06098 58.9707 2.30733V11.3232H63.5194V2.30733Z" fill="#B82E59"/>
</g>
<mask id="mask4_228_1384" style="mask-type:luminance" maskUnits="userSpaceOnUse" x="79" y="27" width="12" height="6">
<path d="M79.5879 27.3835H90.9438V32.0319H79.5879V27.3835Z" fill="white"/>
</mask>
<g mask="url(#mask4_228_1384)">
<path d="M90.9439 29.7538C90.9439 28.4903 89.9331 27.4795 88.6695 27.4795H79.6699V32.0114H88.6695C89.9331 32.0114 90.9439 31.0011 90.9439 29.7538Z" fill="#B82E59"/>
</g>
<mask id="mask5_228_1384" style="mask-type:luminance" maskUnits="userSpaceOnUse" x="27" y="0" width="6" height="12">
<path d="M27.3838 0.032959H32.0321V11.4121H27.3838V0.032959Z" fill="white"/>
</mask>
<g mask="url(#mask5_228_1384)">
<path d="M32.0145 2.30733C32.0145 1.06098 31.0037 0.0334473 29.7402 0.0334473C28.4934 0.0334473 27.4658 1.06098 27.4658 2.30733V11.3232H32.0145V2.30733Z" fill="#B82E59"/>
</g>
<mask id="mask6_228_1384" style="mask-type:luminance" maskUnits="userSpaceOnUse" x="43" y="0" width="5" height="12">
<path d="M43.1162 0.032959H47.8837V11.4121H43.1162V0.032959Z" fill="white"/>
</mask>
<g mask="url(#mask6_228_1384)">
<path d="M47.7665 2.30733C47.7665 1.06098 46.7557 0.0334473 45.4921 0.0334473C44.2453 0.0334473 43.2178 1.06098 43.2178 2.30733V11.3232H47.7665V2.30733Z" fill="#B82E59"/>
</g>
<mask id="mask7_228_1384" style="mask-type:luminance" maskUnits="userSpaceOnUse" x="43" y="79" width="5" height="12">
<path d="M43.1162 79.5876H47.8837V90.9436H43.1162V79.5876Z" fill="white"/>
</mask>
<g mask="url(#mask7_228_1384)">
<path d="M43.2178 88.6856C43.2178 89.9329 44.2453 90.9432 45.4921 90.9432C46.7557 90.9432 47.7665 89.9329 47.7665 88.6856V79.6697H43.2178V88.6856Z" fill="#B82E59"/>
</g>
<mask id="mask8_228_1384" style="mask-type:luminance" maskUnits="userSpaceOnUse" x="79" y="58" width="12" height="6">
<path d="M79.5879 58.8491H90.9438V63.6166H79.5879V58.8491Z" fill="white"/>
</mask>
<g mask="url(#mask8_228_1384)">
<path d="M88.6695 58.9673H79.6699V63.5164H88.6695C89.9331 63.5164 90.9439 62.5052 90.9439 61.2416C90.9439 59.9953 89.9331 58.9673 88.6695 58.9673Z" fill="#B82E59"/>
</g>
<mask id="mask9_228_1384" style="mask-type:luminance" maskUnits="userSpaceOnUse" x="27" y="79" width="6" height="12">
<path d="M27.3838 79.5876H32.0321V90.9436H27.3838V79.5876Z" fill="white"/>
</mask>
<g mask="url(#mask9_228_1384)">
<path d="M27.4658 88.6856C27.4658 89.9329 28.4934 90.9432 29.7402 90.9432C31.0037 90.9432 32.0145 89.9329 32.0145 88.6856V79.6697H27.4658V88.6856Z" fill="#B82E59"/>
</g>
<mask id="mask10_228_1384" style="mask-type:luminance" maskUnits="userSpaceOnUse" x="79" y="43" width="12" height="5">
<path d="M79.5879 43.1162H90.9438V47.7645H79.5879V43.1162Z" fill="white"/>
</mask>
<g mask="url(#mask10_228_1384)">
<path d="M88.6695 43.2317H79.6699V47.7636H88.6695C89.9331 47.7636 90.9439 46.7529 90.9439 45.4893C90.9439 44.2429 89.9331 43.2317 88.6695 43.2317Z" fill="#B82E59"/>
</g>
<mask id="mask11_228_1384" style="mask-type:luminance" maskUnits="userSpaceOnUse" x="58" y="79" width="6" height="12">
<path d="M58.9678 79.5876H63.6161V90.9436H58.9678V79.5876Z" fill="white"/>
</mask>
<g mask="url(#mask11_228_1384)">
<path d="M58.9697 88.6856C58.9697 89.9329 59.9977 90.9432 61.2441 90.9432C62.5077 90.9432 63.5184 89.9329 63.5184 88.6856V79.6697H58.9697V88.6856Z" fill="#B82E59"/>
</g>
<path d="M70.8322 82.5699H20.1703C13.6927 82.5699 8.42285 77.3 8.42285 70.8224V20.1708C8.42285 13.6937 13.6927 8.42383 20.1703 8.42383H70.8322C77.3037 8.42383 82.5689 13.6937 82.5689 20.1708V70.8224C82.5689 77.3 77.3037 82.5699 70.8322 82.5699ZM20.1703 11.5441C15.413 11.5441 11.5432 15.414 11.5432 20.1708V70.8224C11.5432 75.5793 15.413 79.4496 20.1703 79.4496H70.8322C75.5834 79.4496 79.4486 75.5793 79.4486 70.8224V20.1708C79.4486 15.414 75.5834 11.5441 70.8322 11.5441H20.1703Z" fill="#83213F"/>
<path d="M70.874 38.6806C70.874 35.2572 68.9568 32.2231 65.9859 30.8217C65.3853 25.765 61.2664 21.783 56.3042 21.6144C54.745 19.2018 52.1536 17.7375 49.3303 17.7375C47.9816 17.7375 46.6751 18.0746 45.4954 18.7069C44.3156 18.0746 43.0092 17.7375 41.6609 17.7375C38.8376 17.7375 36.2457 19.2018 34.6865 21.6144C29.7249 21.783 25.6054 25.765 25.0053 30.8217C22.0447 32.2231 20.1172 35.2568 20.1172 38.6806C20.1172 40.5979 20.7071 42.4206 21.8133 43.9165C21.1601 45.2122 20.8123 46.6453 20.8123 48.1202C20.8123 50.9225 22.0554 53.5456 24.1728 55.2836C24.3945 60.235 27.6493 64.5756 32.1901 66.0506C33.4751 70.2748 37.3203 73.2559 41.6609 73.2559C42.9668 73.2559 44.2523 72.9611 45.4954 72.4025C46.7385 72.9611 48.0239 73.2559 49.3303 73.2559C53.6705 73.2559 57.5157 70.2748 58.8114 66.0506C63.3414 64.5756 66.5968 60.235 66.8286 55.2836C68.9358 53.5456 70.1785 50.9225 70.1785 48.1202C70.1785 46.6453 69.8311 45.2122 69.1779 43.9165C70.2837 42.4206 70.874 40.5979 70.874 38.6806ZM43.9366 69.6844C40.3121 71.1067 36.4143 68.8417 35.2452 65.2181C35.1609 64.7437 35.0767 64.259 35.0236 63.7534C34.9184 62.8367 35.5609 62.3734 35.8453 62.2156C36.33 61.9521 37.0782 61.8464 37.7314 62.3525L38.5848 63.0164C39.2692 63.543 40.2492 63.4163 40.7758 62.7422C41.3028 62.0573 41.1869 61.0777 40.5021 60.5507L39.6486 59.8872C38.1211 58.6968 36.0353 58.5389 34.3178 59.4869C33.0961 60.161 32.2953 61.2886 32.0108 62.5736C29.2928 61.1937 27.4491 58.3387 27.3122 55.1886C27.7759 52.5763 29.3137 50.9114 31.8949 50.2689C32.7274 50.058 33.233 49.2046 33.0221 48.3726C32.8116 47.5299 31.9689 47.0243 31.1258 47.2352C28.3868 47.92 26.3643 49.5104 25.1845 51.7862C24.4149 50.7428 23.941 49.4788 23.941 48.1198C23.941 46.8664 24.3097 45.6652 25.0053 44.6331C25.4266 44.0115 25.3526 43.1893 24.8368 42.6627C23.8041 41.6091 23.2352 40.1868 23.2352 38.6806C23.2352 36.816 24.1202 35.1409 25.5426 34.1296C26.4062 36.4473 28.2182 38.9232 31.9475 40.3767C32.137 40.4503 32.327 40.4824 32.5165 40.4824C33.138 40.4824 33.7279 40.1132 33.9705 39.4921C34.2866 38.6909 33.8862 37.7853 33.0854 37.4692C30.2938 36.3737 28.6186 34.4034 28.0921 31.6332C28.3239 27.8085 31.3469 24.7431 35.0976 24.7431C35.0976 24.7431 35.1083 24.7431 35.1186 24.7431C35.2345 24.7645 35.3397 24.7748 35.4561 24.7855C36.0879 24.8278 36.6885 24.4903 36.973 23.9214C37.8999 22.0353 39.6905 20.8662 41.6609 20.8662C42.4617 20.8662 43.2303 21.0455 43.9366 21.404V69.6844ZM66.154 42.6627C65.6381 43.1898 65.5641 44.0115 65.9859 44.6331C66.681 45.6652 67.0498 46.8664 67.0498 48.1202C67.0498 49.4793 66.5865 50.7428 65.8067 51.7862C64.6269 49.5104 62.604 47.92 59.865 47.2352C59.0325 47.0243 58.1791 47.5299 57.9687 48.3726C57.7578 49.205 58.2639 50.0584 59.1065 50.2693C61.6663 50.9118 63.1939 52.5553 63.6785 55.157C63.5207 58.3597 61.677 61.1941 58.9799 62.5736C58.6954 61.2886 57.8951 60.161 56.673 59.4873C54.9662 58.5389 52.8701 58.6972 51.3421 59.877L50.4887 60.5512C49.8145 61.0777 49.6884 62.0578 50.2149 62.7422C50.742 63.4168 51.7323 63.5434 52.4064 63.0164L53.2598 62.3525C53.9126 61.8366 54.6715 61.9521 55.1561 62.2156C55.4299 62.3734 56.0724 62.8372 55.9672 63.7534C55.9145 64.2595 55.8298 64.7437 55.746 65.2181C54.5765 68.8422 50.6787 71.0965 47.0546 69.6844V21.404C47.7604 21.0455 48.5403 20.8662 49.3303 20.8662C51.3002 20.8662 53.1015 22.0353 54.0182 23.9214C54.3027 24.4903 54.9033 24.8278 55.5351 24.7855C55.651 24.7748 55.767 24.7645 55.9672 24.7324C59.6331 24.7324 62.6673 27.8085 62.8991 31.6332C62.3726 34.4038 60.7077 36.3737 57.9054 37.4697C57.105 37.7853 56.7046 38.6913 57.0208 39.4921C57.2629 40.1132 57.8527 40.4824 58.4743 40.4824C58.6642 40.4824 58.8644 40.4503 59.0432 40.3767C62.7725 38.9232 64.5845 36.4473 65.4487 34.1296C66.8705 35.1409 67.7556 36.816 67.7556 38.6806C67.7556 40.1868 67.1866 41.6091 66.154 42.6627Z" fill="#B82E59"/>
<path d="M37.3837 54.6723C37.0783 54.9889 36.6672 55.1468 36.2668 55.1468C35.8668 55.1468 35.4767 54.9992 35.1713 54.7045C34.5604 54.1034 34.5395 53.1243 35.1401 52.5028C35.2979 52.3342 38.9532 48.415 36.3408 43.9585C35.9087 43.2107 36.1513 42.2517 36.899 41.8201C37.6472 41.3778 38.6058 41.6306 39.0379 42.3783C42.1033 47.6035 39.3009 52.7029 37.3837 54.6723Z" fill="#B82E59"/>
<path d="M39.9655 35.1205C40.629 35.6676 40.7347 36.6583 40.1867 37.3218C39.8706 37.7012 39.4278 37.9014 38.9753 37.9014C38.6275 37.9014 38.2797 37.7855 37.985 37.5429C35.8568 35.8049 34.8563 33.9193 35.0034 31.949C35.2353 28.9255 38.1009 27.1452 38.4273 26.9557C39.1647 26.5129 40.1234 26.7662 40.5657 27.5032C41.0084 28.2519 40.7659 29.1998 40.0284 29.6421C39.5228 29.9475 38.2061 31.0011 38.1218 32.1916C38.0483 33.308 39.0805 34.404 39.9655 35.1205Z" fill="#B82E59"/>
<path d="M53.0067 37.5433C52.7222 37.7854 52.3647 37.9013 52.0169 37.9013C51.5634 37.9013 51.1211 37.7011 50.805 37.3217C50.2677 36.6582 50.3627 35.6675 51.0266 35.1204C51.9112 34.4039 52.9541 33.3079 52.8703 32.1915C52.7855 31.001 51.4689 29.9474 50.9633 29.6419C50.2365 29.1996 49.9939 28.2406 50.4367 27.5031C50.879 26.7661 51.8269 26.5235 52.5644 26.9556C52.8912 27.1451 55.7564 28.9254 55.9882 31.9489C56.1358 33.9192 55.1348 35.8048 53.0067 37.5433Z" fill="#B82E59"/>
<path d="M55.8097 54.7147C55.5043 54.9992 55.1146 55.1468 54.7249 55.1468C54.3245 55.1468 53.9134 54.9889 53.608 54.6723C51.7015 52.7029 48.8885 47.6035 51.9543 42.3783C52.3966 41.6306 53.345 41.3778 54.0927 41.8201C54.8409 42.2517 55.0937 43.2107 54.6514 43.9585C52.0386 48.415 55.7045 52.3337 55.8521 52.5028C56.4527 53.1243 56.4313 54.1141 55.8097 54.7147Z" fill="#B82E59"/>
</g>
<defs>
<clipPath id="clip0_228_1384">
<rect width="91" height="91" fill="white"/>
</clipPath>
</defs>
</svg>
