<svg width="108" height="108" viewBox="0 0 108 108" fill="none" xmlns="http://www.w3.org/2000/svg">
<g clip-path="url(#clip0_237_1667)">
<path fill-rule="evenodd" clip-rule="evenodd" d="M31.8877 33.8472C31.9241 29.604 41.5952 26.1733 53.5244 26.1733C65.453 26.1733 75.1256 29.604 75.1605 33.8472V73.2083C75.1241 77.4462 65.453 80.8769 53.5244 80.8769C41.5952 80.8769 31.9225 77.4462 31.8877 73.2083V33.8472Z" fill="#B82E59"/>
<path fill-rule="evenodd" clip-rule="evenodd" d="M53.5244 41.5621C65.4419 41.5621 75.1605 38.1008 75.1605 33.8645C75.1605 29.6282 65.4419 26.1716 53.5244 26.1716C41.6063 26.1716 31.8877 29.6266 31.8877 33.8645C31.8877 38.1018 41.6063 41.5621 53.5244 41.5621Z" fill="#B82E59"/>
<mask id="mask0_237_1667" style="mask-type:luminance" maskUnits="userSpaceOnUse" x="80" y="47" width="28" height="13">
<path d="M80.6885 47.8457H107.047V59.1989H80.6885V47.8457Z" fill="white"/>
</mask>
<g mask="url(#mask0_237_1667)">
<path d="M105.373 51.8531H86.4987L87.5224 50.8293C88.1765 50.1752 88.1765 49.1156 87.5224 48.4625C86.8677 47.8084 85.8081 47.8084 85.155 48.4625L81.2746 52.343C81.236 52.3815 81.1985 52.4232 81.1626 52.466C81.1558 52.4739 81.1505 52.4818 81.1436 52.4898C81.1157 52.5246 81.0887 52.561 81.065 52.5969C81.0592 52.6064 81.0539 52.6159 81.0486 52.6239C81.0248 52.6614 81.0016 52.6988 80.9805 52.7374C80.9763 52.7442 80.9736 52.7522 80.9699 52.759C80.9483 52.8002 80.9282 52.8419 80.9098 52.8863C80.9066 52.8926 80.9055 52.8979 80.9029 52.9047C80.8855 52.9491 80.868 52.9945 80.8548 53.0399C80.8522 53.0478 80.8506 53.0547 80.8496 53.0626C80.8358 53.1069 80.8237 53.1524 80.8158 53.1978C80.8131 53.2125 80.8121 53.2284 80.8089 53.2432C80.8026 53.2822 80.7957 53.3208 80.792 53.3598C80.7862 53.4079 80.7852 53.4559 80.7852 53.5045C80.7852 53.5124 80.7852 53.5188 80.7852 53.5256C80.7852 53.5821 80.7878 53.6381 80.7931 53.693C80.7973 53.7384 80.8052 53.7838 80.8131 53.8281C80.8147 53.8376 80.8158 53.8466 80.8174 53.8561C80.8279 53.9068 80.8401 53.958 80.8548 54.0071C80.8548 54.0103 80.8548 54.0129 80.8559 54.014C80.8707 54.0636 80.8881 54.1116 80.9082 54.1586C80.9082 54.1613 80.9108 54.1655 80.9124 54.1681C80.9309 54.2135 80.9525 54.2563 80.9752 54.2991C80.9779 54.3044 80.9805 54.3096 80.9831 54.3149C81.0048 54.354 81.0275 54.3915 81.0512 54.4289C81.0565 54.4385 81.0623 54.4474 81.0676 54.4569C81.0903 54.4918 81.1167 54.525 81.1426 54.5572C81.1505 54.5678 81.1568 54.5789 81.1653 54.5879C81.2001 54.6296 81.236 54.6713 81.2746 54.7082L85.1566 58.585C85.4829 58.9113 85.9111 59.0744 86.3392 59.0744C86.7674 59.0744 87.1972 58.9113 87.5234 58.5834C88.1765 57.9293 88.1765 56.8697 87.5224 56.2166L86.504 55.1998H105.375C106.299 55.1998 107.048 54.4501 107.048 53.5256C107.048 52.6012 106.299 51.852 105.375 51.852L105.373 51.8531Z" fill="#8C8C8C"/>
</g>
<mask id="mask1_237_1667" style="mask-type:luminance" maskUnits="userSpaceOnUse" x="47" y="87" width="13" height="21">
<path d="M47.8447 87.0408H59.1979V107.047H47.8447V87.0408Z" fill="white"/>
</mask>
<g mask="url(#mask1_237_1667)">
<path d="M54.7109 87.547C54.6723 87.508 54.6306 87.4705 54.5879 87.4346C54.5826 87.4303 54.5773 87.4267 54.5715 87.4224C54.534 87.3929 54.497 87.3633 54.4564 87.3369C54.4501 87.3327 54.4432 87.329 54.4363 87.3248C54.3978 87.2994 54.3577 87.2751 54.316 87.2524C54.3123 87.2498 54.307 87.2487 54.3028 87.2456C54.2584 87.2229 54.2146 87.2017 54.1676 87.1817C54.165 87.1817 54.1607 87.179 54.1581 87.1775C54.1116 87.159 54.0631 87.1416 54.014 87.1252C54.0097 87.1252 54.0055 87.1241 54.0018 87.1225C53.9538 87.1078 53.9052 87.0962 53.8561 87.0866C53.8424 87.084 53.8292 87.0824 53.817 87.0814C53.7769 87.0745 53.7352 87.0666 53.694 87.0624C53.6391 87.0571 53.5832 87.0544 53.5267 87.0544C53.4707 87.0544 53.4142 87.0571 53.3593 87.0624C53.3181 87.0666 53.278 87.0734 53.2379 87.0814C53.2241 87.084 53.2109 87.0851 53.1978 87.0877C53.1492 87.0972 53.1011 87.1104 53.0541 87.1241C53.0489 87.1252 53.0452 87.1268 53.0399 87.1278C52.9913 87.1426 52.9449 87.16 52.8989 87.179C52.8952 87.1801 52.89 87.1817 52.8857 87.1843C52.8414 87.2028 52.7986 87.2229 52.7559 87.2456C52.7495 87.2487 52.7437 87.2514 52.7374 87.2551C52.6983 87.2767 52.6598 87.2994 52.6223 87.3232C52.6144 87.329 52.6049 87.3343 52.5954 87.3395C52.5579 87.3649 52.523 87.3918 52.4871 87.4198C52.4792 87.4267 52.4708 87.4319 52.4628 87.4372C52.4201 87.4721 52.3789 87.5095 52.3398 87.5497L48.4594 91.4301C47.8052 92.0843 47.8052 93.1439 48.4594 93.797C49.114 94.4511 50.1736 94.4511 50.8267 93.797L51.8499 92.7733V105.372C51.8499 106.297 52.5996 107.047 53.524 107.047C54.4485 107.047 55.1982 106.297 55.1982 105.372V92.7733L56.2213 93.797C56.5482 94.1232 56.9763 94.288 57.4056 94.288C57.8353 94.288 58.2619 94.1248 58.5898 93.797C59.2444 93.1428 59.2444 92.0827 58.5898 91.4301L54.7093 87.5497L54.7109 87.547Z" fill="#8C8C8C"/>
</g>
<mask id="mask2_237_1667" style="mask-type:luminance" maskUnits="userSpaceOnUse" x="0" y="47" width="27" height="13">
<path d="M0.00292969 47.8457H26.3558V59.1989H0.00292969V47.8457Z" fill="white"/>
</mask>
<g mask="url(#mask2_237_1667)">
<path d="M0.00292969 53.5272C0.00292969 54.4516 0.752098 55.2008 1.67655 55.2008H20.5404L19.522 56.2177C18.8678 56.8707 18.8668 57.9303 19.5209 58.585C19.8472 58.9129 20.2769 59.076 20.7051 59.076C21.1333 59.076 21.5615 58.9129 21.8877 58.5861L25.7693 54.7098C25.8083 54.6708 25.8442 54.6306 25.8791 54.5894C25.8875 54.5799 25.8939 54.5694 25.9018 54.5588C25.9276 54.525 25.953 54.4928 25.9767 54.4585C25.982 54.449 25.9878 54.4395 25.9931 54.43C26.0169 54.3925 26.0396 54.355 26.0612 54.3165C26.0639 54.3112 26.0665 54.3059 26.0691 54.3001C26.0918 54.2574 26.1135 54.2135 26.132 54.1692C26.132 54.1666 26.1346 54.1623 26.1362 54.1597C26.1547 54.1132 26.1737 54.0647 26.1885 54.0156C26.1885 54.0129 26.1885 54.0103 26.1895 54.0087C26.2043 53.9591 26.218 53.9084 26.227 53.8577C26.2286 53.8482 26.2296 53.8387 26.2312 53.8292C26.2391 53.7854 26.2471 53.74 26.2513 53.694C26.2566 53.6391 26.2592 53.5832 26.2592 53.5272C26.2592 53.5188 26.2592 53.5124 26.2592 53.5045C26.2592 53.4559 26.2566 53.4063 26.2523 53.3598C26.2486 53.3208 26.2418 53.2833 26.2349 53.2458C26.2323 53.23 26.2312 53.2141 26.2286 53.1978C26.2191 53.1524 26.2069 53.1069 26.1948 53.0626C26.1921 53.0547 26.1911 53.0468 26.1895 53.0399C26.1763 52.9945 26.1589 52.9491 26.1415 52.9047C26.1388 52.8979 26.1372 52.8926 26.1346 52.8863C26.1172 52.843 26.0961 52.8002 26.0744 52.759C26.0707 52.7522 26.0681 52.7442 26.0639 52.7374C26.0438 52.6988 26.0195 52.6614 25.9968 52.6249C25.9905 52.6159 25.9862 52.6064 25.9794 52.5969C25.954 52.5595 25.9276 52.5246 25.9007 52.4898C25.8939 52.4818 25.8886 52.4739 25.8817 52.466C25.8474 52.4232 25.8099 52.3815 25.7698 52.343L21.8893 48.4625C21.2346 47.8084 20.175 47.8084 19.522 48.4625C18.8678 49.1167 18.8678 50.1763 19.522 50.8293L20.5457 51.8531H1.67655C0.752098 51.8531 0.00292969 52.6022 0.00292969 53.5272Z" fill="#8C8C8C"/>
</g>
<mask id="mask3_237_1667" style="mask-type:luminance" maskUnits="userSpaceOnUse" x="47" y="0" width="13" height="21">
<path d="M47.8447 0.00268555H59.1979V20.0032H47.8447V0.00268555Z" fill="white"/>
</mask>
<g mask="url(#mask3_237_1667)">
<path d="M56.2223 13.2544L55.1986 14.2781V1.67899C55.1986 0.754539 54.4495 0.00537109 53.525 0.00537109C52.6 0.00537109 51.8509 0.754539 51.8509 1.67899V14.2781L50.8272 13.2544C50.173 12.6003 49.1134 12.6003 48.4603 13.2544C47.8062 13.9091 47.8062 14.9687 48.4603 15.6218L52.3408 19.5017C52.3809 19.5418 52.4221 19.5793 52.4649 19.6142C52.4823 19.6289 52.5024 19.6421 52.5198 19.6559C52.5451 19.6743 52.5694 19.6944 52.5963 19.7118C52.6201 19.7282 52.6444 19.7414 52.6687 19.7562C52.6914 19.7694 52.7125 19.7842 52.7368 19.7963C52.7621 19.8095 52.7874 19.8216 52.8144 19.8338C52.8381 19.8443 52.8608 19.8565 52.8851 19.867C52.9105 19.8781 52.9358 19.8861 52.9627 19.895C52.9881 19.9045 53.0134 19.914 53.0403 19.922C53.0657 19.9299 53.091 19.9357 53.1179 19.942C53.1449 19.9489 53.1713 19.9568 53.1998 19.9621C53.2288 19.9674 53.2584 19.9716 53.288 19.9758C53.3122 19.9795 53.336 19.9837 53.3613 19.9864C53.4162 19.9916 53.4712 19.9943 53.5261 19.9943C53.581 19.9943 53.6359 19.9916 53.6908 19.9864C53.7161 19.9837 53.7415 19.9784 53.7684 19.9758C53.7964 19.9716 53.8244 19.9689 53.8523 19.9621C53.8819 19.9568 53.9099 19.9489 53.9394 19.941C53.9637 19.9341 53.9875 19.9299 54.0118 19.922C54.0398 19.914 54.0677 19.9035 54.0963 19.8924C54.119 19.8845 54.1427 19.8765 54.1654 19.867C54.1923 19.8565 54.2177 19.8433 54.2446 19.8311C54.2673 19.8206 54.2916 19.8095 54.3143 19.7974C54.3396 19.7842 54.365 19.7683 54.3893 19.7535C54.4104 19.7398 54.4331 19.7282 54.4547 19.7134C54.4827 19.6944 54.5107 19.6733 54.5376 19.6516C54.5535 19.6395 54.5698 19.6289 54.5857 19.6157C54.63 19.5793 54.6712 19.5418 54.7118 19.5017L58.5918 15.6218C59.2465 14.9671 59.2465 13.9075 58.5918 13.2544C57.9387 12.6003 56.878 12.6003 56.225 13.2544H56.2223Z" fill="#8C8C8C"/>
</g>
<path fill-rule="evenodd" clip-rule="evenodd" d="M75.1605 33.8821C75.1309 38.1247 65.453 41.5622 53.5244 41.5622C41.5952 41.5622 31.9173 38.1247 31.8877 33.8821V46.9838C31.9173 51.2217 41.5889 54.6576 53.5244 54.6576C65.4593 54.6576 75.1309 51.2201 75.1605 46.9838V33.8821Z" fill="#C6587A"/>
<path fill-rule="evenodd" clip-rule="evenodd" d="M75.1605 60.1116C75.1241 64.3495 65.453 67.7801 53.5244 67.7801C41.5952 67.7801 31.9225 64.3495 31.8877 60.1116V73.2086C31.9241 77.4465 41.5952 80.8771 53.5244 80.8771C65.453 80.8771 75.1256 77.4465 75.1605 73.2086V60.1116Z" fill="#C6587A"/>
<path d="M41.3043 58.5793C40.0573 58.2652 38.8799 57.8893 37.8039 57.4622C37.1588 57.2067 36.4286 57.5224 36.1726 58.1675C35.917 58.8122 36.2333 59.5429 36.8779 59.7984C38.0542 60.2656 39.3371 60.6748 40.6903 61.0164C40.7932 61.0417 40.8962 61.0549 40.9975 61.0549C41.5598 61.0549 42.0709 60.6748 42.2155 60.1051C42.3855 59.432 41.9774 58.7493 41.3043 58.5793Z" fill="#E1EFFB"/>
<path d="M61.4794 59.4077C58.9838 59.773 56.3076 59.9578 53.5247 59.9578C51.5882 59.9578 49.7097 59.8707 47.9395 59.697C47.2463 59.6283 46.6349 60.1341 46.5668 60.8247C46.4981 61.5152 47.0039 62.1293 47.6945 62.1974C49.545 62.3785 51.5069 62.4708 53.5247 62.4708C56.4295 62.4708 59.2271 62.2766 61.8432 61.8938C62.5295 61.7935 63.0047 61.1552 62.9044 60.4688C62.804 59.7825 62.1684 59.3073 61.4794 59.4077Z" fill="#E1EFFB"/>
<path d="M47.6967 49.101C49.59 49.2857 51.5503 49.3792 53.5253 49.3792C56.3874 49.3792 59.185 49.1849 61.8412 48.8037C62.5275 48.705 63.0053 48.0677 62.9061 47.3814C62.8073 46.6951 62.169 46.2173 61.4837 46.3165C58.9453 46.6819 56.2681 46.8661 53.5264 46.8661C51.6332 46.8661 49.7531 46.7769 47.9417 46.6C47.2495 46.5346 46.6366 47.0377 46.5685 47.7283C46.5014 48.4183 47.0062 49.0328 47.6967 49.101Z" fill="#E1EFFB"/>
<path d="M36.8706 46.6992C38.0094 47.1564 39.294 47.5671 40.6883 47.9193C40.7912 47.9446 40.8942 47.9578 40.9961 47.9578C41.5578 47.9578 42.0694 47.5782 42.2135 47.008C42.3835 46.3349 41.9754 45.6528 41.3023 45.4828C40.0167 45.1586 38.842 44.7827 37.8072 44.3682C37.1637 44.1085 36.4319 44.4216 36.1737 45.0651C35.9156 45.7087 36.2271 46.4405 36.8706 46.6992Z" fill="#E1EFFB"/>
<path d="M61.4794 72.5632C58.9848 72.9285 56.3091 73.1133 53.5247 73.1133C51.5882 73.1133 49.7097 73.0262 47.9395 72.8525C47.2463 72.7828 46.6349 73.2902 46.5668 73.9802C46.4981 74.6708 47.0039 75.2848 47.6945 75.3534C49.545 75.534 51.5069 75.6264 53.5247 75.6264C56.4306 75.6264 59.2287 75.4321 61.8432 75.0493C62.5295 74.949 63.0047 74.3107 62.9044 73.6244C62.804 72.938 62.1631 72.4629 61.4794 72.5632Z" fill="#E1EFFB"/>
<path d="M41.3043 71.7351C40.0573 71.4204 38.8799 71.0445 37.8039 70.6174C37.1588 70.3619 36.4286 70.6781 36.1726 71.3227C35.917 71.9679 36.2333 72.6981 36.8779 72.9541C38.0553 73.4208 39.3371 73.8305 40.6903 74.1716C40.7932 74.1969 40.8962 74.2101 40.9975 74.2101C41.5598 74.2101 42.0709 73.8305 42.2155 73.2603C42.3855 72.5872 41.9774 71.9051 41.3043 71.7351Z" fill="#E1EFFB"/>
</g>
<defs>
<clipPath id="clip0_237_1667">
<rect width="107.145" height="107.145" fill="white"/>
</clipPath>
</defs>
</svg>
