<svg width="80" height="80" viewBox="0 0 80 80" fill="none" xmlns="http://www.w3.org/2000/svg">
<g clip-path="url(#clip0_237_1719)">
<path fill-rule="evenodd" clip-rule="evenodd" d="M19.2651 22.017H9.95732C8.39381 22.017 6.96435 21.1336 6.26548 19.7359L4.63857 16.481C4.47074 16.5018 4.30031 16.5127 4.12831 16.5127C1.8493 16.5127 0 14.6634 0 12.3844C0 10.1059 1.8493 8.25663 4.12831 8.25663C6.40681 8.25663 8.25663 10.1059 8.25663 12.3844C8.25663 13.4964 7.816 14.5065 7.09893 15.2496L8.72688 18.5039C8.95966 18.9705 9.43563 19.2651 9.95732 19.2651H19.2651V9.95732C19.2651 9.43563 18.9705 8.95966 18.5039 8.72688L15.2496 7.09893C14.5065 7.816 13.4964 8.25663 12.3844 8.25663C10.1059 8.25663 8.25663 6.40681 8.25663 4.12831C8.25663 1.8493 10.1059 0 12.3844 0C14.6634 0 16.5127 1.8493 16.5127 4.12831C16.5127 4.30031 16.5018 4.47074 16.481 4.63857L19.7359 6.26548C21.1336 6.96435 22.017 8.39381 22.017 9.95732V19.2651H31.6495V8.94459L29.8101 7.56399C29.1549 8.00202 28.3677 8.25663 27.5217 8.25663C25.2427 8.25663 23.3934 6.40681 23.3934 4.12831C23.3934 1.8493 25.2427 0 27.5217 0C29.8002 0 31.6495 1.8493 31.6495 4.12831C31.6495 4.55907 31.5836 4.9732 31.4614 5.36239L33.8517 7.15557C34.1982 7.4159 34.4019 7.82275 34.4019 8.25663V19.2651H45.4104V8.25663C45.4104 7.82275 45.6141 7.4159 45.9607 7.15557L48.3509 5.36239C48.2288 4.9732 48.1628 4.55907 48.1628 4.12831C48.1628 1.8493 50.0121 0 52.2906 0C54.5696 0 56.4189 1.8493 56.4189 4.12831C56.4189 6.40681 54.5696 8.25663 52.2906 8.25663C51.4447 8.25663 50.6575 8.00202 50.0022 7.56399C49.2015 8.1657 48.1628 8.94459 48.1628 8.94459V19.2651H57.7954V9.95732C57.7954 8.39381 58.6787 6.96435 60.0765 6.26548L63.3313 4.63857C63.3105 4.47074 63.2996 4.30031 63.2996 4.12831C63.2996 1.8493 65.1489 0 67.4279 0C69.7064 0 71.5557 1.8493 71.5557 4.12831C71.5557 6.40681 69.7064 8.25663 67.4279 8.25663C66.3159 8.25663 65.3058 7.816 64.5628 7.09893L61.3085 8.72688C60.8418 8.95966 60.5472 9.43563 60.5472 9.95732V19.2651H69.855C70.3767 19.2651 70.8527 18.9705 71.0855 18.5039L72.7134 15.2496C71.9963 14.5065 71.5557 13.4964 71.5557 12.3844C71.5557 10.1059 73.4055 8.25663 75.684 8.25663C77.963 8.25663 79.8123 10.1059 79.8123 12.3844C79.8123 14.6634 77.963 16.5127 75.684 16.5127C75.512 16.5127 75.3416 16.5018 75.1738 16.481L73.5469 19.7359C72.848 21.1336 71.4185 22.017 69.855 22.017H60.5472V31.6495H70.8677L72.2478 29.8101C71.8103 29.1549 71.5557 28.3677 71.5557 27.5212C71.5557 25.2427 73.4055 23.3934 75.684 23.3934C77.963 23.3934 79.8123 25.2427 79.8123 27.5212C79.8123 29.8002 77.963 31.6495 75.684 31.6495C75.2533 31.6495 74.8391 31.5836 74.45 31.4609L72.6568 33.8517C72.3964 34.1982 71.9896 34.4019 71.5557 34.4019H60.5472V45.4104H71.5557C71.9896 45.4104 72.3964 45.6141 72.6568 45.9607L74.45 48.3509C74.8391 48.2288 75.2533 48.1628 75.684 48.1628C77.963 48.1628 79.8123 50.0121 79.8123 52.2906C79.8123 54.5696 77.963 56.4189 75.684 56.4189C73.4055 56.4189 71.5557 54.5696 71.5557 52.2906C71.5557 51.4447 71.8103 50.6575 72.2478 50.0022L70.8677 48.1628H60.5472V57.7954H69.855C71.4185 57.7954 72.848 58.6787 73.5469 60.0765L75.1738 63.3308C75.3416 63.3105 75.512 63.2996 75.684 63.2996C77.963 63.2996 79.8123 65.1489 79.8123 67.4274C79.8123 69.7064 77.963 71.5557 75.684 71.5557C73.4055 71.5557 71.5557 69.7064 71.5557 67.4274C71.5557 66.3159 71.9963 65.3058 72.7134 64.5628L71.0855 61.3085C70.8527 60.8418 70.3767 60.5472 69.855 60.5472H60.5472V69.855C60.5472 70.3767 60.8418 70.8527 61.3085 71.0855L64.5628 72.7129C65.3058 71.9963 66.3159 71.5557 67.4279 71.5557C69.7064 71.5557 71.5557 73.4055 71.5557 75.684C71.5557 77.963 69.7064 79.8123 67.4279 79.8123C65.1489 79.8123 63.2996 77.963 63.2996 75.684C63.2996 75.512 63.3105 75.3416 63.3313 75.1738L60.0765 73.5469C58.6787 72.848 57.7954 71.418 57.7954 69.855V60.5472H48.1628V70.8677L50.0022 72.2478C50.6575 71.8103 51.4447 71.5557 52.2906 71.5557C54.5696 71.5557 56.4189 73.4055 56.4189 75.684C56.4189 77.963 54.5696 79.8123 52.2906 79.8123C50.0121 79.8123 48.1628 77.963 48.1628 75.684C48.1628 75.2533 48.2288 74.8391 48.3509 74.45L45.9607 72.6568C45.6141 72.3964 45.4104 71.9891 45.4104 71.5557V60.5472H34.4019V71.5557C34.4019 71.9891 34.1982 72.3964 33.8517 72.6568L31.4614 74.45C31.5836 74.8391 31.6495 75.2533 31.6495 75.684C31.6495 77.963 29.8002 79.8123 27.5217 79.8123C25.2427 79.8123 23.3934 77.963 23.3934 75.684C23.3934 73.4055 25.2427 71.5557 27.5217 71.5557C28.3677 71.5557 29.1549 71.8103 29.8101 72.2478C30.6108 71.6466 31.6495 70.8677 31.6495 70.8677V60.5472H22.017V69.855C22.017 71.418 21.1336 72.848 19.7359 73.5469L16.481 75.1738C16.5018 75.3416 16.5127 75.512 16.5127 75.684C16.5127 77.963 14.6634 79.8123 12.3844 79.8123C10.1059 79.8123 8.25663 77.963 8.25663 75.684C8.25663 73.4055 10.1059 71.5557 12.3844 71.5557C13.4964 71.5557 14.5065 71.9963 15.2496 72.7129L18.5039 71.0855C18.9705 70.8527 19.2651 70.3767 19.2651 69.855V60.5472H9.95732C9.43563 60.5472 8.95966 60.8418 8.72688 61.3085L7.09893 64.5628C7.816 65.3058 8.25663 66.3159 8.25663 67.4274C8.25663 69.7064 6.40681 71.5557 4.12831 71.5557C1.8493 71.5557 0 69.7064 0 67.4274C0 65.1489 1.8493 63.2996 4.12831 63.2996C4.30031 63.2996 4.47074 63.3105 4.63857 63.3308L6.26548 60.0765C6.96435 58.6787 8.39381 57.7954 9.95732 57.7954H19.2651V48.1628H8.94459L7.56451 50.0022C8.00202 50.6575 8.25663 51.4447 8.25663 52.2906C8.25663 54.5696 6.40681 56.4189 4.12831 56.4189C1.8493 56.4189 0 54.5696 0 52.2906C0 50.0121 1.8493 48.1628 4.12831 48.1628C4.55907 48.1628 4.9732 48.2288 5.36239 48.3509L7.15557 45.9607C7.4159 45.6141 7.82275 45.4104 8.25663 45.4104H19.2651V34.4019H8.25663C7.82275 34.4019 7.4159 34.1982 7.15557 33.8517L5.36239 31.4609C4.9732 31.5836 4.55907 31.6495 4.12831 31.6495C1.8493 31.6495 0 29.8002 0 27.5212C0 25.2427 1.8493 23.3934 4.12831 23.3934C6.40681 23.3934 8.25663 25.2427 8.25663 27.5212C8.25663 28.3677 8.00202 29.1549 7.56451 29.8101L8.94459 31.6495H19.2651V22.017ZM13.6164 4.74198C13.7084 4.55751 13.7609 4.34811 13.7609 4.12831C13.7609 3.36864 13.1441 2.75186 12.3844 2.75186C11.6253 2.75186 11.0085 3.36864 11.0085 4.12831C11.0085 4.88799 11.6253 5.50425 12.3844 5.50425C12.9227 5.50425 13.3894 5.19456 13.6164 4.74353C13.6164 4.74353 13.6164 4.74353 13.6164 4.74198ZM31.6495 22.017H22.017V31.6495H31.6495V22.017ZM28.6223 4.95398C28.7958 4.72275 28.8977 4.438 28.8977 4.12831C28.8977 3.36864 28.2809 2.75186 27.5217 2.75186C26.7621 2.75186 26.1453 3.36864 26.1453 4.12831C26.1453 4.88799 26.7621 5.50425 27.5217 5.50425C27.9717 5.50425 28.3708 5.28809 28.6223 4.95398ZM45.4104 22.017H34.4019V31.6495H45.4104V22.017ZM51.1901 4.95398C51.4415 5.28809 51.8406 5.50425 52.2906 5.50425C53.0503 5.50425 53.667 4.88799 53.667 4.12831C53.667 3.36864 53.0503 2.75186 52.2906 2.75186C51.5314 2.75186 50.9147 3.36864 50.9147 4.12831C50.9147 4.438 51.0181 4.72379 51.1901 4.95398ZM57.7954 22.017H48.1628V31.6495H57.7954V22.017ZM66.1959 4.74353C66.423 5.19456 66.8896 5.50425 67.4279 5.50425C68.1871 5.50425 68.8038 4.88799 68.8038 4.12831C68.8038 3.36864 68.1871 2.75186 67.4279 2.75186C66.6682 2.75186 66.0515 3.36864 66.0515 4.12831C66.0515 4.34811 66.1039 4.55751 66.1959 4.74198C66.1959 4.74353 66.1959 4.74353 66.1959 4.74353ZM57.7954 45.4104V34.4019H48.1628V45.4104H57.7954ZM57.7954 57.7954V48.1628H48.1628V57.7954H57.7954ZM66.1959 75.0704C66.1039 75.2548 66.0515 75.4637 66.0515 75.684C66.0515 76.4437 66.6682 77.06 67.4279 77.06C68.1871 77.06 68.8038 76.4437 68.8038 75.684C68.8038 74.9244 68.1871 74.3081 67.4279 74.3081C66.8896 74.3081 66.423 74.6178 66.1959 75.0688C66.1959 75.0688 66.1959 75.0688 66.1959 75.0704ZM51.1901 74.8584C51.0165 75.0896 50.9147 75.3743 50.9147 75.684C50.9147 76.4437 51.5314 77.06 52.2906 77.06C53.0503 77.06 53.667 76.4437 53.667 75.684C53.667 74.9244 53.0503 74.3081 52.2906 74.3081C51.8406 74.3081 51.4415 74.5243 51.1901 74.8584ZM34.4019 57.7954H45.4104V48.1628H34.4019V57.7954ZM28.6223 74.8584C28.3708 74.5243 27.9717 74.3081 27.5217 74.3081C26.7621 74.3081 26.1453 74.9244 26.1453 75.684C26.1453 76.4437 26.7621 77.06 27.5217 77.06C28.2809 77.06 28.8977 76.4437 28.8977 75.684C28.8977 75.3743 28.7958 75.0896 28.6223 74.8584ZM22.017 57.7954H31.6495V48.1628H22.017V57.7954ZM13.6164 75.0688C13.3894 74.6178 12.9227 74.3081 12.3844 74.3081C11.6253 74.3081 11.0085 74.9244 11.0085 75.684C11.0085 76.4437 11.6253 77.06 12.3844 77.06C13.1441 77.06 13.7609 76.4437 13.7609 75.684C13.7609 75.4637 13.7084 75.2548 13.6164 75.0704C13.6164 75.0688 13.6164 75.0688 13.6164 75.0688ZM22.017 34.4019V45.4104H31.6495V34.4019H22.017ZM45.4104 34.4019H34.4019V45.4104H45.4104V34.4019ZM4.74353 13.6164C5.19352 13.3904 5.50425 12.9227 5.50425 12.3844C5.50425 11.6253 4.88799 11.0085 4.12831 11.0085C3.36864 11.0085 2.75238 11.6253 2.75238 12.3844C2.75238 13.1441 3.36864 13.7609 4.12831 13.7609C4.34863 13.7609 4.55751 13.7084 4.74353 13.6164ZM74.8584 51.1901C74.5243 51.4415 74.3081 51.8406 74.3081 52.2906C74.3081 53.0503 74.9244 53.667 75.684 53.667C76.4437 53.667 77.06 53.0503 77.06 52.2906C77.06 51.5314 76.4437 50.9147 75.684 50.9147C75.3743 50.9147 75.088 51.0181 74.8584 51.1901ZM4.74353 66.1959C4.55751 66.1039 4.34863 66.0515 4.12831 66.0515C3.36864 66.0515 2.75238 66.6682 2.75238 67.4274C2.75238 68.1871 3.36864 68.8038 4.12831 68.8038C4.88799 68.8038 5.50425 68.1871 5.50425 67.4274C5.50425 66.8896 5.19352 66.422 4.74353 66.1959ZM4.95398 51.1901C4.72275 51.0165 4.438 50.9147 4.12831 50.9147C3.36864 50.9147 2.75238 51.5314 2.75238 52.2906C2.75238 53.0503 3.36864 53.667 4.12831 53.667C4.88799 53.667 5.50425 53.0503 5.50425 52.2906C5.50425 51.8406 5.28809 51.4415 4.95398 51.1901ZM4.95398 28.6223C5.28809 28.3703 5.50425 27.9712 5.50425 27.5212C5.50425 26.7621 4.88799 26.1453 4.12831 26.1453C3.36864 26.1453 2.75238 26.7621 2.75238 27.5212C2.75238 28.2809 3.36864 28.8977 4.12831 28.8977C4.438 28.8977 4.72431 28.7943 4.95398 28.6223ZM75.0688 13.6164C75.2548 13.7084 75.4637 13.7609 75.684 13.7609C76.4437 13.7609 77.06 13.1441 77.06 12.3844C77.06 11.6253 76.4437 11.0085 75.684 11.0085C74.9244 11.0085 74.3081 11.6253 74.3081 12.3844C74.3081 12.9227 74.6188 13.3904 75.0688 13.6164ZM74.8584 28.6223C75.0896 28.7958 75.3743 28.8977 75.684 28.8977C76.4437 28.8977 77.06 28.2809 77.06 27.5212C77.06 26.7621 76.4437 26.1453 75.684 26.1453C74.9244 26.1453 74.3081 26.7621 74.3081 27.5212C74.3081 27.9712 74.5243 28.3703 74.8584 28.6223ZM75.0688 66.1959C74.6188 66.422 74.3081 66.8896 74.3081 67.4274C74.3081 68.1871 74.9244 68.8038 75.684 68.8038C76.4437 68.8038 77.06 68.1871 77.06 67.4274C77.06 66.6682 76.4437 66.0515 75.684 66.0515C75.4637 66.0515 75.2548 66.1039 75.0688 66.1959Z" fill="#E9BECC"/>
<path fill-rule="evenodd" clip-rule="evenodd" d="M60.5491 16.5132C61.2792 16.5132 61.9786 16.8031 62.4956 17.3186C63.0116 17.8361 63.301 18.535 63.301 19.265V60.5477C63.301 61.2777 63.0116 61.9766 62.4956 62.4941C61.9786 63.0096 61.2792 63.2995 60.5491 63.2995H19.267C18.5365 63.2995 17.8376 63.0096 17.32 62.4941C16.8046 61.9766 16.5146 61.2777 16.5146 60.5477V19.265C16.5146 18.535 16.8046 17.8361 17.32 17.3186C17.8376 16.8031 18.5365 16.5132 19.267 16.5132H60.5491Z" fill="#B82E59"/>
<path fill-rule="evenodd" clip-rule="evenodd" d="M23.3935 28.8974C22.6338 28.8974 22.0176 28.2806 22.0176 27.521C22.0176 26.7618 22.6338 26.145 23.3935 26.145H56.419C57.1787 26.145 57.7949 26.7618 57.7949 27.521C57.7949 28.2806 57.1787 28.8974 56.419 28.8974H23.3935Z" fill="#F8EAEE"/>
<path fill-rule="evenodd" clip-rule="evenodd" d="M23.3935 41.2821C22.6338 41.2821 22.0176 40.6659 22.0176 39.9062C22.0176 39.1465 22.6338 38.5303 23.3935 38.5303H56.419C57.1787 38.5303 57.7949 39.1465 57.7949 39.9062C57.7949 40.6659 57.1787 41.2821 56.419 41.2821H23.3935Z" fill="#F8EAEE"/>
<path fill-rule="evenodd" clip-rule="evenodd" d="M56.42 50.9146C57.1796 50.9146 57.7954 51.5313 57.7954 52.2905C57.7954 53.0502 57.1796 53.6669 56.42 53.6669H23.394C22.6343 53.6669 22.0186 53.0502 22.0186 52.2905C22.0186 51.5313 22.6343 50.9146 23.394 50.9146H56.42Z" fill="#F8EAEE"/>
<path fill-rule="evenodd" clip-rule="evenodd" d="M45.4099 27.5213C45.4099 25.2429 47.2592 23.3936 49.5383 23.3936C51.8168 23.3936 53.6666 25.2429 53.6666 27.5213C53.6666 29.8004 51.8168 31.6497 49.5383 31.6497C47.2592 31.6497 45.4099 29.8004 45.4099 27.5213ZM37.1533 39.9063C37.1533 37.6273 39.0031 35.778 41.2816 35.778C43.5607 35.778 45.4099 37.6273 45.4099 39.9063C45.4099 42.1853 43.5607 44.0346 41.2816 44.0346C39.0031 44.0346 37.1533 42.1853 37.1533 39.9063ZM50.9142 52.2907C50.9142 54.5697 49.0649 56.419 46.7859 56.419C44.5074 56.419 42.6581 54.5697 42.6581 52.2907C42.6581 50.0122 44.5074 48.1629 46.7859 48.1629C49.0649 48.1629 50.9142 50.0122 50.9142 52.2907Z" fill="#4D1325"/>
</g>
<defs>
<clipPath id="clip0_237_1719">
<rect width="79.8123" height="79.8123" fill="white"/>
</clipPath>
</defs>
</svg>
