<svg width="90" height="91" viewBox="0 0 90 91" fill="none" xmlns="http://www.w3.org/2000/svg">
<g clip-path="url(#clip0_250_1816)">
<mask id="mask0_250_1816" style="mask-type:luminance" maskUnits="userSpaceOnUse" x="0" y="0" width="90" height="53">
<path d="M0.00195312 0.0219727H89.6533V52.7262H0.00195312V0.0219727Z" fill="white"/>
</mask>
<g mask="url(#mask0_250_1816)">
<path fill-rule="evenodd" clip-rule="evenodd" d="M78.0487 52.6562H11.6603C5.2491 52.6562 0.00390625 47.4511 0.00390625 41.0244C0.00390625 35.1291 4.45453 30.1895 10.1766 29.4993C9.75267 28.2777 9.5409 27.003 9.5409 25.6752C9.5409 19.4609 14.5214 14.3093 20.6675 14.097C20.7204 6.34246 26.9724 0.0219727 34.761 0.0219727C40.536 0.0219727 45.6758 3.58065 47.7948 8.89189C49.6495 7.72337 51.7689 7.08579 53.9409 7.08579C58.9213 7.08579 63.319 10.3259 64.9086 14.9465C66.3393 14.3624 67.8755 14.0434 69.4122 14.0434C75.7705 14.0434 81.0156 19.3016 81.0156 25.6752C81.0156 27.0561 80.7505 28.3839 80.327 29.6055C85.678 30.6678 89.6518 35.3946 89.6518 41.0244C89.6518 47.4511 84.4595 52.6562 78.0487 52.6562Z" fill="#CF7390"/>
</g>
<mask id="mask1_250_1816" style="mask-type:luminance" maskUnits="userSpaceOnUse" x="15" y="28" width="59" height="63">
<path d="M15.8311 28.9954H73.9322V90.684H15.8311V28.9954Z" fill="white"/>
</mask>
<g mask="url(#mask1_250_1816)">
<path fill-rule="evenodd" clip-rule="evenodd" d="M49.3314 90.6841H40.3772C39.7414 90.6841 39.2645 90.2593 39.1586 89.6217L37.569 79.6368C35.3437 78.7873 33.2772 77.6188 31.423 76.0786L21.9389 79.6899C21.409 79.9023 20.7733 79.6899 20.4552 79.159L16.0046 71.3514C15.6869 70.8735 15.8458 70.1828 16.2697 69.8112L24.1113 63.4376C23.9525 62.2695 23.8461 61.0479 23.8461 59.8794C23.8461 58.6577 23.9525 57.4892 24.1113 56.3207L16.2697 49.8944C15.8458 49.5223 15.6869 48.8852 16.0046 48.3538L20.4552 40.5998C20.7733 40.0684 21.409 39.856 21.9389 40.0684L31.423 43.6801C33.2772 42.14 35.3437 40.9183 37.569 40.1215L39.1586 30.0835C39.2645 29.4994 39.7414 29.0742 40.3772 29.0742H49.3314C49.9142 29.0742 50.444 29.4994 50.5499 30.0835L52.1395 40.1215C54.3648 40.9183 56.4313 42.14 58.2856 43.6801L67.7167 40.0684C68.2995 39.856 68.9352 40.0684 69.2004 40.5998L73.7039 48.3538C73.9686 48.8852 73.8627 49.5223 73.3858 49.8944L65.5443 56.3207C65.7565 57.4892 65.8624 58.7108 65.8624 59.8794C65.8624 61.0479 65.7565 62.2695 65.5443 63.4376L73.3858 69.8112C73.8627 70.1828 73.9686 70.8735 73.7039 71.3514L69.2004 79.159C68.9352 79.6899 68.2995 79.9023 67.7167 79.6899L58.2856 76.0786C56.4313 77.6188 54.3648 78.7873 52.1395 79.6368L50.5499 89.6217C50.444 90.2593 49.9142 90.6841 49.3314 90.6841Z" fill="#3B566A"/>
</g>
<path fill-rule="evenodd" clip-rule="evenodd" d="M44.8275 77.884C34.9195 77.884 26.8662 69.811 26.8662 59.8791C26.8662 49.9473 34.9195 41.8743 44.8275 41.8743C54.7356 41.8743 62.8418 49.9473 62.8418 59.8791C62.8418 69.811 54.7356 77.884 44.8275 77.884Z" fill="#2B3E4D"/>
<path fill-rule="evenodd" clip-rule="evenodd" d="M44.8273 72.8913C37.6745 72.8913 31.8994 67.0491 31.8994 59.8791C31.8994 52.7091 37.6745 46.8665 44.8273 46.8665C51.9802 46.8665 57.8082 52.7091 57.8082 59.8791C57.8082 67.0491 51.9802 72.8913 44.8273 72.8913Z" fill="white"/>
<path fill-rule="evenodd" clip-rule="evenodd" d="M35.8204 64.9249C35.7145 64.9249 35.5553 64.9249 35.4494 64.8714C34.8666 64.659 34.6019 64.0219 34.8136 63.4374L37.8869 55.4709C38.0457 55.0988 38.4697 54.7803 38.8932 54.7803C39.3172 54.7803 39.7412 55.0457 39.9 55.4709L43.0792 63.4374C43.3439 64.0219 43.0792 64.659 42.4964 64.8714C41.9136 65.0842 41.3308 64.8183 41.0656 64.2342L38.9466 58.8699L36.8801 64.2342C36.6679 64.659 36.2973 64.9249 35.8204 64.9249Z" fill="#B82E59"/>
<path fill-rule="evenodd" clip-rule="evenodd" d="M41.2243 62.8532H36.6673C36.0845 62.8532 35.5547 62.3222 35.5547 61.7377C35.5547 61.1537 36.0845 60.6223 36.6673 60.6223H41.2243C41.86 60.6223 42.3369 61.1537 42.3369 61.7377C42.3369 62.3222 41.86 62.8532 41.2243 62.8532Z" fill="#B82E59"/>
<path fill-rule="evenodd" clip-rule="evenodd" d="M45.5167 64.9249C44.9339 64.9249 44.457 64.4466 44.457 63.8626V55.8957C44.457 55.3117 44.9339 54.7803 45.5167 54.7803H47.9013C49.7556 54.7803 51.2922 56.3205 51.2922 58.2328C51.2922 60.1446 49.7556 61.6848 47.9013 61.6848H46.6294V63.8626C46.6294 64.4466 46.1525 64.9249 45.5167 64.9249ZM46.6294 59.5075H47.9013C48.59 59.5075 49.1199 58.923 49.1199 58.2328C49.1199 57.5421 48.59 56.958 47.9013 56.958H46.6294V59.5075Z" fill="#B82E59"/>
<path fill-rule="evenodd" clip-rule="evenodd" d="M53.8341 64.7119C53.2513 64.7119 52.7744 64.234 52.7744 63.65V56.1079C52.7744 55.4707 53.2513 54.9924 53.8341 54.9924C54.4699 54.9924 54.9468 55.4707 54.9468 56.1079V63.65C54.9468 64.234 54.4699 64.7119 53.8341 64.7119Z" fill="#B82E59"/>
</g>
<defs>
<clipPath id="clip0_250_1816">
<rect width="89.7815" height="90.615" fill="white"/>
</clipPath>
</defs>
</svg>
