<svg width="108" height="109" viewBox="0 0 108 109" fill="none" xmlns="http://www.w3.org/2000/svg">
<g clip-path="url(#clip0_251_1833)">
<mask id="mask0_251_1833" style="mask-type:luminance" maskUnits="userSpaceOnUse" x="0" y="5" width="108" height="99">
<path d="M0 5.14404H107.115V103.095H0V5.14404Z" fill="white"/>
</mask>
<g mask="url(#mask0_251_1833)">
<path fill-rule="evenodd" clip-rule="evenodd" d="M59.8332 5.2207C78.2517 7.60416 94.5575 20.3206 100.572 39.1528L104.849 37.7893C105.488 37.5855 106.188 37.7808 106.629 38.2863C107.07 38.7923 107.168 39.5111 106.878 40.1162L100.905 52.5887C100.648 53.1264 100.18 53.5339 99.6116 53.715C99.0434 53.8962 98.4253 53.835 97.9041 53.5458L85.8043 46.8347C85.2174 46.5086 84.8803 45.8662 84.9471 45.1989C85.0134 44.531 85.4701 43.9673 86.1097 43.7635L90.3866 42.4C85.827 28.1247 73.7204 18.3357 59.8695 16.0241V6.05896C59.8695 5.77652 59.8576 5.49748 59.8332 5.2207ZM47.2621 103.072C28.8397 100.692 12.5289 87.9743 6.51383 69.1387L2.23696 70.5023C1.59733 70.706 0.897646 70.5107 0.456873 70.0053C0.0160995 69.4993 -0.0819131 68.7805 0.207592 68.1754L6.18013 55.7029C6.43791 55.1652 6.90588 54.7576 7.47412 54.5765C8.04237 54.3954 8.66047 54.4565 9.18169 54.7457L21.2809 61.4575C21.8678 61.7829 22.2049 62.4259 22.1386 63.0927C22.0723 63.7605 21.6151 64.3243 20.9755 64.528L16.6992 65.8916C21.2593 80.1702 33.3704 89.9604 47.2253 92.2692V102.234C47.2253 102.516 47.2378 102.796 47.2621 103.072Z" fill="#DE9FB3"/>
</g>
<mask id="mask1_251_1833" style="mask-type:luminance" maskUnits="userSpaceOnUse" x="0" y="0" width="107" height="109">
<path d="M0.436523 0.0808105H106.603V108.211H0.436523V0.0808105Z" fill="white"/>
</mask>
<g mask="url(#mask1_251_1833)">
<path fill-rule="evenodd" clip-rule="evenodd" d="M0.500977 36.0036V6.05898C0.500977 2.76708 3.18924 0.0808105 6.48428 0.0808105H50.2783C53.5734 0.0808105 56.2616 2.76708 56.2616 6.05898V36.0036C56.2616 39.2955 53.5734 41.9727 50.2783 41.9727H45.2185V52.467C45.2185 52.7427 45.0508 52.9906 44.7947 53.0936C44.5387 53.1966 44.2458 53.1338 44.0543 52.9351L33.5142 41.9727H6.48428C3.18924 41.9727 0.500977 39.2955 0.500977 36.0036ZM28.3813 24.1327C29.6107 24.1327 30.6203 23.1626 30.6645 21.9343L31.2401 7.95227C31.2645 7.30872 31.0497 6.74837 30.601 6.28538C30.1569 5.82239 29.6011 5.58862 28.9569 5.58862H27.8057C27.1621 5.58862 26.6109 5.82239 26.1621 6.28538C25.718 6.74837 25.5038 7.30872 25.5231 7.95227L26.1038 21.9343C26.1474 23.1626 27.1525 24.1327 28.3813 24.1327ZM28.3813 35.1608C29.9914 35.1608 31.3036 33.8499 31.3036 32.2419C31.3036 30.6333 29.9914 29.3224 28.3813 29.3224C26.7718 29.3224 25.4596 30.6333 25.4596 32.2419C25.4596 33.8499 26.7718 35.1608 28.3813 35.1608ZM106.584 72.2943V102.234C106.584 105.525 103.896 108.211 100.602 108.211H56.8152C53.5213 108.211 50.833 105.525 50.833 102.234V72.2943C50.833 69.0029 53.5213 66.3263 56.8152 66.3263H61.8744V55.8342C61.8744 55.558 62.0421 55.3101 62.2982 55.2071C62.5548 55.1041 62.8472 55.1669 63.0387 55.3661L73.577 66.3263H100.602C103.896 66.3263 106.584 69.0029 106.584 72.2943ZM62.4903 98.4477H94.4021C95.3976 98.4477 96.206 97.64 96.206 96.6456C96.206 95.6511 95.3976 94.8434 94.4021 94.8434H62.4903C61.4943 94.8434 60.6864 95.6511 60.6864 96.6456C60.6864 97.64 61.4943 98.4477 62.4903 98.4477ZM62.4903 79.4854H94.4021C95.3976 79.4854 96.206 78.6782 96.206 77.6832C96.206 76.6887 95.3976 75.881 94.4021 75.881H62.4903C61.4943 75.881 60.6864 76.6887 60.6864 77.6832C60.6864 78.6782 61.4943 79.4854 62.4903 79.4854ZM62.4903 88.962H94.4021C95.3976 88.962 96.206 88.1549 96.206 87.1599C96.206 86.1654 95.3976 85.3577 94.4021 85.3577H62.4903C61.4943 85.3577 60.6864 86.1654 60.6864 87.1599C60.6864 88.1549 61.4943 88.962 62.4903 88.962Z" fill="#B82E59"/>
</g>
</g>
<defs>
<clipPath id="clip0_251_1833">
<rect width="107.094" height="108.29" fill="white"/>
</clipPath>
</defs>
</svg>
