<svg width="124" height="127" viewBox="0 0 124 127" fill="none" xmlns="http://www.w3.org/2000/svg">
<g filter="url(#filter0_d_252_1866)">
<g clip-path="url(#clip0_252_1866)">
<mask id="mask0_252_1866" style="mask-type:luminance" maskUnits="userSpaceOnUse" x="3" y="2" width="117" height="121">
<path d="M3.98047 2.98926H119.744V122.04H3.98047V2.98926Z" fill="white"/>
</mask>
<g mask="url(#mask0_252_1866)">
<path d="M84.4103 97.4212C83.9894 96.6841 84.2358 95.7407 84.9698 95.3181C85.7039 94.8878 86.6433 95.1428 87.0724 95.8799L90.8559 102.454C94.7982 101.51 98.6127 104.513 98.6127 108.604C98.6127 114.206 91.8237 117.041 87.8656 113.067C85.3113 110.496 85.4266 106.303 88.1271 103.886L84.4103 97.4212ZM60.326 102.051C60.326 101.196 61.009 100.511 61.8609 100.511C62.7134 100.511 63.4039 101.196 63.4039 102.051V108.39C68.6423 109.596 70.5854 116.17 66.7357 120.028C62.4053 124.38 54.9692 121.277 54.9692 115.142C54.9692 111.885 57.233 109.102 60.3235 108.393V102.051H60.326ZM63.4039 20.878C63.4039 21.7335 62.7134 22.4269 61.8609 22.4269C61.009 22.4269 60.326 21.7335 60.326 20.878V16.6699C55.087 15.464 53.1439 8.89075 56.9943 5.03313C61.3247 0.68073 68.7532 3.78353 68.7532 9.9189C68.7532 13.1761 66.4969 15.9587 63.4064 16.6674V20.878H63.4039ZM36.3445 96.4209C36.7653 95.6844 37.7048 95.4338 38.4388 95.859C39.1728 96.2899 39.4274 97.2326 38.9983 97.9697L35.5922 103.886C39.8993 107.744 37.1629 114.915 31.4085 114.915C25.8205 114.915 23.0047 108.107 26.9628 104.134C28.4825 102.608 30.7104 101.943 32.8715 102.454L36.3445 96.4209ZM36.8832 28.6939C37.4868 29.2994 37.4868 30.2788 36.8832 30.8843C36.2878 31.4822 35.3124 31.4822 34.7069 30.8843L28.4283 24.5813C24.2673 27.2171 18.7795 24.2232 18.7795 19.2419C18.7795 13.6323 25.5691 10.7977 29.5189 14.7711C31.5137 16.773 31.9422 19.8708 30.551 22.339L36.8832 28.6939ZM22.3759 49.298C23.1969 49.5176 23.6845 50.3648 23.459 51.1898C23.241 52.0142 22.396 52.504 21.5826 52.285L9.85458 49.1285C9.17221 48.945 8.7129 48.3167 8.7129 47.6391V36.4034C4.20288 35.0222 2.72412 29.2734 6.09938 25.8929C10.0499 21.9195 16.8389 24.7458 16.8389 30.356C16.8389 33.3861 14.6935 35.9656 11.7901 36.5509V46.4559L22.3759 49.298ZM23.3563 76.8601C24.1779 76.6336 25.0222 77.1233 25.2402 77.9477C25.4582 78.7721 24.9705 79.6199 24.1495 79.8389L12.9583 82.8486L12.4265 88.2475C16.7336 89.8116 18.0221 95.3775 14.747 98.6632C10.789 102.629 4 99.8021 4 94.1918C4 91.0435 6.31234 88.3994 9.36943 87.9457L10.0039 81.5756C10.0241 80.9113 10.4683 80.3184 11.138 80.1381L23.3563 76.8601ZM89.3078 30.5926C88.7124 31.1988 87.7371 31.1988 87.1316 30.5926C86.528 29.9954 86.528 29.0159 87.1316 28.4079L93.179 22.3364C90.8276 18.165 93.8254 12.9211 98.6561 12.9211C104.244 12.9211 107.06 19.729 103.109 23.7024C101.028 25.7847 97.7911 26.1555 95.3017 24.5788L89.3078 30.5926ZM102.019 52.3236C101.197 52.5426 100.353 52.0528 100.135 51.2284C99.9169 50.404 100.405 49.5562 101.226 49.3366L111.937 46.4584V36.5534C107.062 35.5664 105.179 29.4671 108.736 25.8954C112.694 21.922 119.475 24.7483 119.475 30.3585C119.475 33.1773 117.635 35.6024 115.022 36.406V47.6416C115.022 48.3218 114.563 48.9475 113.88 49.131L102.019 52.3236ZM98.4533 79.5402C97.6323 79.3131 97.1446 78.4735 97.3626 77.6484C97.5806 76.824 98.4255 76.3343 99.2465 76.5538L112.584 80.1407C113.254 80.3235 113.705 80.9138 113.726 81.5782L114.36 87.9483C119.432 88.693 121.55 94.9834 117.882 98.6632C113.931 102.629 107.142 99.8021 107.142 94.1918C107.142 91.4889 108.844 89.1365 111.303 88.2475L110.764 82.8486L98.4533 79.5402ZM41.2136 32.7755C43.87 34.6027 45.7387 37.3981 46.4009 40.5755C46.5755 41.4082 46.0443 42.2275 45.2152 42.3952C44.3784 42.5698 43.5701 42.0364 43.3955 41.2044C43.1107 39.8669 42.5506 38.6249 41.7655 37.5455C41.0441 36.5584 40.1356 35.7132 39.0726 35.0615C37.1736 34.9887 35.3099 35.4038 33.6597 36.2231C28.2821 38.8824 25.9181 45.3094 28.2613 50.8393C29.0036 51.0222 29.8044 51.3442 30.4666 51.7308C31.3978 52.2718 32.227 52.988 32.9049 53.8491C33.4285 54.5217 33.3132 55.4929 32.6428 56.0187C31.9806 56.5444 31.0128 56.4286 30.4893 55.7561C30.0532 55.2069 29.5215 54.7482 28.9261 54.3977C28.4976 54.1503 28.0251 53.9598 27.5298 53.8358C22.1881 57.6498 21.1284 64.857 24.4885 70.1116C25.8923 72.3096 28.061 74.0926 30.9284 74.9765C31.7935 75.036 32.6611 74.9404 33.4903 74.6981C34.3629 74.4507 35.1839 74.0331 35.9211 73.4795C36.5984 72.9613 37.5586 73.0929 38.0746 73.7655C38.59 74.4456 38.4596 75.4175 37.7842 75.9275C35.8927 77.3808 33.5848 78.1331 31.2132 78.0736C27.1682 82.2666 28.9009 89.3295 34.4656 91.1283C36.175 91.6768 38.0664 91.6465 39.8275 90.9378C40.862 90.3677 41.7473 89.587 42.4479 88.6594C43.1542 87.7085 43.662 86.6006 43.9116 85.4105C44.0861 84.5778 44.902 84.0445 45.7312 84.2197C46.5604 84.3874 47.0915 85.2067 46.9245 86.0388C46.314 88.9612 44.5687 91.525 42.102 93.1612C42.9665 99.2377 49.2167 103.271 55.0536 100.598C58.3571 99.0858 60.3361 95.9957 60.3361 92.3443V76.9037H55.9061V81.2947C55.9061 82.1508 55.2231 82.836 54.3713 82.836C53.5188 82.836 52.8283 82.1508 52.8283 81.2947V76.9037H49.1115C48.2596 76.9037 47.5691 76.2109 47.5691 75.3555V71.6212H43.1952C42.3427 71.6212 41.6528 70.9284 41.6528 70.073C41.6528 69.2176 42.3427 68.5317 43.1952 68.5317H47.5691V64.0844H38.2334C37.3815 64.0844 36.691 63.391 36.691 62.5431C36.691 61.6877 37.3815 60.9943 38.2334 60.9943H47.5691V56.547H43.1952C42.3427 56.547 41.6528 55.8617 41.6528 55.0057C41.6528 54.1503 42.3427 53.4575 43.1952 53.4575H47.5691V49.7232C47.5691 48.8678 48.2596 48.175 49.1115 48.175H52.8182V43.784C52.8182 42.9286 53.5087 42.2427 54.3606 42.2427C55.2131 42.2427 55.896 42.9286 55.896 43.784V48.175H60.326V31.1032C60.326 27.3051 57.5771 24.1871 53.8061 23.7176C47.9131 22.9812 42.4202 26.9413 41.2136 32.7755ZM84.6491 35.064C82.4363 36.4218 80.8656 38.6508 80.3344 41.207C80.1599 42.039 79.3433 42.573 78.5148 42.3977C77.6856 42.23 77.1539 41.4107 77.3284 40.578C77.9906 37.4012 79.8594 34.6027 82.5082 32.778C81.3073 26.9261 75.8068 22.9837 69.8848 23.7202C66.1453 24.1871 63.4241 27.2766 63.4014 31.0982V48.1693H67.8238V43.7789C67.8238 42.9229 68.5144 42.2376 69.3662 42.2376C70.2187 42.2376 70.9093 42.9229 70.9093 43.7789V48.1693H74.6285C75.4804 48.1693 76.171 48.8627 76.171 49.7181V53.4524H80.5449C81.3974 53.4524 82.0797 54.1452 82.0797 55.0006C82.0797 55.856 81.3974 56.5419 80.5449 56.5419H76.171V60.9892H85.5066C86.3585 60.9892 87.049 61.6827 87.049 62.5381C87.049 63.3859 86.3585 64.0794 85.5066 64.0794H76.171V68.5267H80.5449C81.3974 68.5267 82.0797 69.2119 82.0797 70.0679C82.0797 70.9234 81.3974 71.6162 80.5449 71.6162H76.171V75.3504C76.171 76.2058 75.4804 76.8987 74.6285 76.8987H70.9143V81.2896C70.9143 82.1451 70.2238 82.8309 69.3713 82.8309C68.5194 82.8309 67.8289 82.1451 67.8289 81.2896V76.8987H63.4064V92.3393C63.4575 99.7609 71.4379 103.719 77.2465 100.016C79.6262 98.5031 81.2405 95.9982 81.6406 93.1561C79.1745 91.5199 77.4286 88.9562 76.818 86.0337C76.6435 85.2017 77.1822 84.3823 78.0114 84.2147C78.8405 84.0394 79.6565 84.5728 79.831 85.4048C80.0774 86.5955 80.5808 87.7059 81.2947 88.6544C81.9846 89.5819 82.8805 90.3627 83.9126 90.9321C85.6736 91.6408 87.5651 91.6692 89.2669 91.1232C94.8342 89.3269 96.5719 82.264 92.5268 78.0685C90.1471 78.128 87.8473 77.3757 85.9559 75.9224C85.2779 75.4118 85.1469 74.4406 85.6654 73.7604C86.1814 73.0879 87.1417 72.9563 87.819 73.4744C88.5455 74.0281 89.3771 74.4456 90.2498 74.693C91.079 74.9354 91.944 75.0284 92.8116 74.9714C95.6709 74.0875 97.8478 72.3046 99.2515 70.1065C102.607 64.8544 101.552 57.6371 96.2102 53.8307C95.715 53.9548 95.2424 54.1452 94.814 54.3926C94.2186 54.7431 93.6868 55.2044 93.2508 55.7504C92.7272 56.423 91.7594 56.5394 91.089 56.0136C90.4268 55.4878 90.3115 54.5166 90.8351 53.844C91.5131 52.9829 92.3422 52.2667 93.2735 51.7257C93.9357 51.3391 94.7289 51.0171 95.4787 50.8342C98.6996 43.2063 92.9169 34.7571 84.6491 35.064ZM55.8368 54.9393H67.8931C68.745 54.9393 69.428 55.6245 69.428 56.4799V68.5836C69.428 69.439 68.745 70.1243 67.8931 70.1243H55.8368C54.9843 70.1243 54.2938 69.439 54.2938 68.5836V56.4799C54.2938 55.6245 54.9869 54.9393 55.8368 54.9393ZM66.3501 58.0288H57.3792V67.0347H66.3501V58.0288ZM73.088 51.2645H50.6413V73.799H73.088V51.2645Z" fill="white"/>
</g>
</g>
</g>
<defs>
<filter id="filter0_d_252_1866" x="-0.107422" y="-0.0214844" width="124.135" height="126.923" filterUnits="userSpaceOnUse" color-interpolation-filters="sRGB">
<feFlood flood-opacity="0" result="BackgroundImageFix"/>
<feColorMatrix in="SourceAlpha" type="matrix" values="0 0 0 0 0 0 0 0 0 0 0 0 0 0 0 0 0 0 127 0" result="hardAlpha"/>
<feOffset dy="1"/>
<feGaussianBlur stdDeviation="2"/>
<feComposite in2="hardAlpha" operator="out"/>
<feColorMatrix type="matrix" values="0 0 0 0 0 0 0 0 0 0 0 0 0 0 0 0 0 0 0.25 0"/>
<feBlend mode="normal" in2="BackgroundImageFix" result="effect1_dropShadow_252_1866"/>
<feBlend mode="normal" in="SourceGraphic" in2="effect1_dropShadow_252_1866" result="shape"/>
</filter>
<clipPath id="clip0_252_1866">
<rect width="116.135" height="118.923" fill="white" transform="translate(3.89258 2.97852)"/>
</clipPath>
</defs>
</svg>
