<svg width="285" height="288" viewBox="0 0 285 288" fill="none" xmlns="http://www.w3.org/2000/svg">
<g clip-path="url(#clip0_94_4890)">
<path fill-rule="evenodd" clip-rule="evenodd" d="M63.8761 111.917H53.0888C51.4029 111.917 50.0561 110.737 49.8865 109.05L49.2131 105.171L44.8304 85.6039C44.4929 84.0863 43.9874 83.4108 42.4711 83.073L18.8746 79.1941C17.0207 78.8563 15.8419 77.169 16.1794 75.3136C16.5153 73.4582 18.2012 72.2784 20.0551 72.6162L43.6515 76.4951C43.6515 76.4951 43.6515 76.4951 43.8195 76.4951C47.8647 77.3387 50.5615 80.0378 51.4029 84.0863L55.9536 103.822V103.99L56.1231 105.001H63.8761C65.73 105.001 67.2464 106.521 67.2464 108.376C67.2464 110.231 65.73 111.917 63.8761 111.917Z" fill="#B82E59"/>
<path fill-rule="evenodd" clip-rule="evenodd" d="M63.8761 196.932H53.0888C51.4029 196.932 50.0561 195.583 49.8865 193.895L49.2131 190.184L44.8304 170.617C44.8304 170.449 44.8304 170.449 44.8304 170.449C44.4929 168.932 43.9874 168.426 42.4711 168.088L18.8746 164.039C17.0207 163.871 15.8419 162.016 16.1794 160.16C16.5153 158.303 18.2012 157.124 20.0551 157.461L43.6515 161.34C43.6515 161.34 43.6515 161.34 43.8195 161.34C47.8647 162.184 50.5615 164.883 51.4029 169.1L55.9536 188.667C55.9536 188.835 55.9536 188.835 55.9536 189.003L56.1231 190.016H63.8761C65.73 190.016 67.2464 191.534 67.2464 193.389C67.2464 195.245 65.73 196.932 63.8761 196.932Z" fill="#B82E59"/>
<path fill-rule="evenodd" clip-rule="evenodd" d="M178.483 68.0618C176.629 68.0618 175.113 66.5425 175.113 64.6872V52.8793C175.113 51.1936 176.292 49.844 177.978 49.5063L182.359 49.0004L201.742 44.6141C202.585 44.2779 203.427 43.2661 203.764 42.0847L208.315 18.4689C208.652 16.6135 210.506 15.4337 212.192 15.7715C214.046 16.1077 215.225 17.963 214.887 19.8184L210.506 43.4342C210.506 43.4342 210.506 43.4342 210.337 43.6023C209.495 47.3131 206.798 50.1818 203.427 51.0239L183.707 55.5783C183.539 55.5783 183.539 55.5783 183.371 55.5783L181.854 55.748V64.6872C181.854 66.5425 180.337 68.0618 178.483 68.0618Z" fill="#B82E59"/>
<path fill-rule="evenodd" clip-rule="evenodd" d="M93.538 66.3745C91.6841 66.3745 90.1677 64.8568 90.1677 63.0015V52.8793C90.1677 51.1936 91.5161 49.844 93.2021 49.5063L97.5832 49.0004L116.966 44.6141C117.808 44.2779 118.651 43.2661 118.988 42.0847L123.539 18.4689C123.876 16.6135 125.561 15.4337 127.415 15.7715C129.269 16.1077 130.449 17.963 130.111 19.8184L125.561 43.4342C125.561 43.4342 125.561 43.4342 125.561 43.6023C124.55 47.3131 121.853 50.1818 118.651 51.0239H118.483L98.9316 55.5783C98.7637 55.5783 98.5941 55.5783 98.5941 55.5783L97.0777 55.748V63.0015C96.9098 64.8568 95.3934 66.3745 93.538 66.3745Z" fill="#B82E59"/>
<path fill-rule="evenodd" clip-rule="evenodd" d="M265.45 217.173C265.281 217.173 265.113 217.173 264.945 217.005L241.349 212.619C237.303 211.775 234.438 209.246 233.596 205.535L229.045 185.292C229.045 185.124 229.045 185.124 229.045 184.956L228.877 183.943H221.124C219.27 183.943 217.754 182.425 217.754 180.57C217.754 178.714 219.27 177.197 221.124 177.197H231.742C233.428 177.197 234.944 178.377 235.113 180.064L235.619 183.943L240.17 204.016C240.338 204.691 240.675 205.703 242.529 206.041L266.124 210.426C267.978 210.763 269.158 212.619 268.821 214.474C268.483 215.992 267.135 217.173 265.45 217.173Z" fill="#B82E59"/>
<path fill-rule="evenodd" clip-rule="evenodd" d="M265.45 131.653C265.281 131.653 265.113 131.653 264.945 131.653L241.349 127.606C241.349 127.606 241.349 127.606 241.181 127.606C237.135 126.762 234.438 124.063 233.596 120.014L229.045 100.447C229.045 100.279 229.045 100.279 229.045 100.111L228.877 99.0976H221.124C219.27 99.0976 217.754 97.58 217.754 95.7246C217.754 93.8692 219.27 92.3516 221.124 92.3516H231.742C233.428 92.3516 234.944 93.5314 235.113 95.2187L235.619 99.0976L240.17 118.665C240.17 118.665 240.17 118.665 240.17 118.833C240.338 120.182 241.011 120.858 242.529 121.196L265.956 125.075C267.81 125.412 269.158 127.098 268.821 128.953C268.483 130.473 267.135 131.653 265.45 131.653Z" fill="#B82E59"/>
<path fill-rule="evenodd" clip-rule="evenodd" d="M73.9885 272.163C73.8189 272.163 73.483 272.163 73.3135 272.163C71.4596 271.825 70.2807 270.138 70.6166 268.282L74.4939 244.668C74.4939 244.5 74.6619 244.5 74.6619 244.33C75.5048 240.451 78.5392 237.583 82.2469 236.909L101.797 232.354C101.966 232.354 101.966 232.354 102.134 232.354L103.145 232.186V224.933C103.145 223.077 104.663 221.558 106.517 221.558C108.371 221.558 109.887 223.077 109.887 224.933V235.053C109.887 236.741 108.708 238.258 107.022 238.426L103.145 238.932L83.5953 243.487C83.5953 243.487 83.5953 243.487 83.4258 243.487C81.9094 243.824 81.236 245.342 81.0664 245.848L77.1908 269.296C77.0212 270.981 75.5048 272.163 73.9885 272.163Z" fill="#B82E59"/>
<path fill-rule="evenodd" clip-rule="evenodd" d="M158.764 272.163C158.595 272.163 158.259 272.163 158.089 272.163C156.235 271.825 155.056 269.97 155.394 268.282L159.943 244.836C160.113 240.957 163.483 237.752 166.855 236.909H167.023L186.574 232.354C186.742 232.354 186.742 232.354 186.91 232.354L187.922 232.186V224.933C187.922 223.077 189.439 221.558 191.293 221.558C193.146 221.558 194.663 223.077 194.663 224.933V235.053C194.663 236.741 193.484 238.258 191.798 238.426L187.922 238.932L168.371 243.487C167.36 243.656 166.517 244.836 166.517 245.174C166.517 245.512 166.517 245.68 166.517 245.848L161.967 269.464C161.797 271.151 160.281 272.163 158.764 272.163Z" fill="#B82E59"/>
<path fill-rule="evenodd" clip-rule="evenodd" d="M131.292 68.0619C129.438 68.0619 127.922 66.5427 127.922 64.6873V51.8676C127.922 50.0122 129.438 48.4946 131.292 48.4946C133.146 48.4946 134.662 50.0122 134.662 51.8676V64.6873C134.662 66.5427 133.146 68.0619 131.292 68.0619Z" fill="#B82E59"/>
<path fill-rule="evenodd" clip-rule="evenodd" d="M144.775 68.0619C142.921 68.0619 141.404 66.5427 141.404 64.6873V51.8676C141.404 50.0122 142.921 48.4946 144.775 48.4946C146.628 48.4946 148.146 50.0122 148.146 51.8676V64.6873C148.146 66.5427 146.628 68.0619 144.775 68.0619Z" fill="#B82E59"/>
<path fill-rule="evenodd" clip-rule="evenodd" d="M158.764 68.0619C156.91 68.0619 155.394 66.5427 155.394 64.6873V51.8676C155.394 50.0122 156.91 48.4946 158.764 48.4946C160.618 48.4946 162.134 50.0122 162.134 51.8676V64.6873C162.134 66.5427 160.618 68.0619 158.764 68.0619Z" fill="#B82E59"/>
<path fill-rule="evenodd" clip-rule="evenodd" d="M235.787 136.713H222.304C220.451 136.713 218.933 135.195 218.933 133.34C218.933 131.484 220.451 129.967 222.304 129.967H235.787C237.641 129.967 239.157 131.484 239.157 133.34C239.157 135.195 237.641 136.713 235.787 136.713Z" fill="#B82E59"/>
<path fill-rule="evenodd" clip-rule="evenodd" d="M235.787 150.714H222.304C220.451 150.714 218.933 149.196 218.933 147.341C218.933 145.486 220.451 143.966 222.304 143.966H235.787C237.641 143.966 239.157 145.486 239.157 147.341C239.157 149.196 237.641 150.714 235.787 150.714Z" fill="#B82E59"/>
<path fill-rule="evenodd" clip-rule="evenodd" d="M235.787 164.207H222.304C220.451 164.207 218.933 162.69 218.933 160.834C218.933 158.979 220.451 157.461 222.304 157.461H235.787C237.641 157.461 239.157 158.979 239.157 160.834C239.157 162.69 237.641 164.207 235.787 164.207Z" fill="#B82E59"/>
<path fill-rule="evenodd" clip-rule="evenodd" d="M153.708 241.295C151.854 241.295 150.336 239.776 150.336 237.92V224.933C150.336 223.077 151.854 221.558 153.708 221.558C155.562 221.558 157.078 223.077 157.078 224.933V237.92C157.078 239.776 155.562 241.295 153.708 241.295Z" fill="#B82E59"/>
<path fill-rule="evenodd" clip-rule="evenodd" d="M140.224 241.295C138.37 241.295 136.854 239.776 136.854 237.92V224.933C136.854 223.077 138.37 221.558 140.224 221.558C142.078 221.558 143.596 223.077 143.596 224.933V237.92C143.596 239.776 142.078 241.295 140.224 241.295Z" fill="#B82E59"/>
<path fill-rule="evenodd" clip-rule="evenodd" d="M126.236 241.295C124.382 241.295 122.864 239.776 122.864 237.92V224.933C122.864 223.077 124.382 221.558 126.236 221.558C128.09 221.558 129.606 223.077 129.606 224.933V237.92C129.606 239.776 128.09 241.295 126.236 241.295Z" fill="#B82E59"/>
<path fill-rule="evenodd" clip-rule="evenodd" d="M62.6957 159.823H49.2131C47.3593 159.823 45.8413 158.304 45.8413 156.448C45.8413 154.593 47.3593 153.075 49.2131 153.075H62.6957C64.5496 153.075 66.0659 154.593 66.0659 156.448C66.0659 158.304 64.5496 159.823 62.6957 159.823Z" fill="#B82E59"/>
<path fill-rule="evenodd" clip-rule="evenodd" d="M62.6957 145.654H49.2131C47.3593 145.654 45.8413 144.136 45.8413 142.281C45.8413 140.424 47.3593 138.906 49.2131 138.906H62.6957C64.5496 138.906 66.0659 140.424 66.0659 142.281C66.0659 144.136 64.5496 145.654 62.6957 145.654Z" fill="#B82E59"/>
<path fill-rule="evenodd" clip-rule="evenodd" d="M62.6957 132.159H49.2131C47.3593 132.159 45.8413 130.641 45.8413 128.786C45.8413 126.93 47.3593 125.413 49.2131 125.413H62.6957C64.5496 125.413 66.0659 126.93 66.0659 128.786C66.0659 130.641 64.5496 132.159 62.6957 132.159Z" fill="#B82E59"/>
<path fill-rule="evenodd" clip-rule="evenodd" d="M197.022 228.306H87.9765C72.8081 228.306 60.5044 215.824 60.5044 200.305V89.4831C60.5044 73.9644 72.8081 61.3145 87.9765 61.3145H197.022C212.192 61.3145 224.494 73.9644 224.494 89.4831V200.305C224.494 215.824 212.192 228.306 197.022 228.306Z" fill="#0A365E"/>
<path fill-rule="evenodd" clip-rule="evenodd" d="M197.022 212.619H87.9763C81.0663 212.619 75.6726 207.221 75.6726 200.305V89.4827C75.6726 82.567 81.0663 77.1689 87.9763 77.1689H197.022C203.932 77.1689 209.326 82.567 209.326 89.4827V200.305C209.326 207.221 203.932 212.619 197.022 212.619Z" fill="#DCE4EA"/>
<mask id="mask0_94_4890" style="mask-type:luminance" maskUnits="userSpaceOnUse" x="0" y="0" width="285" height="226">
<path d="M0 0.0830078H285V225.195H0V0.0830078Z" fill="white"/>
</mask>
<g mask="url(#mask0_94_4890)">
<path fill-rule="evenodd" clip-rule="evenodd" d="M273.371 224.933C267.304 224.933 262.079 219.872 262.079 213.8C262.079 207.39 266.967 202.498 273.371 202.498C279.776 202.498 284.664 207.39 284.664 213.8C284.664 219.872 279.438 224.933 273.371 224.933ZM273.371 139.581C266.967 139.581 262.079 134.689 262.079 128.279C262.079 122.207 267.304 116.977 273.371 116.977C279.438 116.977 284.664 122.207 284.664 128.279C284.664 134.689 279.776 139.581 273.371 139.581ZM11.6287 86.6156C5.39209 86.6156 0.335938 81.893 0.335938 75.9891C0.335938 69.5793 5.22414 64.6871 11.6287 64.6871C18.0333 64.6871 22.7519 69.5793 22.7519 75.9891C22.7519 81.893 17.6958 86.6156 11.6287 86.6156ZM11.6287 172.136C5.56004 172.136 0.335938 166.906 0.335938 160.834C0.335938 154.425 5.22414 149.702 11.6287 149.702C18.0333 149.702 22.7519 154.425 22.7519 160.834C22.7519 166.906 17.6958 172.136 11.6287 172.136ZM211.517 22.5174C205.113 22.5174 200.394 17.7949 200.394 11.385C200.394 4.97522 205.113 0.0830078 211.517 0.0830078C217.922 0.0830078 222.81 4.97522 222.81 11.385C222.81 17.7949 217.922 22.5174 211.517 22.5174ZM126.741 22.5174C120.337 22.5174 115.449 17.7949 115.449 11.385C115.449 4.97522 120.337 0.0830078 126.741 0.0830078C132.808 0.0830078 138.034 5.313 138.034 11.385C138.034 17.4571 132.808 22.5174 126.741 22.5174Z" fill="#FF6A6A"/>
</g>
<path fill-rule="evenodd" clip-rule="evenodd" d="M123.877 189.003C116.124 189.003 109.719 183.101 108.876 175.51C101.123 174.666 95.224 168.594 95.224 160.835C95.224 159.653 95.224 158.474 95.3936 157.292C91.1788 154.593 88.4819 149.702 88.4819 144.642C88.4819 140.088 90.6733 135.871 94.381 133.172C93.8756 131.653 93.5381 130.303 93.5381 128.786C93.5381 120.183 100.112 113.605 108.708 113.605C108.876 113.605 108.876 113.605 108.876 113.605C109.887 106.183 116.124 100.785 123.877 100.785C132.135 100.785 138.54 107.363 138.54 115.966V173.823C138.54 182.088 131.798 189.003 123.877 189.003ZM160.956 189.003C153.033 189.003 146.461 182.088 146.461 173.823V115.966C146.461 107.363 152.865 100.785 160.956 100.785C168.877 100.785 174.944 106.183 175.954 113.605C176.124 113.605 176.124 113.605 176.124 113.605C184.888 113.605 191.293 120.183 191.293 128.786C191.293 130.303 191.125 131.653 190.617 133.172C194.157 135.871 196.349 140.088 196.349 144.642C196.349 149.702 193.652 154.593 189.439 157.292C189.607 158.474 189.607 159.653 189.607 160.835C189.607 168.594 183.877 174.666 176.124 175.51C175.281 183.101 168.877 189.003 160.956 189.003Z" fill="#FF6A6A"/>
<mask id="mask1_94_4890" style="mask-type:luminance" maskUnits="userSpaceOnUse" x="62" y="265" width="109" height="23">
<path d="M62.6509 265.357H170.345V287.941H62.6509V265.357Z" fill="white"/>
</mask>
<g mask="url(#mask1_94_4890)">
<path fill-rule="evenodd" clip-rule="evenodd" d="M73.9886 288.017C67.584 288.017 62.6958 283.127 62.6958 276.717C62.6958 270.307 67.584 265.415 73.9886 265.415C80.0556 265.415 85.1118 270.645 85.1118 276.717C85.1118 282.789 80.0556 288.017 73.9886 288.017ZM158.764 288.017C152.36 288.017 147.472 283.127 147.472 276.717C147.472 270.307 152.36 265.415 158.764 265.415C165.169 265.415 170.057 270.307 170.057 276.717C170.057 283.127 165.169 288.017 158.764 288.017Z" fill="#FF6A6A"/>
</g>
</g>
<defs>
<clipPath id="clip0_94_4890">
<rect width="285" height="288" fill="white"/>
</clipPath>
</defs>
</svg>
