<svg width="28" height="28" viewBox="0 0 28 28" fill="none" xmlns="http://www.w3.org/2000/svg">
<g clip-path="url(#clip0_214_2348)">
<path d="M21.5834 28H6.41665C2.87443 27.9961 0.00388281 25.1256 0 21.5834V6.41665C0.00388281 2.87443 2.87443 0.00388281 6.41665 0H21.5833C25.1256 0.00388281 27.9961 2.87443 28 6.41665V21.5833C27.9961 25.1256 25.1256 27.9961 21.5834 28ZM6.41665 3.5C4.80583 3.5 3.5 4.80583 3.5 6.41665V21.5833C3.5 23.1942 4.80583 24.5 6.41665 24.5H21.5833C23.1942 24.5 24.5 23.1942 24.5 21.5834V6.41665C24.5 4.80583 23.1942 3.5 21.5834 3.5H6.41665Z" fill="#83213F"/>
<path d="M11.2781 20.7515C10.5419 20.752 9.83612 20.458 9.31812 19.9349L5.83327 16.4559C5.14962 15.7727 5.14929 14.6646 5.8325 13.981C5.83278 13.9807 5.83305 13.9804 5.83327 13.9802C6.51664 13.297 7.62439 13.297 8.30777 13.9802L11.2781 16.9493L19.6921 8.53532C20.3755 7.85216 21.4832 7.85216 22.1666 8.53532C22.8503 9.21853 22.8506 10.3266 22.1674 11.0102C22.1671 11.0105 22.1668 11.0107 22.1666 11.011L13.237 19.9407C12.7184 20.4616 12.0131 20.7536 11.2781 20.7515Z" fill="#83213F"/>
</g>
<defs>
<clipPath id="clip0_214_2348">
<rect width="28" height="28" fill="white"/>
</clipPath>
</defs>
</svg>
