<svg xmlns="http://www.w3.org/2000/svg" xmlns:xlink="http://www.w3.org/1999/xlink" width="2000" zoomAndPan="magnify" viewBox="0 0 1500 1499.999933" height="2000" preserveAspectRatio="xMidYMid meet" version="1.0"><path fill="#ffd9d9" d="M 1443.992188 1488.3125 L 1449.503906 1488.3125 L 1449.503906 1493.824219 L 1443.992188 1493.824219 Z M 1443.992188 1488.3125 " fill-opacity="0.152" fill-rule="nonzero"/><path fill="#ffd9d9" d="M 1370.992188 1483.808594 L 1385.507812 1483.808594 L 1385.507812 1498.328125 L 1370.992188 1498.328125 Z M 1370.992188 1483.808594 " fill-opacity="0.554" fill-rule="nonzero"/><path fill="#bc4d4d" d="M 1306.390625 1487.710938 L 1313.105469 1487.710938 L 1313.105469 1494.425781 L 1306.390625 1494.425781 Z M 1306.390625 1487.710938 " fill-opacity="0.935" fill-rule="nonzero"/><path fill="#bc4d4d" d="M 1232.746094 1482.566406 L 1249.75 1482.566406 L 1249.75 1499.570312 L 1232.746094 1499.570312 Z M 1232.746094 1482.566406 " fill-opacity="0.237" fill-rule="nonzero"/><path fill="#bc4d4d" d="M 1166.886719 1485.207031 L 1178.609375 1485.207031 L 1178.609375 1496.929688 L 1166.886719 1496.929688 Z M 1166.886719 1485.207031 " fill-opacity="0.653" fill-rule="nonzero"/><path fill="#bc4d4d" d="M 1096.96875 1483.789062 L 1111.527344 1483.789062 L 1111.527344 1498.347656 L 1096.96875 1498.347656 Z M 1096.96875 1483.789062 " fill-opacity="0.851" fill-rule="nonzero"/><path fill="#ffd9d9" d="M 1032.757812 1488.078125 L 1038.738281 1488.078125 L 1038.738281 1494.058594 L 1032.757812 1494.058594 Z M 1032.757812 1488.078125 " fill-opacity="0.351" fill-rule="nonzero"/><path fill="#bc4d4d" d="M 963.929688 1487.75 L 970.566406 1487.75 L 970.566406 1494.386719 L 963.929688 1494.386719 Z M 963.929688 1487.75 " fill-opacity="0.913" fill-rule="nonzero"/><path fill="#ffabab" d="M 895.195312 1487.515625 L 902.300781 1487.515625 L 902.300781 1494.621094 L 895.195312 1494.621094 Z M 895.195312 1487.515625 " fill-opacity="0.859" fill-rule="nonzero"/><path fill="#bc4d4d" d="M 822.40625 1483.226562 L 838.085938 1483.226562 L 838.085938 1498.910156 L 822.40625 1498.910156 Z M 822.40625 1483.226562 " fill-opacity="0.347" fill-rule="nonzero"/><path fill="#bc4d4d" d="M 753.59375 1482.917969 L 769.898438 1482.917969 L 769.898438 1499.21875 L 753.59375 1499.21875 Z M 753.59375 1482.917969 " fill-opacity="0.605" fill-rule="nonzero"/><path fill="#ffabab" d="M 685.636719 1483.460938 L 700.855469 1483.460938 L 700.855469 1498.675781 L 685.636719 1498.675781 Z M 685.636719 1483.460938 " fill-opacity="0.26" fill-rule="nonzero"/><path fill="#ffd9d9" d="M 617.816406 1484.140625 L 631.675781 1484.140625 L 631.675781 1497.996094 L 617.816406 1497.996094 Z M 617.816406 1484.140625 " fill-opacity="0.382" fill-rule="nonzero"/><path fill="#ffabab" d="M 550.285156 1485.109375 L 562.203125 1485.109375 L 562.203125 1497.027344 L 550.285156 1497.027344 Z M 550.285156 1485.109375 " fill-opacity="0.874" fill-rule="nonzero"/><path fill="#ffabab" d="M 484.058594 1487.378906 L 491.433594 1487.378906 L 491.433594 1494.753906 L 484.058594 1494.753906 Z M 484.058594 1487.378906 " fill-opacity="0.28" fill-rule="nonzero"/><path fill="#ffabab" d="M 413.984375 1485.808594 L 424.503906 1485.808594 L 424.503906 1496.328125 L 413.984375 1496.328125 Z M 413.984375 1485.808594 " fill-opacity="0.212" fill-rule="nonzero"/><path fill="#ffabab" d="M 348.84375 1489.167969 L 352.644531 1489.167969 L 352.644531 1492.96875 L 348.84375 1492.96875 Z M 348.84375 1489.167969 " fill-opacity="0.902" fill-rule="nonzero"/><path fill="#ffabab" d="M 276.695312 1485.515625 L 287.796875 1485.515625 L 287.796875 1496.617188 L 276.695312 1496.617188 Z M 276.695312 1485.515625 " fill-opacity="0.873" fill-rule="nonzero"/><path fill="#ffd9d9" d="M 207.085938 1484.410156 L 220.402344 1484.410156 L 220.402344 1497.726562 L 207.085938 1497.726562 Z M 207.085938 1484.410156 " fill-opacity="0.47" fill-rule="nonzero"/><path fill="#ffabab" d="M 138.429688 1484.253906 L 152.054688 1484.253906 L 152.054688 1497.878906 L 138.429688 1497.878906 Z M 138.429688 1484.253906 " fill-opacity="0.504" fill-rule="nonzero"/><path fill="#ffd9d9" d="M 68.921875 1483.246094 L 84.566406 1483.246094 L 84.566406 1498.890625 L 68.921875 1498.890625 Z M 68.921875 1483.246094 " fill-opacity="0.872" fill-rule="nonzero"/><path fill="#ffabab" d="M 6.011719 1488.835938 L 10.476562 1488.835938 L 10.476562 1493.300781 L 6.011719 1493.300781 Z M 6.011719 1488.835938 " fill-opacity="0.179" fill-rule="nonzero"/><path fill="#bc4d4d" d="M 1440.363281 1414.105469 L 1453.136719 1414.105469 L 1453.136719 1426.878906 L 1440.363281 1426.878906 Z M 1440.363281 1414.105469 " fill-opacity="0.673" fill-rule="nonzero"/><path fill="#bc4d4d" d="M 1371.457031 1413.699219 L 1385.042969 1413.699219 L 1385.042969 1427.285156 L 1371.457031 1427.285156 Z M 1371.457031 1413.699219 " fill-opacity="0.918" fill-rule="nonzero"/><path fill="#bc4d4d" d="M 1304.238281 1414.980469 L 1315.261719 1414.980469 L 1315.261719 1426.003906 L 1304.238281 1426.003906 Z M 1304.238281 1414.980469 " fill-opacity="0.221" fill-rule="nonzero"/><path fill="#ffabab" d="M 1234.164062 1413.40625 L 1248.332031 1413.40625 L 1248.332031 1427.578125 L 1234.164062 1427.578125 Z M 1234.164062 1413.40625 " fill-opacity="0.242" fill-rule="nonzero"/><path fill="#bc4d4d" d="M 1166.207031 1413.953125 L 1179.289062 1413.953125 L 1179.289062 1427.03125 L 1166.207031 1427.03125 Z M 1166.207031 1413.953125 " fill-opacity="0.775" fill-rule="nonzero"/><path fill="#ffd9d9" d="M 1097.125 1413.371094 L 1111.371094 1413.371094 L 1111.371094 1427.613281 L 1097.125 1427.613281 Z M 1097.125 1413.371094 " fill-opacity="0.791" fill-rule="nonzero"/><path fill="#bc4d4d" d="M 1029.207031 1413.953125 L 1042.289062 1413.953125 L 1042.289062 1427.03125 L 1029.207031 1427.03125 Z M 1029.207031 1413.953125 " fill-opacity="0.304" fill-rule="nonzero"/><path fill="#bc4d4d" d="M 962.183594 1415.425781 L 972.3125 1415.425781 L 972.3125 1425.558594 L 962.183594 1425.558594 Z M 962.183594 1415.425781 " fill-opacity="0.841" fill-rule="nonzero"/><path fill="#bc4d4d" d="M 892.59375 1414.339844 L 904.898438 1414.339844 L 904.898438 1426.644531 L 892.59375 1426.644531 Z M 892.59375 1414.339844 " fill-opacity="0.886" fill-rule="nonzero"/><path fill="#bc4d4d" d="M 827.277344 1417.523438 L 833.214844 1417.523438 L 833.214844 1423.460938 L 827.277344 1423.460938 Z M 827.277344 1417.523438 " fill-opacity="0.944" fill-rule="nonzero"/><path fill="#ffd9d9" d="M 758.875 1417.621094 L 764.617188 1417.621094 L 764.617188 1423.363281 L 758.875 1423.363281 Z M 758.875 1417.621094 " fill-opacity="0.349" fill-rule="nonzero"/><path fill="#ffd9d9" d="M 687.347656 1414.59375 L 699.144531 1414.59375 L 699.144531 1426.390625 L 687.347656 1426.390625 Z M 687.347656 1414.59375 " fill-opacity="0.214" fill-rule="nonzero"/><path fill="#ffabab" d="M 618.476562 1414.222656 L 631.015625 1414.222656 L 631.015625 1426.761719 L 618.476562 1426.761719 Z M 618.476562 1414.222656 " fill-opacity="0.245" fill-rule="nonzero"/><path fill="#bc4d4d" d="M 553.238281 1417.484375 L 559.253906 1417.484375 L 559.253906 1423.5 L 553.238281 1423.5 Z M 553.238281 1417.484375 " fill-opacity="0.565" fill-rule="nonzero"/><path fill="#ffabab" d="M 483.457031 1416.203125 L 492.035156 1416.203125 L 492.035156 1424.78125 L 483.457031 1424.78125 Z M 483.457031 1416.203125 " fill-opacity="0.602" fill-rule="nonzero"/><path fill="#ffabab" d="M 417.324219 1418.570312 L 421.167969 1418.570312 L 421.167969 1422.414062 L 417.324219 1422.414062 Z M 417.324219 1418.570312 " fill-opacity="0.301" fill-rule="nonzero"/><path fill="#bc4d4d" d="M 346.53125 1416.28125 L 354.957031 1416.28125 L 354.957031 1424.703125 L 346.53125 1424.703125 Z M 346.53125 1416.28125 " fill-opacity="0.89" fill-rule="nonzero"/><path fill="#bc4d4d" d="M 276.480469 1414.726562 L 288.007812 1414.726562 L 288.007812 1426.257812 L 276.480469 1426.257812 Z M 276.480469 1414.726562 " fill-opacity="0.862" fill-rule="nonzero"/><path fill="#bc4d4d" d="M 205.28125 1412.03125 L 222.207031 1412.03125 L 222.207031 1428.953125 L 205.28125 1428.953125 Z M 205.28125 1412.03125 " fill-opacity="0.752" fill-rule="nonzero"/><path fill="#bc4d4d" d="M 142.136719 1417.386719 L 148.347656 1417.386719 L 148.347656 1423.597656 L 142.136719 1423.597656 Z M 142.136719 1417.386719 " fill-opacity="0.863" fill-rule="nonzero"/><path fill="#ffabab" d="M 68.398438 1412.148438 L 85.089844 1412.148438 L 85.089844 1428.835938 L 68.398438 1428.835938 Z M 68.398438 1412.148438 " fill-opacity="0.287" fill-rule="nonzero"/><path fill="#bc4d4d" d="M 1.507812 1413.757812 L 14.976562 1413.757812 L 14.976562 1427.226562 L 1.507812 1427.226562 Z M 1.507812 1413.757812 " fill-opacity="0.801" fill-rule="nonzero"/><path fill="#bc4d4d" d="M 1443.003906 1346.171875 L 1450.496094 1346.171875 L 1450.496094 1353.660156 L 1443.003906 1353.660156 Z M 1443.003906 1346.171875 " fill-opacity="0.784" fill-rule="nonzero"/><path fill="#ffabab" d="M 1372 1343.667969 L 1384.5 1343.667969 L 1384.5 1356.164062 L 1372 1356.164062 Z M 1372 1343.667969 " fill-opacity="0.632" fill-rule="nonzero"/><path fill="#bc4d4d" d="M 1305.769531 1345.9375 L 1313.726562 1345.9375 L 1313.726562 1353.894531 L 1305.769531 1353.894531 Z M 1305.769531 1345.9375 " fill-opacity="0.542" fill-rule="nonzero"/><path fill="#bc4d4d" d="M 1233.136719 1341.804688 L 1249.363281 1341.804688 L 1249.363281 1358.027344 L 1233.136719 1358.027344 Z M 1233.136719 1341.804688 " fill-opacity="0.573" fill-rule="nonzero"/><path fill="#ffd9d9" d="M 1170.304688 1347.472656 L 1175.195312 1347.472656 L 1175.195312 1352.363281 L 1170.304688 1352.363281 Z M 1170.304688 1347.472656 " fill-opacity="0.466" fill-rule="nonzero"/><path fill="#bc4d4d" d="M 1099.164062 1344.832031 L 1109.332031 1344.832031 L 1109.332031 1355 L 1099.164062 1355 Z M 1099.164062 1344.832031 " fill-opacity="0.249" fill-rule="nonzero"/><path fill="#ffd9d9" d="M 1031.730469 1345.898438 L 1039.765625 1345.898438 L 1039.765625 1353.933594 L 1031.730469 1353.933594 Z M 1031.730469 1345.898438 " fill-opacity="0.802" fill-rule="nonzero"/><path fill="#ffabab" d="M 961.386719 1344.054688 L 973.109375 1344.054688 L 973.109375 1355.777344 L 961.386719 1355.777344 Z M 961.386719 1344.054688 " fill-opacity="0.33" fill-rule="nonzero"/><path fill="#ffd9d9" d="M 890.207031 1341.375 L 907.285156 1341.375 L 907.285156 1358.457031 L 890.207031 1358.457031 Z M 890.207031 1341.375 " fill-opacity="0.938" fill-rule="nonzero"/><path fill="#ffabab" d="M 825.316406 1344.988281 L 835.175781 1344.988281 L 835.175781 1354.847656 L 825.316406 1354.847656 Z M 825.316406 1344.988281 " fill-opacity="0.771" fill-rule="nonzero"/><path fill="#ffabab" d="M 757.203125 1345.375 L 766.289062 1345.375 L 766.289062 1354.457031 L 757.203125 1354.457031 Z M 757.203125 1345.375 " fill-opacity="0.493" fill-rule="nonzero"/><path fill="#ffd9d9" d="M 688.898438 1345.570312 L 697.59375 1345.570312 L 697.59375 1354.265625 L 688.898438 1354.265625 Z M 688.898438 1345.570312 " fill-opacity="0.432" fill-rule="nonzero"/><path fill="#bc4d4d" d="M 622.085938 1347.257812 L 627.40625 1347.257812 L 627.40625 1352.574219 L 622.085938 1352.574219 Z M 622.085938 1347.257812 " fill-opacity="0.524" fill-rule="nonzero"/><path fill="#ffabab" d="M 553.507812 1347.179688 L 558.980469 1347.179688 L 558.980469 1352.652344 L 553.507812 1352.652344 Z M 553.507812 1347.179688 " fill-opacity="0.831" fill-rule="nonzero"/><path fill="#bc4d4d" d="M 484.308594 1346.480469 L 491.179688 1346.480469 L 491.179688 1353.351562 L 484.308594 1353.351562 Z M 484.308594 1346.480469 " fill-opacity="0.958" fill-rule="nonzero"/><path fill="#bc4d4d" d="M 414.414062 1345.082031 L 424.078125 1345.082031 L 424.078125 1354.75 L 414.414062 1354.75 Z M 414.414062 1345.082031 " fill-opacity="0.822" fill-rule="nonzero"/><path fill="#ffabab" d="M 346.027344 1345.199219 L 355.460938 1345.199219 L 355.460938 1354.632812 L 346.027344 1354.632812 Z M 346.027344 1345.199219 " fill-opacity="0.825" fill-rule="nonzero"/><path fill="#ffabab" d="M 278.207031 1345.878906 L 286.28125 1345.878906 L 286.28125 1353.953125 L 278.207031 1353.953125 Z M 278.207031 1345.878906 " fill-opacity="0.483" fill-rule="nonzero"/><path fill="#ffd9d9" d="M 210.949219 1347.121094 L 216.539062 1347.121094 L 216.539062 1352.710938 L 210.949219 1352.710938 Z M 210.949219 1347.121094 " fill-opacity="0.567" fill-rule="nonzero"/><path fill="#bc4d4d" d="M 138.820312 1343.492188 L 151.667969 1343.492188 L 151.667969 1356.339844 L 138.820312 1356.339844 Z M 138.820312 1343.492188 " fill-opacity="0.497" fill-rule="nonzero"/><path fill="#bc4d4d" d="M 74.160156 1347.335938 L 79.324219 1347.335938 L 79.324219 1352.496094 L 74.160156 1352.496094 Z M 74.160156 1347.335938 " fill-opacity="0.623" fill-rule="nonzero"/><path fill="#ffabab" d="M 5.175781 1346.851562 L 11.308594 1346.851562 L 11.308594 1352.984375 L 5.175781 1352.984375 Z M 5.175781 1346.851562 " fill-opacity="0.363" fill-rule="nonzero"/><path fill="#bc4d4d" d="M 1438.402344 1270.996094 L 1455.09375 1270.996094 L 1455.09375 1287.683594 L 1438.402344 1287.683594 Z M 1438.402344 1270.996094 " fill-opacity="0.785" fill-rule="nonzero"/><path fill="#bc4d4d" d="M 1372.738281 1273.828125 L 1383.761719 1273.828125 L 1383.761719 1284.851562 L 1372.738281 1284.851562 Z M 1372.738281 1273.828125 " fill-opacity="0.798" fill-rule="nonzero"/><path fill="#bc4d4d" d="M 1302.605469 1272.199219 L 1316.890625 1272.199219 L 1316.890625 1286.480469 L 1302.605469 1286.480469 Z M 1302.605469 1272.199219 " fill-opacity="0.933" fill-rule="nonzero"/><path fill="#bc4d4d" d="M 1233.71875 1271.808594 L 1248.777344 1271.808594 L 1248.777344 1286.871094 L 1233.71875 1286.871094 Z M 1233.71875 1271.808594 " fill-opacity="0.861" fill-rule="nonzero"/><path fill="#ffd9d9" d="M 1168.246094 1274.835938 L 1177.25 1274.835938 L 1177.25 1283.84375 L 1168.246094 1283.84375 Z M 1168.246094 1274.835938 " fill-opacity="0.321" fill-rule="nonzero"/><path fill="#ffd9d9" d="M 1101.53125 1276.621094 L 1106.964844 1276.621094 L 1106.964844 1282.058594 L 1101.53125 1282.058594 Z M 1101.53125 1276.621094 " fill-opacity="0.543" fill-rule="nonzero"/><path fill="#ffd9d9" d="M 1030.0625 1273.652344 L 1041.433594 1273.652344 L 1041.433594 1285.027344 L 1030.0625 1285.027344 Z M 1030.0625 1273.652344 " fill-opacity="0.557" fill-rule="nonzero"/><path fill="#ffd9d9" d="M 963.675781 1275.769531 L 970.820312 1275.769531 L 970.820312 1282.910156 L 963.675781 1282.910156 Z M 963.675781 1275.769531 " fill-opacity="0.997" fill-rule="nonzero"/><path fill="#bc4d4d" d="M 894.03125 1274.625 L 903.464844 1274.625 L 903.464844 1284.054688 L 894.03125 1284.054688 Z M 894.03125 1274.625 " fill-opacity="0.923" fill-rule="nonzero"/><path fill="#ffabab" d="M 828.132812 1277.222656 L 832.363281 1277.222656 L 832.363281 1281.457031 L 828.132812 1281.457031 Z M 828.132812 1277.222656 " fill-opacity="0.658" fill-rule="nonzero"/><path fill="#ffabab" d="M 754.566406 1272.160156 L 768.925781 1272.160156 L 768.925781 1286.519531 L 754.566406 1286.519531 Z M 754.566406 1272.160156 " fill-opacity="0.337" fill-rule="nonzero"/><path fill="#ffabab" d="M 685.519531 1271.617188 L 700.96875 1271.617188 L 700.96875 1287.0625 L 685.519531 1287.0625 Z M 685.519531 1271.617188 " fill-opacity="0.125" fill-rule="nonzero"/><path fill="#ffabab" d="M 622.066406 1276.660156 L 627.425781 1276.660156 L 627.425781 1282.019531 L 622.066406 1282.019531 Z M 622.066406 1276.660156 " fill-opacity="0.249" fill-rule="nonzero"/><path fill="#ffabab" d="M 548.269531 1271.363281 L 564.222656 1271.363281 L 564.222656 1287.316406 L 548.269531 1287.316406 Z M 548.269531 1271.363281 " fill-opacity="0.624" fill-rule="nonzero"/><path fill="#bc4d4d" d="M 484.15625 1275.75 L 491.335938 1275.75 L 491.335938 1282.929688 L 484.15625 1282.929688 Z M 484.15625 1275.75 " fill-opacity="0.192" fill-rule="nonzero"/><path fill="#ffd9d9" d="M 410.839844 1270.9375 L 427.648438 1270.9375 L 427.648438 1287.742188 L 410.839844 1287.742188 Z M 410.839844 1270.9375 " fill-opacity="0.918" fill-rule="nonzero"/><path fill="#bc4d4d" d="M 343.058594 1271.652344 L 358.429688 1271.652344 L 358.429688 1287.027344 L 343.058594 1287.027344 Z M 343.058594 1271.652344 " fill-opacity="0.65" fill-rule="nonzero"/><path fill="#ffabab" d="M 278.265625 1275.359375 L 286.222656 1275.359375 L 286.222656 1283.320312 L 278.265625 1283.320312 Z M 278.265625 1275.359375 " fill-opacity="0.286" fill-rule="nonzero"/><path fill="#ffd9d9" d="M 210.367188 1275.960938 L 217.121094 1275.960938 L 217.121094 1282.71875 L 210.367188 1282.71875 Z M 210.367188 1275.960938 " fill-opacity="0.409" fill-rule="nonzero"/><path fill="#ffd9d9" d="M 140.121094 1274.214844 L 150.367188 1274.214844 L 150.367188 1284.464844 L 140.121094 1284.464844 Z M 140.121094 1274.214844 " fill-opacity="0.27" fill-rule="nonzero"/><path fill="#ffabab" d="M 73.464844 1276.058594 L 80.023438 1276.058594 L 80.023438 1282.621094 L 73.464844 1282.621094 Z M 73.464844 1276.058594 " fill-opacity="0.344" fill-rule="nonzero"/><path fill="#bc4d4d" d="M 4.089844 1275.1875 L 12.394531 1275.1875 L 12.394531 1283.492188 L 4.089844 1283.492188 Z M 4.089844 1275.1875 " fill-opacity="0.53" fill-rule="nonzero"/><path fill="#ffd9d9" d="M 1443.332031 1205.347656 L 1450.164062 1205.347656 L 1450.164062 1212.179688 L 1443.332031 1212.179688 Z M 1443.332031 1205.347656 " fill-opacity="0.445" fill-rule="nonzero"/><path fill="#bc4d4d" d="M 1371.980469 1202.496094 L 1384.519531 1202.496094 L 1384.519531 1215.03125 L 1371.980469 1215.03125 Z M 1371.980469 1202.496094 " fill-opacity="0.601" fill-rule="nonzero"/><path fill="#ffabab" d="M 1306.101562 1205.113281 L 1313.398438 1205.113281 L 1313.398438 1212.414062 L 1306.101562 1212.414062 Z M 1306.101562 1205.113281 " fill-opacity="0.931" fill-rule="nonzero"/><path fill="#ffd9d9" d="M 1238.707031 1206.222656 L 1243.792969 1206.222656 L 1243.792969 1211.304688 L 1238.707031 1211.304688 Z M 1238.707031 1206.222656 " fill-opacity="0.46" fill-rule="nonzero"/><path fill="#ffabab" d="M 1169.351562 1205.367188 L 1176.144531 1205.367188 L 1176.144531 1212.160156 L 1169.351562 1212.160156 Z M 1169.351562 1205.367188 " fill-opacity="0.157" fill-rule="nonzero"/><path fill="#bc4d4d" d="M 1100.230469 1204.746094 L 1108.265625 1204.746094 L 1108.265625 1212.78125 L 1100.230469 1212.78125 Z M 1100.230469 1204.746094 " fill-opacity="0.402" fill-rule="nonzero"/><path fill="#ffabab" d="M 1032.816406 1205.832031 L 1038.679688 1205.832031 L 1038.679688 1211.695312 L 1032.816406 1211.695312 Z M 1032.816406 1205.832031 " fill-opacity="0.671" fill-rule="nonzero"/><path fill="#bc4d4d" d="M 963.347656 1204.863281 L 971.148438 1204.863281 L 971.148438 1212.664062 L 963.347656 1212.664062 Z M 963.347656 1204.863281 " fill-opacity="0.681" fill-rule="nonzero"/><path fill="#bc4d4d" d="M 895.273438 1205.289062 L 902.222656 1205.289062 L 902.222656 1212.238281 L 895.273438 1212.238281 Z M 895.273438 1205.289062 " fill-opacity="0.169" fill-rule="nonzero"/><path fill="#ffabab" d="M 827.296875 1205.8125 L 833.195312 1205.8125 L 833.195312 1211.714844 L 827.296875 1211.714844 Z M 827.296875 1205.8125 " fill-opacity="0.828" fill-rule="nonzero"/><path fill="#ffd9d9" d="M 757.148438 1204.164062 L 766.347656 1204.164062 L 766.347656 1213.363281 L 757.148438 1213.363281 Z M 757.148438 1204.164062 " fill-opacity="0.997" fill-rule="nonzero"/><path fill="#ffabab" d="M 690.21875 1205.734375 L 696.273438 1205.734375 L 696.273438 1211.792969 L 690.21875 1211.792969 Z M 690.21875 1205.734375 " fill-opacity="0.528" fill-rule="nonzero"/><path fill="#ffabab" d="M 621.136719 1205.152344 L 628.355469 1205.152344 L 628.355469 1212.375 L 621.136719 1212.375 Z M 621.136719 1205.152344 " fill-opacity="0.8" fill-rule="nonzero"/><path fill="#ffabab" d="M 547.765625 1200.28125 L 564.726562 1200.28125 L 564.726562 1217.246094 L 547.765625 1217.246094 Z M 547.765625 1200.28125 " fill-opacity="0.678" fill-rule="nonzero"/><path fill="#ffd9d9" d="M 483.203125 1204.222656 L 492.285156 1204.222656 L 492.285156 1213.304688 L 483.203125 1213.304688 Z M 483.203125 1204.222656 " fill-opacity="0.493" fill-rule="nonzero"/><path fill="#ffd9d9" d="M 416.292969 1205.8125 L 422.195312 1205.8125 L 422.195312 1211.714844 L 416.292969 1211.714844 Z M 416.292969 1205.8125 " fill-opacity="0.102" fill-rule="nonzero"/><path fill="#bc4d4d" d="M 346.261719 1204.28125 L 355.226562 1204.28125 L 355.226562 1213.246094 L 346.261719 1213.246094 Z M 346.261719 1204.28125 " fill-opacity="0.127" fill-rule="nonzero"/><path fill="#bc4d4d" d="M 275.414062 1201.933594 L 289.074219 1201.933594 L 289.074219 1215.59375 L 275.414062 1215.59375 Z M 275.414062 1201.933594 " fill-opacity="0.429" fill-rule="nonzero"/><path fill="#ffabab" d="M 208.445312 1203.464844 L 219.042969 1203.464844 L 219.042969 1214.0625 L 208.445312 1214.0625 Z M 208.445312 1203.464844 " fill-opacity="0.585" fill-rule="nonzero"/><path fill="#ffabab" d="M 141.476562 1205 L 149.007812 1205 L 149.007812 1212.527344 L 141.476562 1212.527344 Z M 141.476562 1205 " fill-opacity="0.998" fill-rule="nonzero"/><path fill="#bc4d4d" d="M 71.074219 1203.097656 L 82.410156 1203.097656 L 82.410156 1214.429688 L 71.074219 1214.429688 Z M 71.074219 1203.097656 " fill-opacity="0.171" fill-rule="nonzero"/><path fill="#ffabab" d="M 6.167969 1206.6875 L 10.320312 1206.6875 L 10.320312 1210.839844 L 6.167969 1210.839844 Z M 6.167969 1206.6875 " fill-opacity="0.684" fill-rule="nonzero"/><path fill="#bc4d4d" d="M 1438.597656 1130.035156 L 1454.902344 1130.035156 L 1454.902344 1146.339844 L 1438.597656 1146.339844 Z M 1438.597656 1130.035156 " fill-opacity="0.95" fill-rule="nonzero"/><path fill="#ffabab" d="M 1373.84375 1133.78125 L 1382.65625 1133.78125 L 1382.65625 1142.59375 L 1373.84375 1142.59375 Z M 1373.84375 1133.78125 " fill-opacity="0.628" fill-rule="nonzero"/><path fill="#ffd9d9" d="M 1301.441406 1129.882812 L 1318.054688 1129.882812 L 1318.054688 1146.496094 L 1301.441406 1146.496094 Z M 1301.441406 1129.882812 " fill-opacity="0.803" fill-rule="nonzero"/><path fill="#ffd9d9" d="M 1239.519531 1136.460938 L 1242.976562 1136.460938 L 1242.976562 1139.914062 L 1239.519531 1139.914062 Z M 1239.519531 1136.460938 " fill-opacity="0.938" fill-rule="nonzero"/><path fill="#ffd9d9" d="M 1167.351562 1132.792969 L 1178.144531 1132.792969 L 1178.144531 1143.582031 L 1167.351562 1143.582031 Z M 1167.351562 1132.792969 " fill-opacity="0.663" fill-rule="nonzero"/><path fill="#ffd9d9" d="M 1096.910156 1130.851562 L 1111.585938 1130.851562 L 1111.585938 1145.523438 L 1096.910156 1145.523438 Z M 1096.910156 1130.851562 " fill-opacity="0.714" fill-rule="nonzero"/><path fill="#bc4d4d" d="M 1032.410156 1134.847656 L 1039.085938 1134.847656 L 1039.085938 1141.527344 L 1032.410156 1141.527344 Z M 1032.410156 1134.847656 " fill-opacity="0.434" fill-rule="nonzero"/><path fill="#ffd9d9" d="M 963.210938 1134.152344 L 971.285156 1134.152344 L 971.285156 1142.226562 L 963.210938 1142.226562 Z M 963.210938 1134.152344 " fill-opacity="0.136" fill-rule="nonzero"/><path fill="#ffabab" d="M 894.691406 1134.132812 L 902.804688 1134.132812 L 902.804688 1142.246094 L 894.691406 1142.246094 Z M 894.691406 1134.132812 " fill-opacity="0.335" fill-rule="nonzero"/><path fill="#bc4d4d" d="M 828.035156 1135.976562 L 832.460938 1135.976562 L 832.460938 1140.398438 L 828.035156 1140.398438 Z M 828.035156 1135.976562 " fill-opacity="0.936" fill-rule="nonzero"/><path fill="#bc4d4d" d="M 755.960938 1132.402344 L 767.53125 1132.402344 L 767.53125 1143.972656 L 755.960938 1143.972656 Z M 755.960938 1132.402344 " fill-opacity="0.985" fill-rule="nonzero"/><path fill="#bc4d4d" d="M 689.773438 1134.714844 L 696.71875 1134.714844 L 696.71875 1141.660156 L 689.773438 1141.660156 Z M 689.773438 1134.714844 " fill-opacity="0.276" fill-rule="nonzero"/><path fill="#bc4d4d" d="M 616.535156 1129.976562 L 632.957031 1129.976562 L 632.957031 1146.398438 L 616.535156 1146.398438 Z M 616.535156 1129.976562 " fill-opacity="0.534" fill-rule="nonzero"/><path fill="#ffd9d9" d="M 549.140625 1131.085938 L 563.347656 1131.085938 L 563.347656 1145.292969 L 549.140625 1145.292969 Z M 549.140625 1131.085938 " fill-opacity="0.934" fill-rule="nonzero"/><path fill="#ffd9d9" d="M 482.988281 1133.433594 L 492.5 1133.433594 L 492.5 1142.941406 L 482.988281 1142.941406 Z M 482.988281 1133.433594 " fill-opacity="0.391" fill-rule="nonzero"/><path fill="#bc4d4d" d="M 410.976562 1129.917969 L 427.511719 1129.917969 L 427.511719 1146.457031 L 410.976562 1146.457031 Z M 410.976562 1129.917969 " fill-opacity="0.375" fill-rule="nonzero"/><path fill="#ffd9d9" d="M 347.40625 1134.847656 L 354.082031 1134.847656 L 354.082031 1141.527344 L 347.40625 1141.527344 Z M 347.40625 1134.847656 " fill-opacity="0.561" fill-rule="nonzero"/><path fill="#bc4d4d" d="M 280.246094 1136.1875 L 284.242188 1136.1875 L 284.242188 1140.1875 L 280.246094 1140.1875 Z M 280.246094 1136.1875 " fill-opacity="0.764" fill-rule="nonzero"/><path fill="#bc4d4d" d="M 208.464844 1132.910156 L 219.023438 1132.910156 L 219.023438 1143.46875 L 208.464844 1143.46875 Z M 208.464844 1132.910156 " fill-opacity="0.265" fill-rule="nonzero"/><path fill="#ffd9d9" d="M 139.128906 1132.074219 L 151.355469 1132.074219 L 151.355469 1144.300781 L 139.128906 1144.300781 Z M 139.128906 1132.074219 " fill-opacity="0.879" fill-rule="nonzero"/><path fill="#ffd9d9" d="M 74.277344 1135.722656 L 79.207031 1135.722656 L 79.207031 1140.652344 L 74.277344 1140.652344 Z M 74.277344 1135.722656 " fill-opacity="0.983" fill-rule="nonzero"/><path fill="#bc4d4d" d="M 1.273438 1131.21875 L 15.210938 1131.21875 L 15.210938 1145.15625 L 1.273438 1145.15625 Z M 1.273438 1131.21875 " fill-opacity="0.463" fill-rule="nonzero"/><path fill="#bc4d4d" d="M 1442.691406 1063.554688 L 1450.804688 1063.554688 L 1450.804688 1071.667969 L 1442.691406 1071.667969 Z M 1442.691406 1063.554688 " fill-opacity="0.145" fill-rule="nonzero"/><path fill="#ffd9d9" d="M 1373.046875 1062.410156 L 1383.449219 1062.410156 L 1383.449219 1072.8125 L 1373.046875 1072.8125 Z M 1373.046875 1062.410156 " fill-opacity="0.202" fill-rule="nonzero"/><path fill="#bc4d4d" d="M 1303.886719 1061.75 L 1315.609375 1061.75 L 1315.609375 1073.472656 L 1303.886719 1073.472656 Z M 1303.886719 1061.75 " fill-opacity="0.17" fill-rule="nonzero"/><path fill="#ffd9d9" d="M 1238.144531 1064.507812 L 1244.355469 1064.507812 L 1244.355469 1070.71875 L 1238.144531 1070.71875 Z M 1238.144531 1064.507812 " fill-opacity="0.43" fill-rule="nonzero"/><path fill="#bc4d4d" d="M 1167.46875 1062.332031 L 1178.027344 1062.332031 L 1178.027344 1072.890625 L 1167.46875 1072.890625 Z M 1167.46875 1062.332031 " fill-opacity="0.914" fill-rule="nonzero"/><path fill="#ffd9d9" d="M 1096.851562 1060.21875 L 1111.644531 1060.21875 L 1111.644531 1075.007812 L 1096.851562 1075.007812 Z M 1096.851562 1060.21875 " fill-opacity="0.17" fill-rule="nonzero"/><path fill="#bc4d4d" d="M 1029.613281 1061.480469 L 1041.878906 1061.480469 L 1041.878906 1073.746094 L 1029.613281 1073.746094 Z M 1029.613281 1061.480469 " fill-opacity="0.751" fill-rule="nonzero"/><path fill="#ffabab" d="M 960.863281 1061.226562 L 973.632812 1061.226562 L 973.632812 1073.996094 L 960.863281 1073.996094 Z M 960.863281 1061.226562 " fill-opacity="0.239" fill-rule="nonzero"/><path fill="#ffd9d9" d="M 894.28125 1063.148438 L 903.210938 1063.148438 L 903.210938 1072.074219 L 894.28125 1072.074219 Z M 894.28125 1063.148438 " fill-opacity="0.938" fill-rule="nonzero"/><path fill="#ffd9d9" d="M 824.988281 1062.351562 L 835.507812 1062.351562 L 835.507812 1072.871094 L 824.988281 1072.871094 Z M 824.988281 1062.351562 " fill-opacity="0.561" fill-rule="nonzero"/><path fill="#ffd9d9" d="M 758.195312 1064.058594 L 765.296875 1064.058594 L 765.296875 1071.164062 L 758.195312 1071.164062 Z M 758.195312 1064.058594 " fill-opacity="0.124" fill-rule="nonzero"/><path fill="#ffd9d9" d="M 691.035156 1065.398438 L 695.457031 1065.398438 L 695.457031 1069.824219 L 691.035156 1069.824219 Z M 691.035156 1065.398438 " fill-opacity="0.944" fill-rule="nonzero"/><path fill="#bc4d4d" d="M 622.4375 1065.300781 L 627.054688 1065.300781 L 627.054688 1069.921875 L 622.4375 1069.921875 Z M 622.4375 1065.300781 " fill-opacity="0.497" fill-rule="nonzero"/><path fill="#bc4d4d" d="M 553.003906 1064.371094 L 559.488281 1064.371094 L 559.488281 1070.851562 L 553.003906 1070.851562 Z M 553.003906 1064.371094 " fill-opacity="0.217" fill-rule="nonzero"/><path fill="#bc4d4d" d="M 483.863281 1063.730469 L 491.625 1063.730469 L 491.625 1071.492188 L 483.863281 1071.492188 Z M 483.863281 1063.730469 " fill-opacity="0.434" fill-rule="nonzero"/><path fill="#ffd9d9" d="M 416.605469 1064.972656 L 421.882812 1064.972656 L 421.882812 1070.25 L 416.605469 1070.25 Z M 416.605469 1064.972656 " fill-opacity="0.364" fill-rule="nonzero"/><path fill="#ffabab" d="M 346.882812 1063.75 L 354.605469 1063.75 L 354.605469 1071.472656 L 346.882812 1071.472656 Z M 346.882812 1063.75 " fill-opacity="0.866" fill-rule="nonzero"/><path fill="#ffabab" d="M 276.636719 1062.003906 L 287.851562 1062.003906 L 287.851562 1073.21875 L 276.636719 1073.21875 Z M 276.636719 1062.003906 " fill-opacity="0.898" fill-rule="nonzero"/><path fill="#ffabab" d="M 210.8125 1064.679688 L 216.675781 1064.679688 L 216.675781 1070.542969 L 210.8125 1070.542969 Z M 210.8125 1064.679688 " fill-opacity="0.132" fill-rule="nonzero"/><path fill="#bc4d4d" d="M 140.664062 1063.03125 L 149.824219 1063.03125 L 149.824219 1072.191406 L 140.664062 1072.191406 Z M 140.664062 1063.03125 " fill-opacity="0.973" fill-rule="nonzero"/><path fill="#ffabab" d="M 74.917969 1065.789062 L 78.566406 1065.789062 L 78.566406 1069.4375 L 74.917969 1069.4375 Z M 74.917969 1065.789062 " fill-opacity="0.182" fill-rule="nonzero"/><path fill="#ffd9d9" d="M 3.835938 1063.207031 L 12.648438 1063.207031 L 12.648438 1072.015625 L 3.835938 1072.015625 Z M 3.835938 1063.207031 " fill-opacity="0.786" fill-rule="nonzero"/><path fill="#ffabab" d="M 1438.539062 988.824219 L 1454.960938 988.824219 L 1454.960938 1005.246094 L 1438.539062 1005.246094 Z M 1438.539062 988.824219 " fill-opacity="0.421" fill-rule="nonzero"/><path fill="#ffabab" d="M 1372.464844 991.253906 L 1384.03125 991.253906 L 1384.03125 1002.820312 L 1372.464844 1002.820312 Z M 1372.464844 991.253906 " fill-opacity="0.902" fill-rule="nonzero"/><path fill="#ffd9d9" d="M 1301.210938 988.496094 L 1318.289062 988.496094 L 1318.289062 1005.574219 L 1301.210938 1005.574219 Z M 1301.210938 988.496094 " fill-opacity="0.598" fill-rule="nonzero"/><path fill="#ffabab" d="M 1236.222656 992.007812 L 1246.277344 992.007812 L 1246.277344 1002.0625 L 1236.222656 1002.0625 Z M 1236.222656 992.007812 " fill-opacity="0.73" fill-rule="nonzero"/><path fill="#ffabab" d="M 1164.207031 988.496094 L 1181.289062 988.496094 L 1181.289062 1005.574219 L 1164.207031 1005.574219 Z M 1164.207031 988.496094 " fill-opacity="0.623" fill-rule="nonzero"/><path fill="#bc4d4d" d="M 1100.578125 993.367188 L 1107.917969 993.367188 L 1107.917969 1000.703125 L 1100.578125 1000.703125 Z M 1100.578125 993.367188 " fill-opacity="0.292" fill-rule="nonzero"/><path fill="#ffd9d9" d="M 1033.515625 994.804688 L 1037.980469 994.804688 L 1037.980469 999.269531 L 1033.515625 999.269531 Z M 1033.515625 994.804688 " fill-opacity="0.922" fill-rule="nonzero"/><path fill="#ffd9d9" d="M 960.28125 990.066406 L 974.214844 990.066406 L 974.214844 1004.003906 L 960.28125 1004.003906 Z M 960.28125 990.066406 " fill-opacity="0.928" fill-rule="nonzero"/><path fill="#bc4d4d" d="M 893.175781 991.464844 L 904.316406 991.464844 L 904.316406 1002.605469 L 893.175781 1002.605469 Z M 893.175781 991.464844 " fill-opacity="0.813" fill-rule="nonzero"/><path fill="#ffabab" d="M 822.425781 989.214844 L 838.066406 989.214844 L 838.066406 1004.855469 L 822.425781 1004.855469 Z M 822.425781 989.214844 " fill-opacity="0.355" fill-rule="nonzero"/><path fill="#ffabab" d="M 759.574219 994.863281 L 763.921875 994.863281 L 763.921875 999.210938 L 759.574219 999.210938 Z M 759.574219 994.863281 " fill-opacity="0.571" fill-rule="nonzero"/><path fill="#ffabab" d="M 685.328125 989.117188 L 701.164062 989.117188 L 701.164062 1004.953125 L 685.328125 1004.953125 Z M 685.328125 989.117188 " fill-opacity="0.167" fill-rule="nonzero"/><path fill="#ffd9d9" d="M 616.671875 988.960938 L 632.820312 988.960938 L 632.820312 1005.109375 L 616.671875 1005.109375 Z M 616.671875 988.960938 " fill-opacity="0.778" fill-rule="nonzero"/><path fill="#ffd9d9" d="M 554.03125 994.824219 L 558.457031 994.824219 L 558.457031 999.25 L 554.03125 999.25 Z M 554.03125 994.824219 " fill-opacity="0.814" fill-rule="nonzero"/><path fill="#ffd9d9" d="M 484.15625 993.445312 L 491.335938 993.445312 L 491.335938 1000.625 L 484.15625 1000.625 Z M 484.15625 993.445312 " fill-opacity="0.3" fill-rule="nonzero"/><path fill="#ffabab" d="M 416.605469 994.394531 L 421.882812 994.394531 L 421.882812 999.675781 L 416.605469 999.675781 Z M 416.605469 994.394531 " fill-opacity="0.88" fill-rule="nonzero"/><path fill="#bc4d4d" d="M 345.621094 991.910156 L 355.867188 991.910156 L 355.867188 1002.160156 L 345.621094 1002.160156 Z M 345.621094 991.910156 " fill-opacity="0.776" fill-rule="nonzero"/><path fill="#ffabab" d="M 280.050781 994.84375 L 284.4375 994.84375 L 284.4375 999.230469 L 280.050781 999.230469 Z M 280.050781 994.84375 " fill-opacity="0.652" fill-rule="nonzero"/><path fill="#bc4d4d" d="M 209.28125 992.570312 L 218.207031 992.570312 L 218.207031 1001.5 L 209.28125 1001.5 Z M 209.28125 992.570312 " fill-opacity="0.305" fill-rule="nonzero"/><path fill="#bc4d4d" d="M 140.429688 992.222656 L 150.058594 992.222656 L 150.058594 1001.847656 L 140.429688 1001.847656 Z M 140.429688 992.222656 " fill-opacity="0.27" fill-rule="nonzero"/><path fill="#ffd9d9" d="M 71.464844 991.757812 L 82.023438 991.757812 L 82.023438 1002.316406 L 71.464844 1002.316406 Z M 71.464844 991.757812 " fill-opacity="0.658" fill-rule="nonzero"/><path fill="#bc4d4d" d="M 4.148438 992.941406 L 12.339844 992.941406 L 12.339844 1001.132812 L 4.148438 1001.132812 Z M 4.148438 992.941406 " fill-opacity="0.968" fill-rule="nonzero"/><path fill="#ffabab" d="M 1440.984375 920.695312 L 1452.515625 920.695312 L 1452.515625 932.222656 L 1440.984375 932.222656 Z M 1440.984375 920.695312 " fill-opacity="0.817" fill-rule="nonzero"/><path fill="#ffabab" d="M 1373.628906 921.839844 L 1382.867188 921.839844 L 1382.867188 931.078125 L 1373.628906 931.078125 Z M 1373.628906 921.839844 " fill-opacity="0.218" fill-rule="nonzero"/><path fill="#bc4d4d" d="M 1305.613281 922.324219 L 1313.882812 922.324219 L 1313.882812 930.59375 L 1305.613281 930.59375 Z M 1305.613281 922.324219 " fill-opacity="0.735" fill-rule="nonzero"/><path fill="#ffabab" d="M 1233.3125 918.519531 L 1249.1875 918.519531 L 1249.1875 934.398438 L 1233.3125 934.398438 Z M 1233.3125 918.519531 " fill-opacity="0.7" fill-rule="nonzero"/><path fill="#bc4d4d" d="M 1166.148438 919.859375 L 1179.347656 919.859375 L 1179.347656 933.058594 L 1166.148438 933.058594 Z M 1166.148438 919.859375 " fill-opacity="0.585" fill-rule="nonzero"/><path fill="#bc4d4d" d="M 1100.910156 923.121094 L 1107.585938 923.121094 L 1107.585938 929.796875 L 1100.910156 929.796875 Z M 1100.910156 923.121094 " fill-opacity="0.726" fill-rule="nonzero"/><path fill="#ffabab" d="M 1029.128906 919.839844 L 1042.367188 919.839844 L 1042.367188 933.078125 L 1029.128906 933.078125 Z M 1029.128906 919.839844 " fill-opacity="0.156" fill-rule="nonzero"/><path fill="#ffd9d9" d="M 960.339844 919.550781 L 974.15625 919.550781 L 974.15625 933.367188 L 960.339844 933.367188 Z M 960.339844 919.550781 " fill-opacity="0.537" fill-rule="nonzero"/><path fill="#ffabab" d="M 891.488281 919.199219 L 906.003906 919.199219 L 906.003906 933.71875 L 891.488281 933.71875 Z M 891.488281 919.199219 " fill-opacity="0.543" fill-rule="nonzero"/><path fill="#ffd9d9" d="M 825.898438 922.113281 L 834.59375 922.113281 L 834.59375 930.808594 L 825.898438 930.808594 Z M 825.898438 922.113281 " fill-opacity="0.617" fill-rule="nonzero"/><path fill="#bc4d4d" d="M 759.242188 923.957031 L 764.25 923.957031 L 764.25 928.964844 L 759.242188 928.964844 Z M 759.242188 923.957031 " fill-opacity="0.74" fill-rule="nonzero"/><path fill="#bc4d4d" d="M 688.996094 922.207031 L 697.496094 922.207031 L 697.496094 930.710938 L 688.996094 930.710938 Z M 688.996094 922.207031 " fill-opacity="0.401" fill-rule="nonzero"/><path fill="#ffd9d9" d="M 621.914062 923.625 L 627.578125 923.625 L 627.578125 929.292969 L 621.914062 929.292969 Z M 621.914062 923.625 " fill-opacity="0.977" fill-rule="nonzero"/><path fill="#bc4d4d" d="M 553.429688 923.644531 L 559.058594 923.644531 L 559.058594 929.273438 L 553.429688 929.273438 Z M 553.429688 923.644531 " fill-opacity="0.804" fill-rule="nonzero"/><path fill="#bc4d4d" d="M 479.496094 918.210938 L 495.992188 918.210938 L 495.992188 934.707031 L 479.496094 934.707031 Z M 479.496094 918.210938 " fill-opacity="0.27" fill-rule="nonzero"/><path fill="#ffabab" d="M 416.121094 923.335938 L 422.371094 923.335938 L 422.371094 929.585938 L 416.121094 929.585938 Z M 416.121094 923.335938 " fill-opacity="0.356" fill-rule="nonzero"/><path fill="#bc4d4d" d="M 342.632812 918.347656 L 358.855469 918.347656 L 358.855469 934.570312 L 342.632812 934.570312 Z M 342.632812 918.347656 " fill-opacity="0.756" fill-rule="nonzero"/><path fill="#ffd9d9" d="M 280.050781 924.265625 L 284.4375 924.265625 L 284.4375 928.652344 L 280.050781 928.652344 Z M 280.050781 924.265625 " fill-opacity="0.639" fill-rule="nonzero"/><path fill="#bc4d4d" d="M 205.457031 918.171875 L 222.03125 918.171875 L 222.03125 934.746094 L 205.457031 934.746094 Z M 205.457031 918.171875 " fill-opacity="0.212" fill-rule="nonzero"/><path fill="#bc4d4d" d="M 137.5 918.714844 L 152.988281 918.714844 L 152.988281 934.203125 L 137.5 934.203125 Z M 137.5 918.714844 " fill-opacity="0.633" fill-rule="nonzero"/><path fill="#ffd9d9" d="M 73.367188 923.082031 L 80.121094 923.082031 L 80.121094 929.835938 L 73.367188 929.835938 Z M 73.367188 923.082031 " fill-opacity="0.727" fill-rule="nonzero"/><path fill="#ffabab" d="M 3.527344 921.742188 L 12.960938 921.742188 L 12.960938 931.175781 L 3.527344 931.175781 Z M 3.527344 921.742188 " fill-opacity="0.849" fill-rule="nonzero"/><path fill="#ffd9d9" d="M 1438.984375 848.121094 L 1454.511719 848.121094 L 1454.511719 863.648438 L 1438.984375 863.648438 Z M 1438.984375 848.121094 " fill-opacity="0.692" fill-rule="nonzero"/><path fill="#ffd9d9" d="M 1376.25 853.882812 L 1380.25 853.882812 L 1380.25 857.882812 L 1376.25 857.882812 Z M 1376.25 853.882812 " fill-opacity="0.761" fill-rule="nonzero"/><path fill="#ffd9d9" d="M 1301.867188 848.003906 L 1317.628906 848.003906 L 1317.628906 863.761719 L 1301.867188 863.761719 Z M 1301.867188 848.003906 " fill-opacity="0.411" fill-rule="nonzero"/><path fill="#bc4d4d" d="M 1233 847.636719 L 1249.496094 847.636719 L 1249.496094 864.132812 L 1233 864.132812 Z M 1233 847.636719 " fill-opacity="0.164" fill-rule="nonzero"/><path fill="#ffd9d9" d="M 1164.867188 848.003906 L 1180.628906 848.003906 L 1180.628906 863.761719 L 1164.867188 863.761719 Z M 1164.867188 848.003906 " fill-opacity="0.583" fill-rule="nonzero"/><path fill="#ffd9d9" d="M 1096.097656 847.730469 L 1112.398438 847.730469 L 1112.398438 864.035156 L 1096.097656 864.035156 Z M 1096.097656 847.730469 " fill-opacity="0.583" fill-rule="nonzero"/><path fill="#ffd9d9" d="M 1029.1875 849.324219 L 1042.308594 849.324219 L 1042.308594 862.445312 L 1029.1875 862.445312 Z M 1029.1875 849.324219 " fill-opacity="0.627" fill-rule="nonzero"/><path fill="#ffd9d9" d="M 960.066406 848.703125 L 974.429688 848.703125 L 974.429688 863.066406 L 960.066406 863.066406 Z M 960.066406 848.703125 " fill-opacity="0.655" fill-rule="nonzero"/><path fill="#ffd9d9" d="M 896.785156 853.921875 L 900.707031 853.921875 L 900.707031 857.84375 L 896.785156 857.84375 Z M 896.785156 853.921875 " fill-opacity="0.506" fill-rule="nonzero"/><path fill="#ffabab" d="M 827.160156 852.796875 L 833.332031 852.796875 L 833.332031 858.96875 L 827.160156 858.96875 Z M 827.160156 852.796875 " fill-opacity="0.538" fill-rule="nonzero"/><path fill="#ffd9d9" d="M 759.902344 854.039062 L 763.589844 854.039062 L 763.589844 857.726562 L 759.902344 857.726562 Z M 759.902344 854.039062 " fill-opacity="0.831" fill-rule="nonzero"/><path fill="#bc4d4d" d="M 684.765625 847.402344 L 701.726562 847.402344 L 701.726562 864.363281 L 684.765625 864.363281 Z M 684.765625 847.402344 " fill-opacity="0.192" fill-rule="nonzero"/><path fill="#bc4d4d" d="M 617.816406 848.953125 L 631.675781 848.953125 L 631.675781 862.8125 L 617.816406 862.8125 Z M 617.816406 848.953125 " fill-opacity="0.334" fill-rule="nonzero"/><path fill="#ffd9d9" d="M 550.734375 850.371094 L 561.757812 850.371094 L 561.757812 861.394531 L 550.734375 861.394531 Z M 550.734375 850.371094 " fill-opacity="0.186" fill-rule="nonzero"/><path fill="#ffd9d9" d="M 483.496094 851.632812 L 491.996094 851.632812 L 491.996094 860.132812 L 483.496094 860.132812 Z M 483.496094 851.632812 " fill-opacity="0.102" fill-rule="nonzero"/><path fill="#ffd9d9" d="M 414.78125 851.417969 L 423.707031 851.417969 L 423.707031 860.347656 L 414.78125 860.347656 Z M 414.78125 851.417969 " fill-opacity="0.28" fill-rule="nonzero"/><path fill="#ffd9d9" d="M 346.183594 851.324219 L 355.304688 851.324219 L 355.304688 860.445312 L 346.183594 860.445312 Z M 346.183594 851.324219 " fill-opacity="0.26" fill-rule="nonzero"/><path fill="#bc4d4d" d="M 277.703125 851.34375 L 286.785156 851.34375 L 286.785156 860.425781 L 277.703125 860.425781 Z M 277.703125 851.34375 " fill-opacity="0.834" fill-rule="nonzero"/><path fill="#ffabab" d="M 207.746094 849.886719 L 219.742188 849.886719 L 219.742188 861.878906 L 207.746094 861.878906 Z M 207.746094 849.886719 " fill-opacity="0.62" fill-rule="nonzero"/><path fill="#ffd9d9" d="M 138.003906 848.644531 L 152.484375 848.644531 L 152.484375 863.121094 L 138.003906 863.121094 Z M 138.003906 848.644531 " fill-opacity="0.537" fill-rule="nonzero"/><path fill="#bc4d4d" d="M 70.164062 849.304688 L 83.324219 849.304688 L 83.324219 862.460938 L 70.164062 862.460938 Z M 70.164062 849.304688 " fill-opacity="0.93" fill-rule="nonzero"/><path fill="#bc4d4d" d="M 6.476562 854.117188 L 10.007812 854.117188 L 10.007812 857.648438 L 6.476562 857.648438 Z M 6.476562 854.117188 " fill-opacity="0.14" fill-rule="nonzero"/><path fill="#bc4d4d" d="M 1439.160156 777.71875 L 1454.339844 777.71875 L 1454.339844 792.894531 L 1439.160156 792.894531 Z M 1439.160156 777.71875 " fill-opacity="0.592" fill-rule="nonzero"/><path fill="#bc4d4d" d="M 1375.472656 782.53125 L 1381.023438 782.53125 L 1381.023438 788.082031 L 1375.472656 788.082031 Z M 1375.472656 782.53125 " fill-opacity="0.976" fill-rule="nonzero"/><path fill="#bc4d4d" d="M 1302.199219 777.757812 L 1317.296875 777.757812 L 1317.296875 792.855469 L 1302.199219 792.855469 Z M 1302.199219 777.757812 " fill-opacity="0.564" fill-rule="nonzero"/><path fill="#bc4d4d" d="M 1234.457031 778.515625 L 1248.042969 778.515625 L 1248.042969 792.101562 L 1234.457031 792.101562 Z M 1234.457031 778.515625 " fill-opacity="0.415" fill-rule="nonzero"/><path fill="#ffabab" d="M 1165.625 778.183594 L 1179.871094 778.183594 L 1179.871094 792.429688 L 1165.625 792.429688 Z M 1165.625 778.183594 " fill-opacity="0.253" fill-rule="nonzero"/><path fill="#bc4d4d" d="M 1101.6875 782.746094 L 1106.808594 782.746094 L 1106.808594 787.871094 L 1101.6875 787.871094 Z M 1101.6875 782.746094 " fill-opacity="0.972" fill-rule="nonzero"/><path fill="#ffd9d9" d="M 1027.519531 777.078125 L 1043.976562 777.078125 L 1043.976562 793.535156 L 1027.519531 793.535156 Z M 1027.519531 777.078125 " fill-opacity="0.458" fill-rule="nonzero"/><path fill="#ffabab" d="M 963.386719 781.445312 L 971.109375 781.445312 L 971.109375 789.167969 L 963.386719 789.167969 Z M 963.386719 781.445312 " fill-opacity="0.508" fill-rule="nonzero"/><path fill="#ffabab" d="M 893.410156 779.96875 L 904.085938 779.96875 L 904.085938 790.644531 L 893.410156 790.644531 Z M 893.410156 779.96875 " fill-opacity="0.913" fill-rule="nonzero"/><path fill="#bc4d4d" d="M 823.394531 778.457031 L 837.097656 778.457031 L 837.097656 792.160156 L 823.394531 792.160156 Z M 823.394531 778.457031 " fill-opacity="0.745" fill-rule="nonzero"/><path fill="#ffabab" d="M 755.417969 778.980469 L 768.074219 778.980469 L 768.074219 791.632812 L 755.417969 791.632812 Z M 755.417969 778.980469 " fill-opacity="0.718" fill-rule="nonzero"/><path fill="#ffabab" d="M 688.003906 780.066406 L 698.484375 780.066406 L 698.484375 790.546875 L 688.003906 790.546875 Z M 688.003906 780.066406 " fill-opacity="0.691" fill-rule="nonzero"/><path fill="#ffd9d9" d="M 616.710938 777.273438 L 632.78125 777.273438 L 632.78125 793.34375 L 616.710938 793.34375 Z M 616.710938 777.273438 " fill-opacity="0.459" fill-rule="nonzero"/><path fill="#ffd9d9" d="M 550.132812 779.195312 L 562.359375 779.195312 L 562.359375 791.421875 L 550.132812 791.421875 Z M 550.132812 779.195312 " fill-opacity="0.308" fill-rule="nonzero"/><path fill="#bc4d4d" d="M 484.210938 781.773438 L 491.277344 781.773438 L 491.277344 788.839844 L 484.210938 788.839844 Z M 484.210938 781.773438 " fill-opacity="0.181" fill-rule="nonzero"/><path fill="#ffd9d9" d="M 416.839844 782.902344 L 421.652344 782.902344 L 421.652344 787.714844 L 416.839844 787.714844 Z M 416.839844 782.902344 " fill-opacity="0.191" fill-rule="nonzero"/><path fill="#bc4d4d" d="M 348.882812 783.445312 L 352.609375 783.445312 L 352.609375 787.171875 L 348.882812 787.171875 Z M 348.882812 783.445312 " fill-opacity="0.998" fill-rule="nonzero"/><path fill="#bc4d4d" d="M 280.285156 783.347656 L 284.203125 783.347656 L 284.203125 787.265625 L 280.285156 787.265625 Z M 280.285156 783.347656 " fill-opacity="0.712" fill-rule="nonzero"/><path fill="#bc4d4d" d="M 206.273438 777.835938 L 221.214844 777.835938 L 221.214844 792.78125 L 206.273438 792.78125 Z M 206.273438 777.835938 " fill-opacity="0.324" fill-rule="nonzero"/><path fill="#bc4d4d" d="M 142.953125 783.015625 L 147.535156 783.015625 L 147.535156 787.597656 L 142.953125 787.597656 Z M 142.953125 783.015625 " fill-opacity="0.331" fill-rule="nonzero"/><path fill="#ffd9d9" d="M 73.988281 782.550781 L 79.5 782.550781 L 79.5 788.0625 L 73.988281 788.0625 Z M 73.988281 782.550781 " fill-opacity="0.732" fill-rule="nonzero"/><path fill="#ffabab" d="M 1.664062 778.726562 L 14.820312 778.726562 L 14.820312 791.886719 L 1.664062 791.886719 Z M 1.664062 778.726562 " fill-opacity="0.486" fill-rule="nonzero"/><path fill="#ffd9d9" d="M 1438.210938 706.191406 L 1455.289062 706.191406 L 1455.289062 723.269531 L 1438.210938 723.269531 Z M 1438.210938 706.191406 " fill-opacity="0.928" fill-rule="nonzero"/><path fill="#ffabab" d="M 1374.792969 711.277344 L 1381.703125 711.277344 L 1381.703125 718.1875 L 1374.792969 718.1875 Z M 1374.792969 711.277344 " fill-opacity="0.275" fill-rule="nonzero"/><path fill="#ffabab" d="M 1304.410156 709.394531 L 1315.085938 709.394531 L 1315.085938 720.070312 L 1304.410156 720.070312 Z M 1304.410156 709.394531 " fill-opacity="0.692" fill-rule="nonzero"/><path fill="#ffabab" d="M 1237.621094 711.101562 L 1244.878906 711.101562 L 1244.878906 718.359375 L 1237.621094 718.359375 Z M 1237.621094 711.101562 " fill-opacity="0.313" fill-rule="nonzero"/><path fill="#bc4d4d" d="M 1169.136719 711.121094 L 1176.359375 711.121094 L 1176.359375 718.339844 L 1169.136719 718.339844 Z M 1169.136719 711.121094 " fill-opacity="0.548" fill-rule="nonzero"/><path fill="#bc4d4d" d="M 1100.386719 710.867188 L 1108.109375 710.867188 L 1108.109375 718.59375 L 1100.386719 718.59375 Z M 1100.386719 710.867188 " fill-opacity="0.888" fill-rule="nonzero"/><path fill="#bc4d4d" d="M 1027.578125 706.558594 L 1043.917969 706.558594 L 1043.917969 722.902344 L 1027.578125 722.902344 Z M 1027.578125 706.558594 " fill-opacity="0.995" fill-rule="nonzero"/><path fill="#bc4d4d" d="M 963.191406 710.675781 L 971.304688 710.675781 L 971.304688 718.789062 L 963.191406 718.789062 Z M 963.191406 710.675781 " fill-opacity="0.268" fill-rule="nonzero"/><path fill="#ffabab" d="M 893.097656 709.082031 L 904.394531 709.082031 L 904.394531 720.378906 L 893.097656 720.378906 Z M 893.097656 709.082031 " fill-opacity="0.213" fill-rule="nonzero"/><path fill="#ffd9d9" d="M 824.035156 708.519531 L 836.457031 708.519531 L 836.457031 720.941406 L 824.035156 720.941406 Z M 824.035156 708.519531 " fill-opacity="0.225" fill-rule="nonzero"/><path fill="#ffabab" d="M 757.242188 710.230469 L 766.25 710.230469 L 766.25 719.234375 L 757.242188 719.234375 Z M 757.242188 710.230469 " fill-opacity="0.853" fill-rule="nonzero"/><path fill="#ffabab" d="M 687.714844 709.199219 L 698.777344 709.199219 L 698.777344 720.261719 L 687.714844 720.261719 Z M 687.714844 709.199219 " fill-opacity="0.478" fill-rule="nonzero"/><path fill="#ffd9d9" d="M 621.5625 711.546875 L 627.929688 711.546875 L 627.929688 717.914062 L 621.5625 717.914062 Z M 621.5625 711.546875 " fill-opacity="0.352" fill-rule="nonzero"/><path fill="#ffd9d9" d="M 549.570312 708.054688 L 562.921875 708.054688 L 562.921875 721.40625 L 549.570312 721.40625 Z M 549.570312 708.054688 " fill-opacity="0.978" fill-rule="nonzero"/><path fill="#ffd9d9" d="M 483.261719 710.246094 L 492.226562 710.246094 L 492.226562 719.214844 L 483.261719 719.214844 Z M 483.261719 710.246094 " fill-opacity="0.196" fill-rule="nonzero"/><path fill="#ffd9d9" d="M 413.304688 708.792969 L 425.183594 708.792969 L 425.183594 720.671875 L 413.304688 720.671875 Z M 413.304688 708.792969 " fill-opacity="0.23" fill-rule="nonzero"/><path fill="#bc4d4d" d="M 342.457031 706.445312 L 359.03125 706.445312 L 359.03125 723.019531 L 342.457031 723.019531 Z M 342.457031 706.445312 " fill-opacity="0.771" fill-rule="nonzero"/><path fill="#ffabab" d="M 280.1875 712.675781 L 284.300781 712.675781 L 284.300781 716.789062 L 280.1875 716.789062 Z M 280.1875 712.675781 " fill-opacity="0.965" fill-rule="nonzero"/><path fill="#bc4d4d" d="M 211.046875 712.035156 L 216.441406 712.035156 L 216.441406 717.429688 L 211.046875 717.429688 Z M 211.046875 712.035156 " fill-opacity="0.407" fill-rule="nonzero"/><path fill="#bc4d4d" d="M 140.160156 709.644531 L 150.328125 709.644531 L 150.328125 719.816406 L 140.160156 719.816406 Z M 140.160156 709.644531 " fill-opacity="0.994" fill-rule="nonzero"/><path fill="#ffd9d9" d="M 73.949219 711.9375 L 79.539062 711.9375 L 79.539062 717.527344 L 73.949219 717.527344 Z M 73.949219 711.9375 " fill-opacity="0.862" fill-rule="nonzero"/><path fill="#ffabab" d="M 5.429688 711.917969 L 11.058594 711.917969 L 11.058594 717.546875 L 5.429688 717.546875 Z M 5.429688 711.917969 " fill-opacity="0.999" fill-rule="nonzero"/><path fill="#ffd9d9" d="M 1441.101562 638.507812 L 1452.398438 638.507812 L 1452.398438 649.804688 L 1441.101562 649.804688 Z M 1441.101562 638.507812 " fill-opacity="0.173" fill-rule="nonzero"/><path fill="#ffd9d9" d="M 1375.957031 641.863281 L 1380.539062 641.863281 L 1380.539062 646.445312 L 1375.957031 646.445312 Z M 1375.957031 641.863281 " fill-opacity="0.322" fill-rule="nonzero"/><path fill="#bc4d4d" d="M 1306.761719 641.167969 L 1312.738281 641.167969 L 1312.738281 647.144531 L 1306.761719 647.144531 Z M 1306.761719 641.167969 " fill-opacity="0.257" fill-rule="nonzero"/><path fill="#bc4d4d" d="M 1234.222656 637.128906 L 1248.273438 637.128906 L 1248.273438 651.179688 L 1234.222656 651.179688 Z M 1234.222656 637.128906 " fill-opacity="0.679" fill-rule="nonzero"/><path fill="#ffabab" d="M 1165.683594 637.089844 L 1179.8125 637.089844 L 1179.8125 651.21875 L 1165.683594 651.21875 Z M 1165.683594 637.089844 " fill-opacity="0.493" fill-rule="nonzero"/><path fill="#bc4d4d" d="M 1096.523438 636.429688 L 1111.972656 636.429688 L 1111.972656 651.878906 L 1096.523438 651.878906 Z M 1096.523438 636.429688 " fill-opacity="0.332" fill-rule="nonzero"/><path fill="#bc4d4d" d="M 1032.15625 640.566406 L 1039.339844 640.566406 L 1039.339844 647.746094 L 1032.15625 647.746094 Z M 1032.15625 640.566406 " fill-opacity="0.809" fill-rule="nonzero"/><path fill="#ffd9d9" d="M 965.191406 642.097656 L 969.304688 642.097656 L 969.304688 646.210938 L 965.191406 646.210938 Z M 965.191406 642.097656 " fill-opacity="0.461" fill-rule="nonzero"/><path fill="#bc4d4d" d="M 891.742188 637.148438 L 905.753906 637.148438 L 905.753906 651.160156 L 891.742188 651.160156 Z M 891.742188 637.148438 " fill-opacity="0.104" fill-rule="nonzero"/><path fill="#ffd9d9" d="M 823.296875 637.207031 L 837.195312 637.207031 L 837.195312 651.101562 L 823.296875 651.101562 Z M 823.296875 637.207031 " fill-opacity="0.432" fill-rule="nonzero"/><path fill="#ffabab" d="M 759.300781 641.710938 L 764.191406 641.710938 L 764.191406 646.601562 L 759.300781 646.601562 Z M 759.300781 641.710938 " fill-opacity="0.14" fill-rule="nonzero"/><path fill="#ffd9d9" d="M 688.53125 639.4375 L 697.960938 639.4375 L 697.960938 648.871094 L 688.53125 648.871094 Z M 688.53125 639.4375 " fill-opacity="0.6" fill-rule="nonzero"/><path fill="#ffd9d9" d="M 619.777344 639.1875 L 629.714844 639.1875 L 629.714844 649.125 L 619.777344 649.125 Z M 619.777344 639.1875 " fill-opacity="0.927" fill-rule="nonzero"/><path fill="#bc4d4d" d="M 550.09375 638.003906 L 562.398438 638.003906 L 562.398438 650.308594 L 550.09375 650.308594 Z M 550.09375 638.003906 " fill-opacity="0.136" fill-rule="nonzero"/><path fill="#bc4d4d" d="M 482.386719 638.796875 L 493.101562 638.796875 L 493.101562 649.511719 L 482.386719 649.511719 Z M 482.386719 638.796875 " fill-opacity="0.437" fill-rule="nonzero"/><path fill="#bc4d4d" d="M 414.46875 639.378906 L 424.019531 639.378906 L 424.019531 648.929688 L 414.46875 648.929688 Z M 414.46875 639.378906 " fill-opacity="0.415" fill-rule="nonzero"/><path fill="#ffabab" d="M 348.414062 641.828125 L 353.074219 641.828125 L 353.074219 646.484375 L 348.414062 646.484375 Z M 348.414062 641.828125 " fill-opacity="0.669" fill-rule="nonzero"/><path fill="#bc4d4d" d="M 278.769531 640.679688 L 285.71875 640.679688 L 285.71875 647.628906 L 278.769531 647.628906 Z M 278.769531 640.679688 " fill-opacity="0.991" fill-rule="nonzero"/><path fill="#bc4d4d" d="M 208.25 638.664062 L 219.238281 638.664062 L 219.238281 649.648438 L 208.25 649.648438 Z M 208.25 638.664062 " fill-opacity="0.28" fill-rule="nonzero"/><path fill="#ffd9d9" d="M 137.304688 636.21875 L 153.179688 636.21875 L 153.179688 652.09375 L 137.304688 652.09375 Z M 137.304688 636.21875 " fill-opacity="0.156" fill-rule="nonzero"/><path fill="#ffd9d9" d="M 72.105469 639.515625 L 81.382812 639.515625 L 81.382812 648.792969 L 72.105469 648.792969 Z M 72.105469 639.515625 " fill-opacity="0.804" fill-rule="nonzero"/><path fill="#ffd9d9" d="M 1.761719 637.671875 L 14.726562 637.671875 L 14.726562 650.636719 L 1.761719 650.636719 Z M 1.761719 637.671875 " fill-opacity="0.701" fill-rule="nonzero"/><path fill="#ffabab" d="M 1444.148438 570.980469 L 1449.351562 570.980469 L 1449.351562 576.179688 L 1444.148438 576.179688 Z M 1444.148438 570.980469 " fill-opacity="0.626" fill-rule="nonzero"/><path fill="#ffabab" d="M 1372.796875 568.125 L 1383.703125 568.125 L 1383.703125 579.03125 L 1372.796875 579.03125 Z M 1372.796875 568.125 " fill-opacity="0.621" fill-rule="nonzero"/><path fill="#ffd9d9" d="M 1303.207031 567.039062 L 1316.289062 567.039062 L 1316.289062 580.121094 L 1303.207031 580.121094 Z M 1303.207031 567.039062 " fill-opacity="0.632" fill-rule="nonzero"/><path fill="#ffd9d9" d="M 1235.230469 567.5625 L 1247.265625 567.5625 L 1247.265625 579.597656 L 1235.230469 579.597656 Z M 1235.230469 567.5625 " fill-opacity="0.298" fill-rule="nonzero"/><path fill="#ffd9d9" d="M 1167.003906 567.835938 L 1178.492188 567.835938 L 1178.492188 579.324219 L 1167.003906 579.324219 Z M 1167.003906 567.835938 " fill-opacity="0.516" fill-rule="nonzero"/><path fill="#ffd9d9" d="M 1096.230469 565.5625 L 1112.261719 565.5625 L 1112.261719 581.59375 L 1096.230469 581.59375 Z M 1096.230469 565.5625 " fill-opacity="0.675" fill-rule="nonzero"/><path fill="#ffd9d9" d="M 1032.078125 569.910156 L 1039.414062 569.910156 L 1039.414062 577.246094 L 1032.078125 577.246094 Z M 1032.078125 569.910156 " fill-opacity="0.552" fill-rule="nonzero"/><path fill="#ffd9d9" d="M 963.65625 569.988281 L 970.839844 569.988281 L 970.839844 577.167969 L 963.65625 577.167969 Z M 963.65625 569.988281 " fill-opacity="0.256" fill-rule="nonzero"/><path fill="#ffabab" d="M 893.390625 568.222656 L 904.105469 568.222656 L 904.105469 578.9375 L 893.390625 578.9375 Z M 893.390625 568.222656 " fill-opacity="0.52" fill-rule="nonzero"/><path fill="#bc4d4d" d="M 826.480469 569.8125 L 834.011719 569.8125 L 834.011719 577.34375 L 826.480469 577.34375 Z M 826.480469 569.8125 " fill-opacity="0.533" fill-rule="nonzero"/><path fill="#ffabab" d="M 754.933594 566.765625 L 768.558594 566.765625 L 768.558594 580.390625 L 754.933594 580.390625 Z M 754.933594 566.765625 " fill-opacity="0.613" fill-rule="nonzero"/><path fill="#ffd9d9" d="M 689.285156 569.621094 L 697.207031 569.621094 L 697.207031 577.539062 L 689.285156 577.539062 Z M 689.285156 569.621094 " fill-opacity="0.203" fill-rule="nonzero"/><path fill="#bc4d4d" d="M 622.066406 570.902344 L 627.425781 570.902344 L 627.425781 576.257812 L 622.066406 576.257812 Z M 622.066406 570.902344 " fill-opacity="0.378" fill-rule="nonzero"/><path fill="#ffd9d9" d="M 550.25 567.582031 L 562.242188 567.582031 L 562.242188 579.578125 L 550.25 579.578125 Z M 550.25 567.582031 " fill-opacity="0.548" fill-rule="nonzero"/><path fill="#bc4d4d" d="M 485.398438 571.230469 L 490.09375 571.230469 L 490.09375 575.925781 L 485.398438 575.925781 Z M 485.398438 571.230469 " fill-opacity="0.29" fill-rule="nonzero"/><path fill="#bc4d4d" d="M 413.773438 568.105469 L 424.71875 568.105469 L 424.71875 579.050781 L 413.773438 579.050781 Z M 413.773438 568.105469 " fill-opacity="0.149" fill-rule="nonzero"/><path fill="#bc4d4d" d="M 343.972656 566.804688 L 357.519531 566.804688 L 357.519531 580.351562 L 343.972656 580.351562 Z M 343.972656 566.804688 " fill-opacity="0.733" fill-rule="nonzero"/><path fill="#bc4d4d" d="M 279.0625 570.394531 L 285.425781 570.394531 L 285.425781 576.761719 L 279.0625 576.761719 Z M 279.0625 570.394531 " fill-opacity="0.536" fill-rule="nonzero"/><path fill="#ffabab" d="M 206.117188 565.953125 L 221.371094 565.953125 L 221.371094 581.207031 L 206.117188 581.207031 Z M 206.117188 565.953125 " fill-opacity="0.356" fill-rule="nonzero"/><path fill="#ffd9d9" d="M 137.246094 565.582031 L 153.238281 565.582031 L 153.238281 581.574219 L 137.246094 581.574219 Z M 137.246094 565.582031 " fill-opacity="0.276" fill-rule="nonzero"/><path fill="#ffd9d9" d="M 73.578125 570.414062 L 79.90625 570.414062 L 79.90625 576.742188 L 73.578125 576.742188 Z M 73.578125 570.414062 " fill-opacity="0.111" fill-rule="nonzero"/><path fill="#bc4d4d" d="M 4.496094 569.832031 L 11.988281 569.832031 L 11.988281 577.324219 L 4.496094 577.324219 Z M 4.496094 569.832031 " fill-opacity="0.675" fill-rule="nonzero"/><path fill="#bc4d4d" d="M 1443.527344 499.78125 L 1449.972656 499.78125 L 1449.972656 506.226562 L 1443.527344 506.226562 Z M 1443.527344 499.78125 " fill-opacity="0.714" fill-rule="nonzero"/><path fill="#ffd9d9" d="M 1370.058594 494.8125 L 1386.441406 494.8125 L 1386.441406 511.191406 L 1370.058594 511.191406 Z M 1370.058594 494.8125 " fill-opacity="0.398" fill-rule="nonzero"/><path fill="#bc4d4d" d="M 1301.617188 494.871094 L 1317.878906 494.871094 L 1317.878906 511.136719 L 1301.617188 511.136719 Z M 1301.617188 494.871094 " fill-opacity="0.354" fill-rule="nonzero"/><path fill="#ffabab" d="M 1235.96875 497.722656 L 1246.527344 497.722656 L 1246.527344 508.28125 L 1235.96875 508.28125 Z M 1235.96875 497.722656 " fill-opacity="0.781" fill-rule="nonzero"/><path fill="#bc4d4d" d="M 1166.730469 496.984375 L 1178.765625 496.984375 L 1178.765625 509.019531 L 1166.730469 509.019531 Z M 1166.730469 496.984375 " fill-opacity="0.831" fill-rule="nonzero"/><path fill="#bc4d4d" d="M 1097.863281 496.617188 L 1110.632812 496.617188 L 1110.632812 509.386719 L 1097.863281 509.386719 Z M 1097.863281 496.617188 " fill-opacity="0.348" fill-rule="nonzero"/><path fill="#ffabab" d="M 1028.546875 495.800781 L 1042.949219 495.800781 L 1042.949219 510.203125 L 1028.546875 510.203125 Z M 1028.546875 495.800781 " fill-opacity="0.202" fill-rule="nonzero"/><path fill="#ffabab" d="M 961.851562 497.605469 L 972.644531 497.605469 L 972.644531 508.398438 L 961.851562 508.398438 Z M 961.851562 497.605469 " fill-opacity="0.96" fill-rule="nonzero"/><path fill="#ffabab" d="M 894.148438 498.402344 L 903.347656 498.402344 L 903.347656 507.601562 L 894.148438 507.601562 Z M 894.148438 498.402344 " fill-opacity="0.13" fill-rule="nonzero"/><path fill="#bc4d4d" d="M 823.609375 496.363281 L 836.882812 496.363281 L 836.882812 509.640625 L 823.609375 509.640625 Z M 823.609375 496.363281 " fill-opacity="0.562" fill-rule="nonzero"/><path fill="#bc4d4d" d="M 757.476562 498.734375 L 766.015625 498.734375 L 766.015625 507.273438 L 757.476562 507.273438 Z M 757.476562 498.734375 " fill-opacity="0.871" fill-rule="nonzero"/><path fill="#ffd9d9" d="M 687.402344 497.160156 L 699.089844 497.160156 L 699.089844 508.84375 L 687.402344 508.84375 Z M 687.402344 497.160156 " fill-opacity="0.581" fill-rule="nonzero"/><path fill="#ffd9d9" d="M 619.640625 497.898438 L 629.851562 497.898438 L 629.851562 508.105469 L 619.640625 508.105469 Z M 619.640625 497.898438 " fill-opacity="0.994" fill-rule="nonzero"/><path fill="#bc4d4d" d="M 554.324219 501.082031 L 558.167969 501.082031 L 558.167969 504.925781 L 554.324219 504.925781 Z M 554.324219 501.082031 " fill-opacity="0.209" fill-rule="nonzero"/><path fill="#bc4d4d" d="M 481.222656 496.480469 L 494.265625 496.480469 L 494.265625 509.523438 L 481.222656 509.523438 Z M 481.222656 496.480469 " fill-opacity="0.607" fill-rule="nonzero"/><path fill="#bc4d4d" d="M 411.191406 494.949219 L 427.300781 494.949219 L 427.300781 511.058594 L 411.191406 511.058594 Z M 411.191406 494.949219 " fill-opacity="0.154" fill-rule="nonzero"/><path fill="#ffd9d9" d="M 347.019531 499.277344 L 354.472656 499.277344 L 354.472656 506.730469 L 347.019531 506.730469 Z M 347.019531 499.277344 " fill-opacity="0.719" fill-rule="nonzero"/><path fill="#ffabab" d="M 276.558594 497.316406 L 287.929688 497.316406 L 287.929688 508.691406 L 276.558594 508.691406 Z M 276.558594 497.316406 " fill-opacity="0.833" fill-rule="nonzero"/><path fill="#ffabab" d="M 205.339844 494.597656 L 222.148438 494.597656 L 222.148438 511.40625 L 205.339844 511.40625 Z M 205.339844 494.597656 " fill-opacity="0.622" fill-rule="nonzero"/><path fill="#ffabab" d="M 141.554688 499.316406 L 148.929688 499.316406 L 148.929688 506.691406 L 141.554688 506.691406 Z M 141.554688 499.316406 " fill-opacity="0.519" fill-rule="nonzero"/><path fill="#ffd9d9" d="M 71.621094 497.878906 L 81.867188 497.878906 L 81.867188 508.125 L 71.621094 508.125 Z M 71.621094 497.878906 " fill-opacity="0.791" fill-rule="nonzero"/><path fill="#ffabab" d="M 3.527344 498.285156 L 12.960938 498.285156 L 12.960938 507.71875 L 3.527344 507.71875 Z M 3.527344 498.285156 " fill-opacity="0.542" fill-rule="nonzero"/><path fill="#ffabab" d="M 1444.285156 429.960938 L 1449.214844 429.960938 L 1449.214844 434.890625 L 1444.285156 434.890625 Z M 1444.285156 429.960938 " fill-opacity="0.934" fill-rule="nonzero"/><path fill="#bc4d4d" d="M 1375.882812 430.058594 L 1380.617188 430.058594 L 1380.617188 434.792969 L 1375.882812 434.792969 Z M 1375.882812 430.058594 " fill-opacity="0.973" fill-rule="nonzero"/><path fill="#ffabab" d="M 1302.898438 425.574219 L 1316.601562 425.574219 L 1316.601562 439.277344 L 1302.898438 439.277344 Z M 1302.898438 425.574219 " fill-opacity="0.577" fill-rule="nonzero"/><path fill="#ffd9d9" d="M 1235.523438 426.703125 L 1246.972656 426.703125 L 1246.972656 438.152344 L 1235.523438 438.152344 Z M 1235.523438 426.703125 " fill-opacity="0.124" fill-rule="nonzero"/><path fill="#ffd9d9" d="M 1166.265625 425.945312 L 1179.230469 425.945312 L 1179.230469 438.910156 L 1166.265625 438.910156 Z M 1166.265625 425.945312 " fill-opacity="0.349" fill-rule="nonzero"/><path fill="#bc4d4d" d="M 1099.921875 428.097656 L 1108.574219 428.097656 L 1108.574219 436.753906 L 1099.921875 436.753906 Z M 1099.921875 428.097656 " fill-opacity="0.59" fill-rule="nonzero"/><path fill="#ffabab" d="M 1027.867188 424.546875 L 1043.628906 424.546875 L 1043.628906 440.308594 L 1027.867188 440.308594 Z M 1027.867188 424.546875 " fill-opacity="0.784" fill-rule="nonzero"/><path fill="#ffd9d9" d="M 960.359375 425.535156 L 974.136719 425.535156 L 974.136719 439.316406 L 960.359375 439.316406 Z M 960.359375 425.535156 " fill-opacity="0.768" fill-rule="nonzero"/><path fill="#ffabab" d="M 896.59375 430.273438 L 900.902344 430.273438 L 900.902344 434.582031 L 896.59375 434.582031 Z M 896.59375 430.273438 " fill-opacity="0.187" fill-rule="nonzero"/><path fill="#ffd9d9" d="M 822.96875 425.148438 L 837.523438 425.148438 L 837.523438 439.703125 L 822.96875 439.703125 Z M 822.96875 425.148438 " fill-opacity="0.65" fill-rule="nonzero"/><path fill="#ffabab" d="M 758.738281 429.417969 L 764.753906 429.417969 L 764.753906 435.433594 L 758.738281 435.433594 Z M 758.738281 429.417969 " fill-opacity="0.727" fill-rule="nonzero"/><path fill="#ffabab" d="M 691.304688 430.484375 L 695.1875 430.484375 L 695.1875 434.367188 L 691.304688 434.367188 Z M 691.304688 430.484375 " fill-opacity="0.828" fill-rule="nonzero"/><path fill="#bc4d4d" d="M 623.019531 430.699219 L 626.472656 430.699219 L 626.472656 434.152344 L 623.019531 434.152344 Z M 623.019531 430.699219 " fill-opacity="0.483" fill-rule="nonzero"/><path fill="#ffd9d9" d="M 551.625 427.808594 L 560.863281 427.808594 L 560.863281 437.046875 L 551.625 437.046875 Z M 551.625 427.808594 " fill-opacity="0.199" fill-rule="nonzero"/><path fill="#bc4d4d" d="M 485.6875 430.371094 L 489.800781 430.371094 L 489.800781 434.484375 L 485.6875 434.484375 Z M 485.6875 430.371094 " fill-opacity="0.951" fill-rule="nonzero"/><path fill="#bc4d4d" d="M 411.152344 424.332031 L 427.339844 424.332031 L 427.339844 440.519531 L 411.152344 440.519531 Z M 411.152344 424.332031 " fill-opacity="0.678" fill-rule="nonzero"/><path fill="#ffabab" d="M 348.976562 430.660156 L 352.511719 430.660156 L 352.511719 434.191406 L 348.976562 434.191406 Z M 348.976562 430.660156 " fill-opacity="0.796" fill-rule="nonzero"/><path fill="#ffd9d9" d="M 279.855469 430.039062 L 284.632812 430.039062 L 284.632812 434.8125 L 279.855469 434.8125 Z M 279.855469 430.039062 " fill-opacity="0.344" fill-rule="nonzero"/><path fill="#ffabab" d="M 209.589844 428.273438 L 217.898438 428.273438 L 217.898438 436.582031 L 209.589844 436.582031 Z M 209.589844 428.273438 " fill-opacity="0.554" fill-rule="nonzero"/><path fill="#bc4d4d" d="M 143.4375 430.621094 L 147.046875 430.621094 L 147.046875 434.230469 L 143.4375 434.230469 Z M 143.4375 430.621094 " fill-opacity="0.75" fill-rule="nonzero"/><path fill="#ffabab" d="M 68.765625 424.449219 L 84.71875 424.449219 L 84.71875 440.402344 L 68.765625 440.402344 Z M 68.765625 424.449219 " fill-opacity="0.194" fill-rule="nonzero"/><path fill="#bc4d4d" d="M 2.285156 426.46875 L 14.203125 426.46875 L 14.203125 438.386719 L 2.285156 438.386719 Z M 2.285156 426.46875 " fill-opacity="0.133" fill-rule="nonzero"/><path fill="#ffabab" d="M 1442.90625 358.007812 L 1450.59375 358.007812 L 1450.59375 365.695312 L 1442.90625 365.695312 Z M 1442.90625 358.007812 " fill-opacity="0.413" fill-rule="nonzero"/><path fill="#ffd9d9" d="M 1375.066406 358.667969 L 1381.433594 358.667969 L 1381.433594 365.035156 L 1375.066406 365.035156 Z M 1375.066406 358.667969 " fill-opacity="0.13" fill-rule="nonzero"/><path fill="#ffd9d9" d="M 1307.148438 359.25 L 1312.347656 359.25 L 1312.347656 364.453125 L 1307.148438 364.453125 Z M 1307.148438 359.25 " fill-opacity="0.523" fill-rule="nonzero"/><path fill="#bc4d4d" d="M 1236.105469 356.707031 L 1246.390625 356.707031 L 1246.390625 366.992188 L 1236.105469 366.992188 Z M 1236.105469 356.707031 " fill-opacity="0.491" fill-rule="nonzero"/><path fill="#bc4d4d" d="M 1165.992188 355.097656 L 1179.503906 355.097656 L 1179.503906 368.605469 L 1165.992188 368.605469 Z M 1165.992188 355.097656 " fill-opacity="0.238" fill-rule="nonzero"/><path fill="#ffd9d9" d="M 1101.394531 358.996094 L 1107.101562 358.996094 L 1107.101562 364.703125 L 1101.394531 364.703125 Z M 1101.394531 358.996094 " fill-opacity="0.109" fill-rule="nonzero"/><path fill="#ffabab" d="M 1030.371094 356.476562 L 1041.125 356.476562 L 1041.125 367.226562 L 1030.371094 367.226562 Z M 1030.371094 356.476562 " fill-opacity="0.801" fill-rule="nonzero"/><path fill="#ffabab" d="M 963.734375 358.339844 L 970.761719 358.339844 L 970.761719 365.363281 L 963.734375 365.363281 Z M 963.734375 358.339844 " fill-opacity="0.402" fill-rule="nonzero"/><path fill="#ffabab" d="M 895.777344 358.882812 L 901.714844 358.882812 L 901.714844 364.820312 L 895.777344 364.820312 Z M 895.777344 358.882812 " fill-opacity="0.725" fill-rule="nonzero"/><path fill="#bc4d4d" d="M 828.5 360.105469 L 831.992188 360.105469 L 831.992188 363.597656 L 828.5 363.597656 Z M 828.5 360.105469 " fill-opacity="0.909" fill-rule="nonzero"/><path fill="#bc4d4d" d="M 757.804688 357.910156 L 765.6875 357.910156 L 765.6875 365.789062 L 757.804688 365.789062 Z M 757.804688 357.910156 " fill-opacity="0.787" fill-rule="nonzero"/><path fill="#bc4d4d" d="M 686.375 354.980469 L 700.117188 354.980469 L 700.117188 368.722656 L 686.375 368.722656 Z M 686.375 354.980469 " fill-opacity="0.476" fill-rule="nonzero"/><path fill="#ffd9d9" d="M 622.261719 359.367188 L 627.230469 359.367188 L 627.230469 364.335938 L 622.261719 364.335938 Z M 622.261719 359.367188 " fill-opacity="0.32" fill-rule="nonzero"/><path fill="#ffabab" d="M 548.617188 354.222656 L 563.871094 354.222656 L 563.871094 369.476562 L 548.617188 369.476562 Z M 548.617188 354.222656 " fill-opacity="0.586" fill-rule="nonzero"/><path fill="#ffd9d9" d="M 484.039062 358.144531 L 491.453125 358.144531 L 491.453125 365.558594 L 484.039062 365.558594 Z M 484.039062 358.144531 " fill-opacity="0.407" fill-rule="nonzero"/><path fill="#ffd9d9" d="M 414.023438 356.628906 L 424.464844 356.628906 L 424.464844 367.070312 L 414.023438 367.070312 Z M 414.023438 356.628906 " fill-opacity="0.356" fill-rule="nonzero"/><path fill="#ffabab" d="M 346.921875 358.027344 L 354.566406 358.027344 L 354.566406 365.675781 L 346.921875 365.675781 Z M 346.921875 358.027344 " fill-opacity="0.421" fill-rule="nonzero"/><path fill="#bc4d4d" d="M 279.3125 358.921875 L 285.175781 358.921875 L 285.175781 364.78125 L 279.3125 364.78125 Z M 279.3125 358.921875 " fill-opacity="0.452" fill-rule="nonzero"/><path fill="#ffabab" d="M 211.277344 359.386719 L 216.207031 359.386719 L 216.207031 364.316406 L 211.277344 364.316406 Z M 211.277344 359.386719 " fill-opacity="0.682" fill-rule="nonzero"/><path fill="#ffd9d9" d="M 142.972656 359.582031 L 147.515625 359.582031 L 147.515625 364.121094 L 142.972656 364.121094 Z M 142.972656 359.582031 " fill-opacity="0.53" fill-rule="nonzero"/><path fill="#ffabab" d="M 72.105469 357.210938 L 81.382812 357.210938 L 81.382812 366.488281 L 72.105469 366.488281 Z M 72.105469 357.210938 " fill-opacity="0.941" fill-rule="nonzero"/><path fill="#bc4d4d" d="M 5.253906 358.863281 L 11.230469 358.863281 L 11.230469 364.839844 L 5.253906 364.839844 Z M 5.253906 358.863281 " fill-opacity="0.752" fill-rule="nonzero"/><path fill="#ffabab" d="M 1440.886719 285.414062 L 1452.609375 285.414062 L 1452.609375 297.136719 L 1440.886719 297.136719 Z M 1440.886719 285.414062 " fill-opacity="0.331" fill-rule="nonzero"/><path fill="#ffd9d9" d="M 1376.113281 289.140625 L 1380.382812 289.140625 L 1380.382812 293.410156 L 1376.113281 293.410156 Z M 1376.113281 289.140625 " fill-opacity="0.922" fill-rule="nonzero"/><path fill="#bc4d4d" d="M 1303.109375 284.636719 L 1316.386719 284.636719 L 1316.386719 297.914062 L 1303.109375 297.914062 Z M 1303.109375 284.636719 " fill-opacity="0.349" fill-rule="nonzero"/><path fill="#ffabab" d="M 1238.648438 288.675781 L 1243.847656 288.675781 L 1243.847656 293.875 L 1238.648438 293.875 Z M 1238.648438 288.675781 " fill-opacity="0.236" fill-rule="nonzero"/><path fill="#ffabab" d="M 1167.082031 285.609375 L 1178.414062 285.609375 L 1178.414062 296.941406 L 1167.082031 296.941406 Z M 1167.082031 285.609375 " fill-opacity="0.926" fill-rule="nonzero"/><path fill="#ffd9d9" d="M 1095.882812 282.910156 L 1112.613281 282.910156 L 1112.613281 299.640625 L 1095.882812 299.640625 Z M 1095.882812 282.910156 " fill-opacity="0.62" fill-rule="nonzero"/><path fill="#ffabab" d="M 1030.136719 285.664062 L 1041.355469 285.664062 L 1041.355469 296.882812 L 1030.136719 296.882812 Z M 1030.136719 285.664062 " fill-opacity="0.687" fill-rule="nonzero"/><path fill="#ffd9d9" d="M 959.832031 283.859375 L 974.660156 283.859375 L 974.660156 298.6875 L 959.832031 298.6875 Z M 959.832031 283.859375 " fill-opacity="0.194" fill-rule="nonzero"/><path fill="#bc4d4d" d="M 892.828125 285.355469 L 904.667969 285.355469 L 904.667969 297.195312 L 892.828125 297.195312 Z M 892.828125 285.355469 " fill-opacity="0.108" fill-rule="nonzero"/><path fill="#ffd9d9" d="M 825.433594 286.460938 L 835.058594 286.460938 L 835.058594 296.089844 L 825.433594 296.089844 Z M 825.433594 286.460938 " fill-opacity="0.615" fill-rule="nonzero"/><path fill="#ffd9d9" d="M 758.175781 287.703125 L 765.316406 287.703125 L 765.316406 294.847656 L 758.175781 294.847656 Z M 758.175781 287.703125 " fill-opacity="0.596" fill-rule="nonzero"/><path fill="#ffabab" d="M 689.441406 287.472656 L 697.050781 287.472656 L 697.050781 295.078125 L 689.441406 295.078125 Z M 689.441406 287.472656 " fill-opacity="0.497" fill-rule="nonzero"/><path fill="#ffd9d9" d="M 617.3125 283.839844 L 632.179688 283.839844 L 632.179688 298.707031 L 617.3125 298.707031 Z M 617.3125 283.839844 " fill-opacity="0.872" fill-rule="nonzero"/><path fill="#ffd9d9" d="M 554.265625 289.296875 L 558.226562 289.296875 L 558.226562 293.253906 L 554.265625 293.253906 Z M 554.265625 289.296875 " fill-opacity="0.125" fill-rule="nonzero"/><path fill="#bc4d4d" d="M 485.941406 289.46875 L 489.550781 289.46875 L 489.550781 293.078125 L 485.941406 293.078125 Z M 485.941406 289.46875 " fill-opacity="0.982" fill-rule="nonzero"/><path fill="#ffabab" d="M 416.972656 289.003906 L 421.515625 289.003906 L 421.515625 293.546875 L 416.972656 293.546875 Z M 416.972656 289.003906 " fill-opacity="0.75" fill-rule="nonzero"/><path fill="#ffabab" d="M 345.796875 286.324219 L 355.695312 286.324219 L 355.695312 296.222656 L 345.796875 296.222656 Z M 345.796875 286.324219 " fill-opacity="0.207" fill-rule="nonzero"/><path fill="#bc4d4d" d="M 274.246094 283.277344 L 290.242188 283.277344 L 290.242188 299.269531 L 274.246094 299.269531 Z M 274.246094 283.277344 " fill-opacity="0.713" fill-rule="nonzero"/><path fill="#bc4d4d" d="M 208.679688 286.210938 L 218.808594 286.210938 L 218.808594 296.339844 L 208.679688 296.339844 Z M 208.679688 286.210938 " fill-opacity="0.77" fill-rule="nonzero"/><path fill="#bc4d4d" d="M 141.925781 287.957031 L 148.5625 287.957031 L 148.5625 294.59375 L 141.925781 294.59375 Z M 141.925781 287.957031 " fill-opacity="0.381" fill-rule="nonzero"/><path fill="#ffd9d9" d="M 70.628906 285.160156 L 82.855469 285.160156 L 82.855469 297.386719 L 70.628906 297.386719 Z M 70.628906 285.160156 " fill-opacity="0.967" fill-rule="nonzero"/><path fill="#bc4d4d" d="M 0.0117188 283.046875 L 16.472656 283.046875 L 16.472656 299.503906 L 0.0117188 299.503906 Z M 0.0117188 283.046875 " fill-opacity="0.921" fill-rule="nonzero"/><path fill="#bc4d4d" d="M 1440.617188 214.566406 L 1452.882812 214.566406 L 1452.882812 226.832031 L 1440.617188 226.832031 Z M 1440.617188 214.566406 " fill-opacity="0.279" fill-rule="nonzero"/><path fill="#ffabab" d="M 1373.511719 215.964844 L 1382.984375 215.964844 L 1382.984375 225.433594 L 1373.511719 225.433594 Z M 1373.511719 215.964844 " fill-opacity="0.32" fill-rule="nonzero"/><path fill="#bc4d4d" d="M 1304.3125 215.265625 L 1315.183594 215.265625 L 1315.183594 226.132812 L 1304.3125 226.132812 Z M 1304.3125 215.265625 " fill-opacity="0.427" fill-rule="nonzero"/><path fill="#ffabab" d="M 1235.910156 215.363281 L 1246.585938 215.363281 L 1246.585938 226.035156 L 1235.910156 226.035156 Z M 1235.910156 215.363281 " fill-opacity="0.725" fill-rule="nonzero"/><path fill="#bc4d4d" d="M 1169.292969 217.242188 L 1176.203125 217.242188 L 1176.203125 224.152344 L 1169.292969 224.152344 Z M 1169.292969 217.242188 " fill-opacity="0.893" fill-rule="nonzero"/><path fill="#ffabab" d="M 1101.433594 217.882812 L 1107.0625 217.882812 L 1107.0625 223.511719 L 1101.433594 223.511719 Z M 1101.433594 217.882812 " fill-opacity="0.36" fill-rule="nonzero"/><path fill="#bc4d4d" d="M 1033.050781 218 L 1038.445312 218 L 1038.445312 223.398438 L 1033.050781 223.398438 Z M 1033.050781 218 " fill-opacity="0.158" fill-rule="nonzero"/><path fill="#ffd9d9" d="M 963.308594 216.757812 L 971.1875 216.757812 L 971.1875 224.640625 L 963.308594 224.640625 Z M 963.308594 216.757812 " fill-opacity="0.169" fill-rule="nonzero"/><path fill="#ffd9d9" d="M 894.070312 216.019531 L 903.425781 216.019531 L 903.425781 225.375 L 894.070312 225.375 Z M 894.070312 216.019531 " fill-opacity="0.338" fill-rule="nonzero"/><path fill="#ffabab" d="M 825.199219 215.652344 L 835.292969 215.652344 L 835.292969 225.746094 L 825.199219 225.746094 Z M 825.199219 215.652344 " fill-opacity="0.926" fill-rule="nonzero"/><path fill="#ffd9d9" d="M 758.5625 217.515625 L 764.929688 217.515625 L 764.929688 223.882812 L 758.5625 223.882812 Z M 758.5625 217.515625 " fill-opacity="0.785" fill-rule="nonzero"/><path fill="#bc4d4d" d="M 685.230469 212.683594 L 701.261719 212.683594 L 701.261719 228.714844 L 685.230469 228.714844 Z M 685.230469 212.683594 " fill-opacity="0.835" fill-rule="nonzero"/><path fill="#bc4d4d" d="M 616.964844 212.917969 L 632.527344 212.917969 L 632.527344 228.480469 L 616.964844 228.480469 Z M 616.964844 212.917969 " fill-opacity="0.699" fill-rule="nonzero"/><path fill="#ffd9d9" d="M 552.558594 217.011719 L 559.933594 217.011719 L 559.933594 224.386719 L 552.558594 224.386719 Z M 552.558594 217.011719 " fill-opacity="0.571" fill-rule="nonzero"/><path fill="#ffd9d9" d="M 481.84375 214.796875 L 493.644531 214.796875 L 493.644531 226.597656 L 481.84375 226.597656 Z M 481.84375 214.796875 " fill-opacity="0.526" fill-rule="nonzero"/><path fill="#bc4d4d" d="M 414.042969 215.496094 L 424.445312 215.496094 L 424.445312 225.898438 L 414.042969 225.898438 Z M 414.042969 215.496094 " fill-opacity="0.897" fill-rule="nonzero"/><path fill="#ffd9d9" d="M 347.851562 217.808594 L 353.636719 217.808594 L 353.636719 223.589844 L 347.851562 223.589844 Z M 347.851562 217.808594 " fill-opacity="0.425" fill-rule="nonzero"/><path fill="#bc4d4d" d="M 280.382812 218.835938 L 284.109375 218.835938 L 284.109375 222.5625 L 280.382812 222.5625 Z M 280.382812 218.835938 " fill-opacity="0.746" fill-rule="nonzero"/><path fill="#bc4d4d" d="M 211.472656 218.429688 L 216.015625 218.429688 L 216.015625 222.96875 L 211.472656 222.96875 Z M 211.472656 218.429688 " fill-opacity="0.978" fill-rule="nonzero"/><path fill="#ffd9d9" d="M 142.757812 218.214844 L 147.726562 218.214844 L 147.726562 223.183594 L 142.757812 223.183594 Z M 142.757812 218.214844 " fill-opacity="0.155" fill-rule="nonzero"/><path fill="#ffd9d9" d="M 73.792969 217.75 L 79.691406 217.75 L 79.691406 223.648438 L 73.792969 223.648438 Z M 73.792969 217.75 " fill-opacity="0.728" fill-rule="nonzero"/><path fill="#ffd9d9" d="M 3.566406 216.019531 L 12.921875 216.019531 L 12.921875 225.375 L 3.566406 225.375 Z M 3.566406 216.019531 " fill-opacity="0.554" fill-rule="nonzero"/><path fill="#ffd9d9" d="M 1439.160156 142.535156 L 1454.339844 142.535156 L 1454.339844 157.710938 L 1439.160156 157.710938 Z M 1439.160156 142.535156 " fill-opacity="0.872" fill-rule="nonzero"/><path fill="#ffabab" d="M 1370.195312 142.066406 L 1386.304688 142.066406 L 1386.304688 158.175781 L 1370.195312 158.175781 Z M 1370.195312 142.066406 " fill-opacity="0.987" fill-rule="nonzero"/><path fill="#ffabab" d="M 1303.5 143.871094 L 1316 143.871094 L 1316 156.371094 L 1303.5 156.371094 Z M 1303.5 143.871094 " fill-opacity="0.493" fill-rule="nonzero"/><path fill="#ffd9d9" d="M 1238.414062 147.289062 L 1244.082031 147.289062 L 1244.082031 152.957031 L 1238.414062 152.957031 Z M 1238.414062 147.289062 " fill-opacity="0.58" fill-rule="nonzero"/><path fill="#ffabab" d="M 1166.421875 143.796875 L 1179.074219 143.796875 L 1179.074219 156.449219 L 1166.421875 156.449219 Z M 1166.421875 143.796875 " fill-opacity="0.511" fill-rule="nonzero"/><path fill="#bc4d4d" d="M 1097.785156 143.660156 L 1110.710938 143.660156 L 1110.710938 156.585938 L 1097.785156 156.585938 Z M 1097.785156 143.660156 " fill-opacity="0.423" fill-rule="nonzero"/><path fill="#ffd9d9" d="M 1031.03125 145.40625 L 1040.464844 145.40625 L 1040.464844 154.839844 L 1031.03125 154.839844 Z M 1031.03125 145.40625 " fill-opacity="0.752" fill-rule="nonzero"/><path fill="#ffd9d9" d="M 962.859375 145.734375 L 971.632812 145.734375 L 971.632812 154.507812 L 962.859375 154.507812 Z M 962.859375 145.734375 " fill-opacity="0.81" fill-rule="nonzero"/><path fill="#ffabab" d="M 894.28125 145.660156 L 903.210938 145.660156 L 903.210938 154.585938 L 894.28125 154.585938 Z M 894.28125 145.660156 " fill-opacity="0.537" fill-rule="nonzero"/><path fill="#ffabab" d="M 823.746094 143.621094 L 836.75 143.621094 L 836.75 156.625 L 823.746094 156.625 Z M 823.746094 143.621094 " fill-opacity="0.595" fill-rule="nonzero"/><path fill="#bc4d4d" d="M 754.546875 142.921875 L 768.945312 142.921875 L 768.945312 157.324219 L 754.546875 157.324219 Z M 754.546875 142.921875 " fill-opacity="0.974" fill-rule="nonzero"/><path fill="#bc4d4d" d="M 685.773438 142.648438 L 700.71875 142.648438 L 700.71875 157.59375 L 685.773438 157.59375 Z M 685.773438 142.648438 " fill-opacity="0.119" fill-rule="nonzero"/><path fill="#ffd9d9" d="M 620.59375 145.96875 L 628.898438 145.96875 L 628.898438 154.277344 L 620.59375 154.277344 Z M 620.59375 145.96875 " fill-opacity="0.697" fill-rule="nonzero"/><path fill="#bc4d4d" d="M 550.925781 144.804688 L 561.5625 144.804688 L 561.5625 155.441406 L 550.925781 155.441406 Z M 550.925781 144.804688 " fill-opacity="0.29" fill-rule="nonzero"/><path fill="#ffd9d9" d="M 485.414062 147.792969 L 490.074219 147.792969 L 490.074219 152.453125 L 485.414062 152.453125 Z M 485.414062 147.792969 " fill-opacity="0.537" fill-rule="nonzero"/><path fill="#ffd9d9" d="M 412.082031 142.960938 L 426.40625 142.960938 L 426.40625 157.285156 L 412.082031 157.285156 Z M 412.082031 142.960938 " fill-opacity="0.297" fill-rule="nonzero"/><path fill="#bc4d4d" d="M 342.613281 141.992188 L 358.875 141.992188 L 358.875 158.253906 L 342.613281 158.253906 Z M 342.613281 141.992188 " fill-opacity="0.424" fill-rule="nonzero"/><path fill="#bc4d4d" d="M 280.496094 148.375 L 283.992188 148.375 L 283.992188 151.871094 L 280.496094 151.871094 Z M 280.496094 148.375 " fill-opacity="0.255" fill-rule="nonzero"/><path fill="#bc4d4d" d="M 206.175781 142.554688 L 221.3125 142.554688 L 221.3125 157.691406 L 206.175781 157.691406 Z M 206.175781 142.554688 " fill-opacity="0.516" fill-rule="nonzero"/><path fill="#bc4d4d" d="M 142.527344 147.40625 L 147.960938 147.40625 L 147.960938 152.839844 L 142.527344 152.839844 Z M 142.527344 147.40625 " fill-opacity="0.842" fill-rule="nonzero"/><path fill="#bc4d4d" d="M 72.375 145.753906 L 81.109375 145.753906 L 81.109375 154.488281 L 72.375 154.488281 Z M 72.375 145.753906 " fill-opacity="0.757" fill-rule="nonzero"/><path fill="#ffd9d9" d="M 2.730469 144.609375 L 13.753906 144.609375 L 13.753906 155.632812 L 2.730469 155.632812 Z M 2.730469 144.609375 " fill-opacity="0.179" fill-rule="nonzero"/><path fill="#bc4d4d" d="M 1444.050781 76.847656 L 1449.449219 76.847656 L 1449.449219 82.246094 L 1444.050781 82.246094 Z M 1444.050781 76.847656 " fill-opacity="0.554" fill-rule="nonzero"/><path fill="#bc4d4d" d="M 1372.757812 74.054688 L 1383.742188 74.054688 L 1383.742188 85.039062 L 1372.757812 85.039062 Z M 1372.757812 74.054688 " fill-opacity="0.102" fill-rule="nonzero"/><path fill="#bc4d4d" d="M 1302.585938 72.382812 L 1316.910156 72.382812 L 1316.910156 86.707031 L 1302.585938 86.707031 Z M 1302.585938 72.382812 " fill-opacity="0.686" fill-rule="nonzero"/><path fill="#ffd9d9" d="M 1234.804688 73.101562 L 1247.691406 73.101562 L 1247.691406 85.988281 L 1234.804688 85.988281 Z M 1234.804688 73.101562 " fill-opacity="0.863" fill-rule="nonzero"/><path fill="#ffd9d9" d="M 1168.964844 75.761719 L 1176.53125 75.761719 L 1176.53125 83.332031 L 1168.964844 83.332031 Z M 1168.964844 75.761719 " fill-opacity="0.346" fill-rule="nonzero"/><path fill="#ffabab" d="M 1101.78125 77.082031 L 1106.710938 77.082031 L 1106.710938 82.011719 L 1101.78125 82.011719 Z M 1101.78125 77.082031 " fill-opacity="0.821" fill-rule="nonzero"/><path fill="#bc4d4d" d="M 1028.449219 72.25 L 1043.046875 72.25 L 1043.046875 86.84375 L 1028.449219 86.84375 Z M 1028.449219 72.25 " fill-opacity="0.726" fill-rule="nonzero"/><path fill="#ffd9d9" d="M 964.394531 76.695312 L 970.101562 76.695312 L 970.101562 82.398438 L 964.394531 82.398438 Z M 964.394531 76.695312 " fill-opacity="0.932" fill-rule="nonzero"/><path fill="#bc4d4d" d="M 896.339844 77.140625 L 901.152344 77.140625 L 901.152344 81.953125 L 896.339844 81.953125 Z M 896.339844 77.140625 " fill-opacity="0.98" fill-rule="nonzero"/><path fill="#ffabab" d="M 825.375 74.675781 L 835.117188 74.675781 L 835.117188 84.417969 L 825.375 84.417969 Z M 825.375 74.675781 " fill-opacity="0.644" fill-rule="nonzero"/><path fill="#ffabab" d="M 757.457031 75.257812 L 766.035156 75.257812 L 766.035156 83.835938 L 757.457031 83.835938 Z M 757.457031 75.257812 " fill-opacity="0.895" fill-rule="nonzero"/><path fill="#ffd9d9" d="M 688.375 74.675781 L 698.117188 74.675781 L 698.117188 84.417969 L 688.375 84.417969 Z M 688.375 74.675781 " fill-opacity="0.932" fill-rule="nonzero"/><path fill="#ffd9d9" d="M 620.84375 75.644531 L 628.648438 75.644531 L 628.648438 83.449219 L 620.84375 83.449219 Z M 620.84375 75.644531 " fill-opacity="0.861" fill-rule="nonzero"/><path fill="#ffd9d9" d="M 547.957031 71.257812 L 564.53125 71.257812 L 564.53125 87.832031 L 547.957031 87.832031 Z M 547.957031 71.257812 " fill-opacity="0.122" fill-rule="nonzero"/><path fill="#ffabab" d="M 483.726562 75.527344 L 491.761719 75.527344 L 491.761719 83.5625 L 483.726562 83.5625 Z M 483.726562 75.527344 " fill-opacity="0.857" fill-rule="nonzero"/><path fill="#ffabab" d="M 417.480469 77.78125 L 421.011719 77.78125 L 421.011719 81.3125 L 417.480469 81.3125 Z M 417.480469 77.78125 " fill-opacity="0.739" fill-rule="nonzero"/><path fill="#ffd9d9" d="M 346.261719 75.0625 L 355.226562 75.0625 L 355.226562 84.03125 L 346.261719 84.03125 Z M 346.261719 75.0625 " fill-opacity="0.28" fill-rule="nonzero"/><path fill="#ffabab" d="M 279.253906 76.558594 L 285.234375 76.558594 L 285.234375 82.535156 L 279.253906 82.535156 Z M 279.253906 76.558594 " fill-opacity="0.847" fill-rule="nonzero"/><path fill="#ffabab" d="M 210.503906 76.304688 L 216.984375 76.304688 L 216.984375 82.789062 L 210.503906 82.789062 Z M 210.503906 76.304688 " fill-opacity="0.282" fill-rule="nonzero"/><path fill="#bc4d4d" d="M 141.769531 76.074219 L 148.71875 76.074219 L 148.71875 83.019531 L 141.769531 83.019531 Z M 141.769531 76.074219 " fill-opacity="0.936" fill-rule="nonzero"/><path fill="#ffabab" d="M 69.058594 71.859375 L 84.429688 71.859375 L 84.429688 87.230469 L 69.058594 87.230469 Z M 69.058594 71.859375 " fill-opacity="0.878" fill-rule="nonzero"/><path fill="#ffabab" d="M 2.691406 73.996094 L 13.792969 73.996094 L 13.792969 85.097656 L 2.691406 85.097656 Z M 2.691406 73.996094 " fill-opacity="0.829" fill-rule="nonzero"/><path fill="#ffabab" d="M 1444.945312 7.164062 L 1448.554688 7.164062 L 1448.554688 10.777344 L 1444.945312 10.777344 Z M 1444.945312 7.164062 " fill-opacity="0.426" fill-rule="nonzero"/><path fill="#ffabab" d="M 1373.84375 4.566406 L 1382.65625 4.566406 L 1382.65625 13.375 L 1373.84375 13.375 Z M 1373.84375 4.566406 " fill-opacity="0.573" fill-rule="nonzero"/><path fill="#ffd9d9" d="M 1301.402344 0.625 L 1318.09375 0.625 L 1318.09375 17.316406 L 1301.402344 17.316406 Z M 1301.402344 0.625 " fill-opacity="0.504" fill-rule="nonzero"/><path fill="#bc4d4d" d="M 1236.414062 4.136719 L 1246.082031 4.136719 L 1246.082031 13.804688 L 1236.414062 13.804688 Z M 1236.414062 4.136719 " fill-opacity="0.166" fill-rule="nonzero"/><path fill="#ffabab" d="M 1170.378906 6.601562 L 1175.117188 6.601562 L 1175.117188 11.339844 L 1170.378906 11.339844 Z M 1170.378906 6.601562 " fill-opacity="0.86" fill-rule="nonzero"/><path fill="#ffabab" d="M 1102.25 6.972656 L 1106.246094 6.972656 L 1106.246094 10.96875 L 1102.25 10.96875 Z M 1102.25 6.972656 " fill-opacity="0.965" fill-rule="nonzero"/><path fill="#bc4d4d" d="M 1032.835938 6.058594 L 1038.660156 6.058594 L 1038.660156 11.882812 L 1032.835938 11.882812 Z M 1032.835938 6.058594 " fill-opacity="0.761" fill-rule="nonzero"/><path fill="#bc4d4d" d="M 960.863281 2.585938 L 973.632812 2.585938 L 973.632812 15.355469 L 960.863281 15.355469 Z M 960.863281 2.585938 " fill-opacity="0.395" fill-rule="nonzero"/><path fill="#ffd9d9" d="M 890.207031 0.429688 L 907.285156 0.429688 L 907.285156 17.511719 L 890.207031 17.511719 Z M 890.207031 0.429688 " fill-opacity="0.19" fill-rule="nonzero"/><path fill="#bc4d4d" d="M 825.917969 4.640625 L 834.574219 4.640625 L 834.574219 13.296875 L 825.917969 13.296875 Z M 825.917969 4.640625 " fill-opacity="0.701" fill-rule="nonzero"/><path fill="#ffabab" d="M 756.527344 3.75 L 766.96875 3.75 L 766.96875 14.191406 L 756.527344 14.191406 Z M 756.527344 3.75 " fill-opacity="0.91" fill-rule="nonzero"/><path fill="#ffabab" d="M 688.355469 4.078125 L 698.136719 4.078125 L 698.136719 13.863281 L 688.355469 13.863281 Z M 688.355469 4.078125 " fill-opacity="0.44" fill-rule="nonzero"/><path fill="#ffd9d9" d="M 617.699219 1.925781 L 631.792969 1.925781 L 631.792969 16.015625 L 617.699219 16.015625 Z M 617.699219 1.925781 " fill-opacity="0.355" fill-rule="nonzero"/><path fill="#ffd9d9" d="M 551.683594 4.410156 L 560.804688 4.410156 L 560.804688 13.53125 L 551.683594 13.53125 Z M 551.683594 4.410156 " fill-opacity="0.153" fill-rule="nonzero"/><path fill="#ffabab" d="M 482.347656 3.574219 L 493.140625 3.574219 L 493.140625 14.367188 L 482.347656 14.367188 Z M 482.347656 3.574219 " fill-opacity="0.62" fill-rule="nonzero"/><path fill="#ffabab" d="M 415.460938 5.1875 L 423.03125 5.1875 L 423.03125 12.753906 L 415.460938 12.753906 Z M 415.460938 5.1875 " fill-opacity="0.778" fill-rule="nonzero"/><path fill="#bc4d4d" d="M 344.6875 2.914062 L 356.800781 2.914062 L 356.800781 15.027344 L 344.6875 15.027344 Z M 344.6875 2.914062 " fill-opacity="0.447" fill-rule="nonzero"/><path fill="#ffd9d9" d="M 275.101562 1.828125 L 289.386719 1.828125 L 289.386719 16.113281 L 275.101562 16.113281 Z M 275.101562 1.828125 " fill-opacity="0.204" fill-rule="nonzero"/><path fill="#bc4d4d" d="M 208.117188 3.34375 L 219.371094 3.34375 L 219.371094 14.597656 L 208.117188 14.597656 Z M 208.117188 3.34375 " fill-opacity="0.692" fill-rule="nonzero"/><path fill="#bc4d4d" d="M 140.605469 4.332031 L 149.882812 4.332031 L 149.882812 13.609375 L 140.605469 13.609375 Z M 140.605469 4.332031 " fill-opacity="0.902" fill-rule="nonzero"/><path fill="#ffabab" d="M 69.484375 1.710938 L 84.003906 1.710938 L 84.003906 16.230469 L 69.484375 16.230469 Z M 69.484375 1.710938 " fill-opacity="0.146" fill-rule="nonzero"/><path fill="#ffabab" d="M 4.226562 4.953125 L 12.261719 4.953125 L 12.261719 12.988281 L 4.226562 12.988281 Z M 4.226562 4.953125 " fill-opacity="0.711" fill-rule="nonzero"/></svg>