<svg width="16" height="16" viewBox="0 0 16 16" fill="none" xmlns="http://www.w3.org/2000/svg">
<g clip-path="url(#clip0_594_4184)">
<path d="M13.333 -0.000976562C14.04 -0.000859841 14.7178 0.280347 15.2178 0.780273C15.7179 1.28037 15.999 1.95877 15.999 2.66602V10.666C15.9989 11.3731 15.7178 12.0517 15.2178 12.5518C14.7178 13.0515 14.0399 13.3319 13.333 13.332H11.3994L8.42773 15.8408C8.30736 15.9427 8.15477 15.999 7.99707 15.999C7.83943 15.999 7.68674 15.9427 7.56641 15.8408L4.59961 13.332H2.66602C1.95887 13.332 1.28035 13.0517 0.780273 12.5518C0.280252 12.0517 -0.000891461 11.3731 -0.000976562 10.666V2.66602C-0.000976562 1.95882 0.280241 1.28036 0.780273 0.780273C1.28037 0.280176 1.95877 -0.000976562 2.66602 -0.000976562H13.333ZM2.66602 1.33203C2.31239 1.33203 1.9727 1.47261 1.72266 1.72266C1.47267 1.97269 1.33301 2.31244 1.33301 2.66602V10.666C1.33309 11.0194 1.47285 11.3585 1.72266 11.6084C1.9727 11.8584 2.31239 11.999 2.66602 11.999H4.59961C4.91502 11.9989 5.22009 12.1108 5.46094 12.3145L7.99902 14.459L10.5381 12.3145C10.7787 12.1109 11.0843 11.9991 11.3994 11.999H13.333C13.6865 11.9989 14.0254 11.8583 14.2754 11.6084C14.5253 11.3584 14.6659 11.0195 14.666 10.666V2.66602C14.666 2.31239 14.5254 1.9727 14.2754 1.72266C14.0255 1.47278 13.6864 1.33215 13.333 1.33203H2.66602ZM11.333 8.66602C11.5097 8.66613 11.6788 8.73641 11.8037 8.86133C11.9286 8.98629 11.999 9.15535 11.999 9.33203C11.999 9.50884 11.9287 9.67869 11.8037 9.80371C11.6788 9.92854 11.5096 9.99891 11.333 9.99902H4.66602C4.4892 9.99902 4.31936 9.92874 4.19434 9.80371C4.06935 9.67869 3.99902 9.50881 3.99902 9.33203C3.99909 9.15545 4.06956 8.98627 4.19434 8.86133C4.31936 8.7363 4.4892 8.66602 4.66602 8.66602H11.333ZM11.333 5.99902C11.5096 5.99914 11.6788 6.06948 11.8037 6.19434C11.9287 6.31936 11.999 6.4892 11.999 6.66602C11.9989 6.84268 11.9286 7.01178 11.8037 7.13672C11.6788 7.26164 11.5097 7.33191 11.333 7.33203H4.66602C4.4892 7.33203 4.31936 7.26174 4.19434 7.13672C4.06956 7.0118 3.99911 6.84258 3.99902 6.66602C3.99902 6.48925 4.06938 6.31935 4.19434 6.19434C4.31936 6.06931 4.4892 5.99902 4.66602 5.99902H11.333ZM7.99902 3.33203C8.17576 3.33203 8.34569 3.40242 8.4707 3.52734C8.5957 3.65234 8.66599 3.82225 8.66602 3.99902C8.66602 4.17583 8.59573 4.34568 8.4707 4.4707C8.34568 4.59569 8.17581 4.66602 7.99902 4.66602H4.66602C4.48921 4.66602 4.31936 4.59572 4.19434 4.4707C4.06931 4.34568 3.99902 4.17583 3.99902 3.99902C3.99905 3.82225 4.06934 3.65234 4.19434 3.52734C4.31935 3.40239 4.48926 3.33203 4.66602 3.33203H7.99902Z" fill="white"/>
</g>
<defs>
<clipPath id="clip0_594_4184">
<rect width="16" height="16" fill="white"/>
</clipPath>
</defs>
</svg>
