<svg width="197" height="196" viewBox="0 0 197 196" fill="none" xmlns="http://www.w3.org/2000/svg">
<g clip-path="url(#clip0_206_2188)">
<mask id="mask0_206_2188" style="mask-type:luminance" maskUnits="userSpaceOnUse" x="0" y="0" width="197" height="121">
<path d="M0.473633 0.256348H196.668V120.278H0.473633V0.256348Z" fill="white"/>
</mask>
<g mask="url(#mask0_206_2188)">
<path fill-rule="evenodd" clip-rule="evenodd" d="M137.338 119.373C139.632 117.432 141.781 115.325 143.772 113.075C144.563 112.18 145.853 111.917 146.933 112.432C151.457 114.59 156.522 115.798 161.865 115.798C181.002 115.798 196.537 100.302 196.537 81.2159C196.537 62.1267 181.002 46.6302 161.865 46.6302C160.164 46.6302 158.491 46.7529 156.858 46.9873C156.731 47.0054 156.601 47.0162 156.475 47.0162C156.399 47.0162 156.327 47.0126 156.254 47.0054C153.816 47.1388 139.173 48.3508 132.471 58.5339C131.662 59.764 130 60.1103 128.764 59.3022C127.529 58.4906 127.186 56.8349 127.995 55.6049C134.458 45.7825 147.085 42.8499 153.097 41.995C146.124 17.8954 123.829 0.249023 97.4341 0.249023C71.1255 0.249023 48.8886 17.7799 41.84 41.7605C47.8373 42.6082 60.5002 45.53 66.978 55.374C67.7873 56.6041 67.4404 58.2634 66.2085 59.0714C64.9729 59.8794 63.311 59.5367 62.5017 58.3031C55.3266 47.4021 39.0545 46.7817 38.3897 46.7601C38.3825 46.7601 38.3753 46.7601 38.3681 46.7601C38.3211 46.7601 38.2741 46.7565 38.2308 46.7529C38.2272 46.7529 38.2272 46.7529 38.2272 46.7529C37.2517 46.6699 36.269 46.6302 35.2719 46.6302C16.1347 46.6302 0.599609 62.1267 0.599609 81.2159C0.599609 100.302 16.1347 115.798 35.2719 115.798C40.0336 115.798 44.5713 114.842 48.7007 113.107C49.7485 112.667 50.9587 112.934 51.7211 113.771C53.7551 116.004 55.9481 118.085 58.2856 120L60.5291 119.07L59.6367 95.7276C59.6331 95.6951 59.6331 95.6591 59.6331 95.6266C59.6331 95.1829 59.7451 94.7609 59.9402 94.3893C60.1642 93.9601 60.5038 93.5958 60.9265 93.3433C61.0566 93.2639 61.1903 93.1954 61.3348 93.1413L97.4738 78.2111C98.1314 77.937 98.8684 77.937 99.5223 78.2111L135.661 93.1413C135.806 93.1954 135.943 93.2639 136.073 93.3433C136.496 93.5958 136.832 93.9601 137.056 94.3893C137.255 94.7609 137.363 95.1829 137.363 95.6266C137.363 95.6591 137.363 95.6951 137.363 95.7276L136.471 119.016L137.338 119.373Z" fill="#E0B3FE"/>
</g>
<mask id="mask1_206_2188" style="mask-type:luminance" maskUnits="userSpaceOnUse" x="111" y="135" width="47" height="61">
<path d="M111.911 135.053H157.23V195.452H111.911V135.053Z" fill="white"/>
</mask>
<g mask="url(#mask1_206_2188)">
<path fill-rule="evenodd" clip-rule="evenodd" d="M155.258 186.744L157.212 135.706L135.795 144.551C135.141 144.825 134.401 144.825 133.747 144.551L112.33 135.706L114.234 185.438C114.238 185.474 114.238 185.507 114.238 185.539L114.285 186.744L134.769 195.455L155.258 186.744ZM132.096 147.696C132.096 146.225 133.295 145.027 134.769 145.027C136.247 145.027 137.446 146.225 137.446 147.696V188.537C137.446 190.009 136.247 191.206 134.769 191.206C133.295 191.206 132.096 190.009 132.096 188.537V147.696Z" fill="#213A73"/>
</g>
<path fill-rule="evenodd" clip-rule="evenodd" d="M88.3191 183.916L98.5001 188.244L108.818 183.858L106.82 131.745C106.82 131.713 106.82 131.677 106.82 131.644C106.82 131.197 106.929 130.775 107.124 130.403C107.351 129.978 107.687 129.613 108.11 129.357C108.24 129.281 108.378 129.213 108.522 129.155L131.081 119.838L131.854 99.688L99.5225 113.045C98.8686 113.316 98.1316 113.316 97.474 113.045L65.1465 99.688L65.916 119.776L88.619 129.155C88.7599 129.213 88.8972 129.281 89.0272 129.357C89.4499 129.613 89.7896 129.978 90.0135 130.403C90.2086 130.775 90.3206 131.197 90.3206 131.644C90.3206 131.677 90.317 131.713 90.317 131.745L88.3191 183.916ZM95.823 118.611C95.823 117.14 97.0224 115.942 98.5001 115.942C99.9777 115.942 101.177 117.14 101.177 118.611V177.084C101.177 178.555 99.9777 179.753 98.5001 179.753C97.0224 179.753 95.823 178.555 95.823 177.084V118.611ZM93.7709 118.572C95.1293 119.152 95.7579 120.721 95.1763 122.074C94.5982 123.43 93.023 124.062 91.6646 123.481L68.5714 113.63C67.213 113.053 66.5808 111.48 67.1624 110.127C67.7441 108.771 69.3193 108.143 70.6777 108.72L93.7709 118.572ZM105.476 123.481C104.114 124.062 102.543 123.43 101.961 122.074C101.379 120.721 102.012 119.152 103.37 118.572L126.463 108.72C127.822 108.143 129.397 108.771 129.975 110.127C130.557 111.48 129.924 113.053 128.566 113.63L105.476 123.481Z" fill="#213A73"/>
<path fill-rule="evenodd" clip-rule="evenodd" d="M134.676 124.13L116.492 131.644L134.769 139.194L153.05 131.644L136.796 124.928C136.782 124.92 136.764 124.917 136.749 124.91L134.769 124.091L134.751 124.102C134.726 124.112 134.701 124.123 134.676 124.13Z" fill="#213A73"/>
<mask id="mask2_206_2188" style="mask-type:luminance" maskUnits="userSpaceOnUse" x="39" y="135" width="47" height="61">
<path d="M39.7695 135.053H85.0888V195.452H39.7695V135.053Z" fill="white"/>
</mask>
<g mask="url(#mask2_206_2188)">
<path fill-rule="evenodd" clip-rule="evenodd" d="M41.8832 186.744L62.368 195.455L82.8527 186.744L82.896 185.597C82.8996 185.565 82.8996 185.532 82.8996 185.5L84.8072 135.706L63.3904 144.551C62.7365 144.825 61.9994 144.825 61.3419 144.551L39.9287 135.706L41.8832 186.744ZM59.6909 147.696C59.6909 146.225 60.8903 145.027 62.368 145.027C63.8456 145.027 65.0451 146.225 65.0451 147.696V188.537C65.0451 190.009 63.8456 191.206 62.368 191.206C60.8903 191.206 59.6909 190.009 59.6909 188.537V147.696Z" fill="#213A73"/>
</g>
<path fill-rule="evenodd" clip-rule="evenodd" d="M127.692 95.6264L98.4999 83.564L69.3047 95.6264L98.4999 107.689L127.692 95.6264Z" fill="#213A73"/>
<path fill-rule="evenodd" clip-rule="evenodd" d="M58.8561 125.541L44.0869 131.644L62.3678 139.194L80.6487 131.644L62.3678 124.091L58.8923 125.526C58.8814 125.534 58.8706 125.537 58.8561 125.541Z" fill="#213A73"/>
</g>
<defs>
<clipPath id="clip0_206_2188">
<rect width="197" height="196" fill="white"/>
</clipPath>
</defs>
</svg>
