<svg width="193" height="196" viewBox="0 0 193 196" fill="none" xmlns="http://www.w3.org/2000/svg">
<g clip-path="url(#clip0_206_2208)">
<mask id="mask0_206_2208" style="mask-type:luminance" maskUnits="userSpaceOnUse" x="122" y="0" width="71" height="72">
<path d="M122.331 0.586426H192.513V71.1839H122.331V0.586426Z" fill="white"/>
</mask>
<g mask="url(#mask0_206_2208)">
<path fill-rule="evenodd" clip-rule="evenodd" d="M157.449 70.6697C150.591 70.6697 143.734 68.6128 137.561 64.6094C136.876 64.1523 136.419 63.4667 136.419 62.6668V61.5241C136.419 51.0034 131.736 41.8578 123.393 36.3727C122.708 35.9118 122.365 35.2262 122.365 34.4263C122.708 25.2807 126.592 16.8207 133.106 10.4177C139.736 4.12887 148.306 0.586426 157.449 0.586426C176.761 0.586426 192.418 16.3636 192.418 35.6833C192.418 45.0612 188.877 53.9783 182.247 60.4956C175.733 67.1234 166.819 70.6697 157.449 70.6697Z" fill="#FB9A02"/>
</g>
<mask id="mask1_206_2208" style="mask-type:luminance" maskUnits="userSpaceOnUse" x="17" y="108" width="161" height="88">
<path d="M17.0576 108.239H177.891V195.745H17.0576V108.239Z" fill="white"/>
</mask>
<g mask="url(#mask1_206_2208)">
<path fill-rule="evenodd" clip-rule="evenodd" d="M107.507 195.745H88.0767C83.736 195.745 80.0769 192.084 80.0769 187.742V176.421C76.1931 175.279 71.6202 173.679 67.508 171.161L59.6224 179.05C58.1337 180.539 56.0775 181.453 53.793 181.453C51.6226 181.453 49.5627 180.539 48.0778 179.05L34.7054 165.676C33.2205 164.19 32.3067 162.13 32.3067 159.844C32.3067 157.673 33.1062 155.616 34.7054 154.127L42.591 146.238C40.4207 142.696 38.7072 138.578 37.2223 133.55H26.0203C21.6796 133.55 18.0205 129.89 18.0205 125.547V111.484C18.0205 110.227 19.0524 109.199 20.3089 109.199H174.932C176.189 109.199 177.217 110.227 177.217 111.484V125.547C177.217 130.118 173.675 133.55 169.217 133.55H158.133C157.105 137.664 155.391 141.782 152.989 146.124L160.989 154.127C162.477 155.616 163.391 157.673 163.391 159.844C163.391 162.13 162.477 164.19 160.989 165.676L147.163 179.05C145.674 180.539 143.732 181.453 141.562 181.453C139.506 181.453 137.56 180.539 135.961 179.05L128.076 171.161C124.192 173.336 120.076 175.05 115.164 176.421V187.742C115.164 192.084 111.733 195.745 107.507 195.745Z" fill="#313131"/>
</g>
<path fill-rule="evenodd" clip-rule="evenodd" d="M97.5626 155.27C87.0498 155.27 77.2224 151.27 69.7937 143.839C62.3651 136.521 58.3633 126.576 58.3633 116.059C58.3633 114.455 58.3633 112.741 58.824 110.913C59.0525 109.884 59.9663 109.199 60.9943 109.199H134.592C135.848 109.199 136.876 110.227 136.876 111.484V116.059C136.876 126.576 132.764 136.521 125.45 143.839C118.021 151.27 108.193 155.27 97.5626 155.27Z" fill="#E5E5E5"/>
<path fill-rule="evenodd" clip-rule="evenodd" d="M34.0212 106.109C25.1076 106.109 16.6509 102.681 10.3645 96.2781C3.96773 89.875 0.422852 81.5293 0.422852 72.6123C0.422852 63.581 3.96773 55.121 10.3645 48.8322C16.6509 42.5434 24.9933 39.1152 34.0212 39.1152C42.9386 39.1152 51.2811 42.5434 57.6778 48.8322C63.9642 55.121 67.5091 63.581 67.5091 72.6123C67.5091 81.5293 63.9642 89.875 57.6778 96.2781C51.2811 102.681 42.9386 106.109 34.0212 106.109Z" fill="#00E5FF"/>
<path fill-rule="evenodd" clip-rule="evenodd" d="M26.3637 85.9898C25.6784 85.9898 25.1072 85.647 24.7646 85.1899L17.907 77.987C16.9932 77.0728 16.9932 75.5834 17.907 74.7835C18.8209 73.8693 20.3096 73.8693 21.2235 74.7835L26.478 80.3867L47.2789 59.9205C48.1928 59.0063 49.5635 59.0063 50.4773 59.9205C51.395 60.8385 51.395 62.324 50.4773 63.2382L27.9667 85.3042C27.5098 85.7613 26.9387 85.9898 26.3637 85.9898Z" fill="white"/>
<path fill-rule="evenodd" clip-rule="evenodd" d="M106.019 96.6213C96.7625 96.6213 87.9632 92.9646 81.2199 86.333C74.5947 79.5871 70.9355 70.7844 70.9355 61.5245C70.9355 42.201 86.7067 26.5381 106.019 26.5381C115.393 26.5381 124.307 30.0843 130.822 36.7159C137.447 43.2295 140.992 52.1465 140.992 61.5245C140.992 80.8441 125.335 96.6213 106.019 96.6213Z" fill="#FBD302"/>
<path fill-rule="evenodd" clip-rule="evenodd" d="M106.019 84.8472C104.762 84.8472 103.734 83.8149 103.734 82.5579V40.2581C103.734 39.0011 104.762 37.9727 106.019 37.9727C107.279 37.9727 108.307 39.0011 108.307 40.2581V82.5579C108.307 83.8149 107.279 84.8472 106.019 84.8472Z" fill="#FB9A02"/>
<path fill-rule="evenodd" clip-rule="evenodd" d="M106.019 80.2724C100.193 80.2724 95.7344 75.5834 95.7344 69.527C95.7344 68.27 96.7624 67.2377 98.0189 67.2377C99.2793 67.2377 100.307 68.27 100.307 69.527C100.307 72.9552 102.82 75.6977 106.019 75.6977C109.335 75.6977 112.077 72.8409 112.077 69.527C112.077 66.3235 109.449 63.8095 106.019 63.8095C100.193 63.8095 95.7344 59.1206 95.7344 53.1784C95.7344 47.2324 100.193 42.5435 106.019 42.5435C111.848 42.5435 116.65 47.3467 116.65 53.1784C116.65 54.4354 115.622 55.4639 114.365 55.4639C113.105 55.4639 112.077 54.4354 112.077 53.1784C112.077 49.8607 109.335 47.1182 106.019 47.1182C102.82 47.1182 100.307 49.7464 100.307 53.1784C100.307 56.6066 102.82 59.2348 106.019 59.2348C111.962 59.2348 116.65 63.8095 116.65 69.527C116.65 75.4691 111.848 80.2724 106.019 80.2724Z" fill="#FB9A02"/>
<path fill-rule="evenodd" clip-rule="evenodd" d="M157.449 59.2349C156.192 59.2349 155.164 58.2065 155.164 56.9495V14.3068C155.164 13.0498 156.192 12.0176 157.449 12.0176C158.705 12.0176 159.733 13.0498 159.733 14.3068V56.9495C159.733 58.2065 158.705 59.2349 157.449 59.2349Z" fill="#FBD302"/>
<path fill-rule="evenodd" clip-rule="evenodd" d="M157.448 54.664C151.505 54.664 146.707 49.8608 146.707 44.0291C146.707 42.7721 147.735 41.7436 148.992 41.7436C150.248 41.7436 151.276 42.7721 151.276 44.0291C151.276 47.3468 154.136 50.0893 157.448 50.0893C160.761 50.0893 163.506 47.3468 163.506 44.0291C163.506 40.7152 160.761 37.9726 157.448 37.9726C151.505 37.9726 146.707 33.1694 146.707 27.2234C146.707 21.3955 151.505 16.5923 157.448 16.5923C163.278 16.5923 168.075 21.3955 168.075 27.2234C168.075 28.4842 167.047 29.5127 165.791 29.5127C164.534 29.5127 163.506 28.4842 163.506 27.2234C163.506 23.9095 160.761 21.167 157.448 21.167C154.136 21.167 151.276 23.9095 151.276 27.2234C151.276 30.5411 154.136 33.3979 157.448 33.3979C163.278 33.3979 168.075 38.2012 168.075 44.0291C168.075 49.8608 163.278 54.664 157.448 54.664Z" fill="#FBD302"/>
</g>
<defs>
<clipPath id="clip0_206_2208">
<rect width="193" height="196" fill="white"/>
</clipPath>
</defs>
</svg>
