<svg width="240" height="197" viewBox="0 0 240 197" fill="none" xmlns="http://www.w3.org/2000/svg">
<g clip-path="url(#clip0_206_1969)">
<path d="M107.355 173.375C96.8214 168.45 87.9391 160.597 81.736 150.854C75.7506 141.448 72.2779 130.264 72.2779 118.243C72.2779 117.486 72.2949 116.734 72.3205 115.998L77.986 122.227C79.2403 123.591 81.3478 123.702 82.7173 122.445C84.0953 121.193 84.1891 119.072 82.9519 117.713L72.2053 105.883C70.9511 104.507 68.8308 104.412 67.4741 105.665L55.6482 116.404C54.2702 117.661 54.1763 119.777 55.4306 121.141C56.6678 122.518 58.7924 122.62 60.1618 121.372L65.5927 116.43C65.5756 117.041 65.5671 117.644 65.5671 118.243C65.5671 131.556 69.428 143.983 76.1004 154.462C82.9818 165.252 92.8367 173.978 104.526 179.433C106.199 180.224 108.199 179.502 108.976 177.83C109.765 176.154 109.044 174.153 107.372 173.375H107.355Z" fill="#FE3D50"/>
<mask id="mask0_206_1969" style="mask-type:luminance" maskUnits="userSpaceOnUse" x="122" y="142" width="118" height="55">
<path d="M122.321 142.825H239.275V196.761H122.321V142.825Z" fill="white"/>
</mask>
<g mask="url(#mask0_206_1969)">
<path d="M233.511 143.338H144.13C140.051 143.338 135.862 146.686 134.808 150.773L123.055 196.718H219.851C223.929 196.718 228.119 193.379 229.172 189.301L239.036 150.773C240.085 146.69 237.594 143.338 233.511 143.338Z" fill="#FFAB02"/>
</g>
<mask id="mask1_206_1969" style="mask-type:luminance" maskUnits="userSpaceOnUse" x="0" y="0" width="149" height="91">
<path d="M0.230469 0.692383H148.533V90.2915H0.230469V0.692383Z" fill="white"/>
</mask>
<g mask="url(#mask1_206_1969)">
<path d="M123.836 89.7741C137.304 89.7741 148.234 78.8596 148.234 65.3842C148.234 52.8922 138.802 42.4266 126.378 41.1184C128.661 19.6313 111.86 0.794922 90.1625 0.794922H90.1326C76.9927 0.794922 64.8553 7.90026 58.4048 19.362C54.8126 17.7161 50.892 16.8567 46.9372 16.8567C32.8288 16.8567 20.9858 27.5019 19.5055 41.5331C8.264 43.9571 0.239258 53.8926 0.239258 65.3928C0.239258 78.851 11.148 89.7784 24.6207 89.7784H123.84L123.836 89.7741Z" fill="#6699FF"/>
</g>
<path d="M162.116 56.7272C171.724 60.0447 180.393 65.735 187.261 73.2593C193.302 79.8772 197.97 87.9188 200.649 97.0506L193.528 92.8994C191.924 91.9589 189.868 92.5061 188.929 94.1093C187.987 95.7039 188.537 97.7731 190.141 98.6966L203.934 106.751C205.529 107.692 207.577 107.144 208.52 105.554L216.574 91.7579C217.513 90.1505 216.967 88.0941 215.376 87.1536C213.772 86.2301 211.715 86.7603 210.777 88.3677L206.98 94.8703C203.985 84.8664 198.84 76.0339 192.189 68.7404C184.557 60.3824 174.936 54.0808 164.296 50.3914C162.543 49.7928 160.636 50.7334 160.034 52.4734C159.437 54.2176 160.359 56.1201 162.103 56.7186L162.116 56.7272Z" fill="#FE3D50"/>
<path d="M123.059 112.92V169.605L128.298 149.092C130.081 142.128 136.894 136.613 144.129 136.613L220.938 136.63V130.012C220.938 127.849 219.185 126.109 217.035 126.092H171.233L160.051 107.623H128.349C125.422 107.623 123.059 109.991 123.059 112.916V112.92Z" fill="#FFAB02"/>
</g>
<defs>
<clipPath id="clip0_206_1969">
<rect width="240" height="197" fill="white"/>
</clipPath>
</defs>
</svg>
