<svg width="205" height="179" viewBox="0 0 205 179" fill="none" xmlns="http://www.w3.org/2000/svg">
<g clip-path="url(#clip0_206_2039)">
<mask id="mask0_206_2039" style="mask-type:luminance" maskUnits="userSpaceOnUse" x="0" y="0" width="205" height="142">
<path d="M0.495117 0H204.762V141.717H0.495117V0Z" fill="white"/>
</mask>
<g mask="url(#mask0_206_2039)">
<path fill-rule="evenodd" clip-rule="evenodd" d="M160.005 140.986H138.467C137.152 140.986 136.075 139.908 136.075 138.592V109.011C136.075 107.215 134.756 105.898 132.962 105.898H56.7363C55.1798 105.898 53.9834 107.334 53.9834 109.011V138.592C53.9834 139.908 52.9061 140.986 51.5907 140.986H45.1298C33.1631 140.986 21.9136 136.316 13.5392 127.932C5.16152 119.551 0.495117 108.293 0.495117 96.3168C0.495117 82.1876 7.07503 69.0143 18.3246 60.7492C16.2921 55.7187 15.2147 50.569 15.2147 45.1813C15.2147 20.5115 35.3178 0.511719 59.9684 0.511719C69.3012 0.511719 78.277 3.38584 85.9343 8.77683C92.7554 13.566 98.02 20.151 101.252 27.9366C104.124 27.0997 107.234 26.8584 110.945 26.8584C119.918 26.8584 128.655 29.4943 136.075 34.5216C142.774 39.0726 148.041 45.1813 151.512 52.3682C154.261 51.8886 157.014 51.5282 160.005 51.5282C184.656 51.5282 204.762 71.647 204.762 96.3168C204.762 108.293 200.092 119.551 191.718 127.932C183.34 136.316 172.094 140.986 160.005 140.986Z" fill="#9EC7DB"/>
</g>
<path fill-rule="evenodd" clip-rule="evenodd" d="M130.57 105.418H115.493C114.416 105.418 113.457 104.459 113.457 103.384V82.1874C113.457 76.5582 111.544 71.7659 107.714 68.5345C104.363 65.6604 99.9373 63.9835 95.0297 63.9835C86.1761 63.9835 76.6021 69.7318 76.6021 82.1874V103.384C76.6021 104.459 75.6437 105.418 74.5664 105.418H59.4898C58.4125 105.418 57.4541 104.459 57.4541 103.384V82.1874C57.4541 70.6909 61.5255 61.1094 69.3018 54.283C76.1229 48.2965 85.2177 44.9429 95.0297 44.9429C104.842 44.9429 113.937 48.2965 120.758 54.283C128.534 61.1094 132.605 70.6909 132.605 82.1874V103.384C132.605 104.459 131.647 105.418 130.57 105.418Z" fill="#DEDEDE"/>
<path fill-rule="evenodd" clip-rule="evenodd" d="M132.962 178.948H57.0969C52.7874 178.948 49.3174 175.476 49.3174 171.404V108.891C49.3174 104.701 52.7874 101.347 57.0969 101.347H132.962C137.271 101.347 140.742 104.701 140.742 108.891V171.404C140.742 175.476 137.271 178.948 132.962 178.948Z" fill="#FFB844"/>
<path fill-rule="evenodd" clip-rule="evenodd" d="M123.388 178.949H66.6675C66.4295 177.513 66.3105 175.836 66.3105 174.041C66.3105 168.772 67.2689 164.578 68.3431 164.578H121.716C122.79 164.578 123.748 168.772 123.748 174.041C123.748 175.836 123.629 177.513 123.388 178.949Z" fill="#FFA63D"/>
<path fill-rule="evenodd" clip-rule="evenodd" d="M66.5485 101.347H123.51C123.629 102.664 123.748 104.102 123.748 105.66C123.748 111.167 122.79 115.718 121.716 115.718H68.3431C67.2689 115.718 66.3105 111.167 66.3105 105.66C66.3105 104.102 66.4295 102.664 66.5485 101.347Z" fill="#FFA63D"/>
<path fill-rule="evenodd" clip-rule="evenodd" d="M95.0291 156.316C91.7971 156.316 89.1664 153.803 89.1664 150.568V143.143C86.2945 141.228 84.5 137.993 84.5 134.521C84.5 128.531 89.0474 123.861 95.0291 123.861C101.011 123.861 105.558 128.531 105.558 134.521C105.558 137.993 103.764 141.228 100.892 143.143V150.568C100.892 153.803 98.2612 156.316 95.0291 156.316Z" fill="#333333"/>
<path fill-rule="evenodd" clip-rule="evenodd" d="M132.962 178.948H119.561V101.347H132.962C137.271 101.347 140.742 104.701 140.742 108.891V171.404C140.742 175.476 137.271 178.948 132.962 178.948ZM70.7391 178.948H57.0969C52.7874 178.948 49.3174 175.476 49.3174 171.404V108.891C49.3174 104.701 52.7874 101.347 57.0969 101.347H70.7391V178.948Z" fill="#FFA63D"/>
</g>
<defs>
<clipPath id="clip0_206_2039">
<rect width="205" height="179" fill="white"/>
</clipPath>
</defs>
</svg>
